<svg height="86" width="119" xmlns="http://www.w3.org/2000/svg"><mask id="a" fill="#fff"><path d="M0 .706h118.654V39H0z" fill-rule="evenodd"/></mask><g fill="red" fill-rule="evenodd"><path d="M89.716 21.445c.196-.026.274-.024.345-.048 1.182-.404 2.155-1.096 2.855-2.138.143-.21.24-.472.29-.724.099-.476-.108-.648-.575-.488a1.897 1.897 0 00-.545.307c-1.022.807-1.675 1.897-2.37 3.091m-19.738-.099l.096.107c.12-.029.244-.049.36-.087a5.249 5.249 0 002.496-1.734c.248-.308.415-.699.546-1.078.15-.434-.104-.66-.55-.537a.885.885 0 00-.352.172c-.425.388-.886.752-1.243 1.198-.494.62-.906 1.303-1.353 1.96m-19.775-3.28c-.284.09-.585.147-.85.28-.735.365-1.261.98-1.768 1.602-.875 1.078-1.63 2.232-2.053 3.566-.08.25-.107.64.032.802.24.28.607.086.91-.044a.75.75 0 00.204-.12c.53-.487 1.125-.924 1.569-1.48a57.997 57.997 0 002.56-3.492c.388-.568.076-1.067-.604-1.115m-32.91 7.756c.08-.04.252-.09.378-.194.315-.258.649-.509.902-.82.739-.91 1.484-1.818 2.148-2.78 1.736-2.51 3.428-5.054 5.143-7.58.497-.729.506-.722-.273-1.094-.515-.245-.53-.247-.854.233-2.276 3.354-4.553 6.707-6.817 10.07-.36.533-.667 1.102-.966 1.672-.16.305-.041.491.34.493m-1.98-9.147c.277.013.417.03.556.025 3.094-.108 5.362-1.576 6.927-4.205.14-.236.06-.334-.16-.4-.213-.066-.428-.13-.642-.194-1.872-.558-3.776-.828-5.731-.622-1.225.128-2.376.441-3.324 1.293-1.124 1.01-1.045 2.741.163 3.553.3.201.488.203.698-.13a150.587 150.587 0 012.213-3.412c.16-.24.377-.566.61-.607.524-.09 1.073-.028 1.734-.028-1.038 1.612-2.01 3.12-3.043 4.727m10.14 1.18c.129-.605.38-.825.9-.838.42-.01.84-.042 1.262-.05 1.512-.026 2.729-.652 3.626-1.85.653-.87 1.202-1.803 1.044-2.972-.078-.585-.424-.935-1.016-.945a2.887 2.887 0 00-.892.117c-1.148.357-1.921 1.208-2.644 2.104-.046.058.027.294.112.361.329.261.684.49 1.033.726.193.131.273.27.102.485-.164.206-.32.232-.535.07-.294-.222-.615-.408-.903-.636-.314-.247-.506-.172-.718.146-1.225 1.84-2.467 3.668-3.702 5.502-.054.081-.087.177-.176.358.22-.077.349-.134.483-.166.573-.136 1.145-.278 1.723-.389.208-.04.464-.077.494.276.028.333-.18.375-.432.43-.576.125-1.168.22-1.713.431-1.458.565-2.415 2-2.374 3.458.024.868.566 1.473 1.423 1.57 1.064.118 2.087-.05 3.004-.608 2.029-1.235 3.242-3.027 3.424-5.413.09-1.176-.326-1.995-1.722-2.13-.418-.04-.841-.029-1.262-.038-.177-.004-.354 0-.541 0m4.53-.163c.213.147.339.236.468.323.662.451 1.032 1.084 1.115 1.872.085.812-.01 1.612-.355 2.356-.274.59-.608 1.152-.941 1.774.133-.077.24-.12.326-.19.807-.654 1.642-1.279 2.41-1.977 1.249-1.134 2.43-2.336 3.395-3.733.108-.157.308-.326.483-.348.573-.072 1.155-.082 1.733-.105.092-.003.187.048.326.086-.098.173-.161.3-.238.418-1.028 1.592-2.063 3.181-3.083 4.778-.204.32-.381.665-.52 1.017-.144.36.032.567.399.46.335-.098.695-.226.954-.446.7-.594 1.44-1.176 2.003-1.889 1-1.269 1.878-2.635 2.819-3.95.107-.15.277-.333.435-.352.613-.07 1.234-.087 1.852-.113.078-.003.158.055.274.1-.088.158-.148.286-.225.405-.852 1.331-1.722 2.65-2.554 3.993-.33.534-.595 1.111-.855 1.685-.064.142-.06.438.027.498.129.09.392.096.543.024.362-.176.756-.358 1.026-.643a81.945 81.945 0 002.984-3.307c.964-1.136 1.985-2.187 3.393-2.763.838-.343 1.706-.48 2.58-.17.283.1.52.328.809.518.085-.133.174-.26.254-.393.48-.787.956-1.576 1.434-2.364.48-.79.48-.79-.39-1.126-2.591-.998-5.182-1.998-7.775-2.993-4.02-1.543-8.04-3.08-12.06-4.623-2.827-1.084-5.655-2.166-8.478-3.26-.31-.12-.483-.097-.677.206-1.365 2.127-2.753 4.24-4.131 6.358-.146.225-.276.461-.43.718.13.047.2.08.273.098 1.199.3 2.397.604 3.6.88.132.03.314-.094.453-.18.18-.112.332-.35.512-.37.694-.07 1.393-.079 2.09-.102.094-.003.19.04.374.08-.272.374-.497.691-.731 1-.406.535-.407.545.17.842.13.066.265.12.388.196.266.17.447.082.642-.14.365-.415.74-.825 1.15-1.196 1.216-1.107 2.656-1.578 4.293-1.394.57.064 1.106.25 1.543.645.856.772.917 1.748.635 2.763-.5 1.8-1.724 2.941-3.432 3.603-.39.151-.792.266-1.29.431M3.472 35.135c.96-.144 1.92-.282 2.88-.434 3.38-.536 6.76-1.077 10.142-1.617l8.23-1.312c3.525-.56 7.049-1.119 10.572-1.68 1.91-.303 3.82-.609 5.732-.912 2.042-.323 4.08-.676 6.128-.943.526-.068 1.09.12 1.63.226 2.235.44 4.465.901 6.699 1.343 3.745.74 7.493 1.468 11.238 2.208 3.409.674 6.816 1.362 10.226 2.037 3.746.742 7.493 1.474 11.238 2.214 1.459.288 2.918.578 4.372.89.397.085.625-.023.844-.366 1.953-3.048 3.922-6.085 5.888-9.125 1.059-1.636 2.123-3.268 3.176-4.907a.849.849 0 01.7-.426c.31-.028.619-.122.91-.235.163-.064.42-.247.405-.337-.038-.23-.207-.438-.337-.682-.61.623-2.012.76-2.651.326-.521-.354-.688-.937-.48-1.699.037-.136.086-.27.07-.448-.374.414-.777.805-1.118 1.246a297.794 297.794 0 00-3.334 4.41c-.184.246-.367.376-.678.376-.447.001-.893.044-1.341.062-.126.006-.253-.014-.485-.03.143-.256.239-.446.352-.626 1.092-1.77 2.19-3.535 3.28-5.307.138-.222.25-.465.335-.712.036-.105.012-.294-.06-.353-.07-.057-.276-.044-.353.021-.462.386-.952.755-1.344 1.206-1.025 1.184-1.974 2.434-3.013 3.604-.873.984-1.91 1.784-3.191 2.184-.83.26-1.675.368-2.507-.017-.642-.298-.985-.83-.937-1.513.04-.568.237-1.124.364-1.685l.077-.332c-.68.607-1.274 1.138-1.87 1.668-.911.812-1.88 1.534-3.066 1.897-.765.234-1.552.352-2.336.141a2.2 2.2 0 01-.878-.487.639.639 0 01.042-1c.29-.207.632-.087.884.307.486.762 1.33.841 1.923.15.263-.305.503-.65.668-1.017.598-1.32.755-2.755.96-4.214-.352.372-.691.758-1.06 1.113-1.433 1.377-2.853 2.768-4.326 4.1-.603.546-1.336.936-2.172 1.067-1.481.232-2.26-.717-1.735-2.12.086-.232.188-.458.232-.72-.434.388-.861.785-1.303 1.165-.86.74-1.814 1.323-2.93 1.575-.763.172-1.543.22-2.284-.128-.56-.262-.902-.708-.901-1.327a7.05 7.05 0 01.175-1.438c.06-.278.039-.43-.226-.575-.318-.175-.604-.41-.927-.635-.406.518-.802 1.073-1.248 1.583-.87.995-1.775 1.978-3.078 2.396-.522.168-1.111.217-1.664.19-.74-.039-1.164-.637-1.081-1.38.029-.268.1-.53.166-.856-.448.411-.84.796-1.26 1.15-.693.583-1.452 1.03-2.387 1.135-1.32.152-2.01-.71-1.541-1.958a.936.936 0 00.08-.454c-.122.122-.245.243-.366.366-.714.73-1.464 1.427-2.434 1.783a3.98 3.98 0 01-1.498.235c-.777-.03-1.2-.603-1.116-1.379.033-.296.114-.586.194-.983-.188.181-.318.296-.438.422-.75.79-1.535 1.537-2.616 1.838a3.384 3.384 0 01-1.166.121c-.975-.083-1.464-.773-1.284-1.732.034-.179.08-.355.143-.626-.49.436-.904.825-1.338 1.19-.673.564-1.407 1.023-2.29 1.185a2.203 2.203 0 01-.353.038c-1.066.022-1.584-.612-1.353-1.655.034-.149.075-.296.129-.512-.534.441-.996.848-1.485 1.217-.65.488-1.362.857-2.19.927-.486.041-.952-.014-1.307-.405-.423-.467-.348-1.005-.167-1.526.133-.383.344-.739.52-1.106.049-.1.104-.2.102-.34-.453.393-.895.798-1.36 1.176-1.676 1.363-3.463 2.533-5.562 3.158-1.356.403-2.733.54-4.14.352-1.152-.154-2.348-.924-2.307-2.404 0-.06-.031-.123-.07-.262-.143.166-.242.296-.357.41-.656.64-1.264 1.346-1.99 1.897-.775.59-1.701.597-2.591.191-.713-.326-1.037-1.02-.731-1.739.317-.745.716-1.466 1.16-2.144 1.35-2.059 2.739-4.092 4.112-6.136.05-.074.09-.155.188-.32-.171.062-.26.087-.342.126-2.132.996-4.335 1.293-6.605.57-1.063-.338-1.85-1.02-2.032-2.197-.184-1.195.24-2.18 1.158-2.943 1.067-.885 2.356-1.192 3.694-1.35.26-.033.528-.086.786-.06.496.05.793-.16 1.054-.569C19.222 7.613 20.726 5.308 22.224 3c.307-.475.62-.947.935-1.417.324-.48.329-.489.886-.276 1.932.738 3.858 1.484 5.789 2.225 3.627 1.391 7.255 2.777 10.88 4.17 3.59 1.38 7.176 2.766 10.764 4.148.934.36 1.873.705 2.805 1.068.223.086.377.065.488-.162.057-.118.16-.216.203-.337.244-.677.75-.872 1.422-.847.438.017.88-.04 1.424-.07-.112.237-.163.378-.24.503-1.72 2.836-3.458 5.662-5.158 8.511-.604 1.015-1.117 2.084-1.67 3.131-.042.08-.066.172-.088.261-.104.437.136.71.526.51.575-.298 1.144-.658 1.616-1.098 1.562-1.462 2.928-3.104 4.147-4.859.334-.48.672-.803 1.297-.752.453.037.912.007 1.438.007-.081.164-.135.302-.213.424-1.02 1.583-2.045 3.162-3.06 4.748-.198.31-.376.638-.513.977-.061.15-.056.39.03.51.064.088.346.12.462.053.498-.285 1.062-.532 1.434-.944 1.048-1.16 2.03-2.38 3.002-3.605.449-.565.816-1.196 1.21-1.803a.688.688 0 01.619-.34c.573-.01 1.145-.053 1.82-.088-.112.241-.162.381-.238.507-.801 1.332-1.618 2.653-2.405 3.993a13.19 13.19 0 00-.78 1.593c-.075.181-.09.501.017.614.114.118.448.147.615.067.504-.244 1.022-.499 1.445-.857.943-.8 1.66-1.798 2.21-2.904.13-.26.149-.575.218-.865.157-.66.283-1.33.483-1.977.117-.377.466-.559.858-.61.544-.074.88.257.7.766-.252.716-.6 1.4-.893 2.101-.085.205-.247.528-.167.625.24.29.575.508.897.72.042.026.262-.135.332-.25.599-.987 1.312-1.873 2.212-2.606.802-.654 1.687-1.129 2.727-1.25a3.37 3.37 0 01.94.014c.795.132 1.155.743.908 1.516-.305.954-.99 1.598-1.795 2.132a7.765 7.765 0 01-2.838 1.15c-.283.055-.454.193-.528.457-.1.354-.236.705-.27 1.066-.057.602.237.945.83.87.574-.074 1.17-.229 1.68-.497 1.36-.72 2.395-1.842 3.372-3.003.805-.956 1.535-1.974 2.322-2.946a1 1 0 01.58-.316c.44-.068.892-.069 1.338-.088.137-.006.276.02.487.038-.105.21-.167.362-.252.5-.927 1.501-1.868 2.994-2.781 4.503a7.205 7.205 0 00-.576 1.252c-.138.375.044.594.428.497.335-.086.699-.22.95-.445a139.737 139.737 0 003.81-3.492c.76-.727 1.475-1.505 2.187-2.28.198-.217.336-.497.465-.765.2-.415.424-.797.909-.917.446-.11.768.008.92.323.17.35.1.816-.274 1.01-.468.24-.461.597-.452 1.015.018.907.042 1.815.008 2.721-.016.437-.16.87-.263 1.395.516-.457.985-.865 1.445-1.283 1.17-1.06 2.318-2.148 3.51-3.185.776-.675 1.686-1.132 2.727-1.245a3.437 3.437 0 011.017.048c.598.116.888.538.845 1.148-.044.622-.333 1.136-.756 1.57-1.024 1.051-2.29 1.681-3.705 1.987-.506.11-.773.345-.87.817-.064.307-.14.617-.154.928-.021.493.207.721.72.726.623.005 1.185-.21 1.708-.542 1.119-.709 1.963-1.698 2.8-2.703a84.445 84.445 0 012.767-3.182c.474-.515 1.132-.708 1.838-.674.78.038 1.2.542 1.09 1.318a3.724 3.724 0 01-.19.723c-.083.233-.203.453-.273.71.342-.368.66-.76 1.029-1.099.532-.487 1.075-.97 1.66-1.388.452-.323 1.003-.432 1.539-.18a.919.919 0 01.43.46c.03.08-.195.293-.338.397-.62.45-1.095.993-1.19 1.783-.036.313-.06.652.327.803.315.123.858-.046 1.058-.346.474-.712.939-1.43 1.404-2.15 2.233-3.448 4.464-6.896 6.694-10.346a2358.87 2358.87 0 003.038-4.715c.068-.106.122-.22.227-.412-.212.021-.336.024-.456.047-2.29.44-4.578.881-6.866 1.325-2.766.536-5.531 1.074-8.297 1.613-3.023.59-6.046 1.185-9.07 1.773-2.184.423-4.37.834-6.554 1.258-1.821.353-3.641.722-5.462 1.076-2.598.506-5.197 1.003-7.795 1.507-2.338.455-4.676.915-7.015 1.37-2.002.39-4.003.78-6.007 1.162-.127.024-.267-.02-.4-.033.038-.12.058-.25.118-.356.182-.32.399-.623.566-.95.165-.327.413-.475.763-.542 4.734-.908 9.466-1.82 14.197-2.74 4.175-.812 8.347-1.637 12.522-2.449 3.387-.659 6.776-1.302 10.16-1.962 3.53-.686 7.054-1.388 10.582-2.075 3.502-.682 7.007-1.355 10.51-2.03.479-.094.957-.188 1.437-.27.132-.022.269-.003.509-.003-.334.533-.611.988-.9 1.435-2.705 4.176-5.414 8.351-8.117 12.528-2.884 4.455-5.763 8.911-8.643 13.367-2.28 3.528-4.561 7.054-6.83 10.588-.211.327-.422.42-.81.342-5.112-1.026-10.227-2.033-15.34-3.048-5.645-1.119-11.288-2.242-16.933-3.36-4.365-.867-8.733-1.718-13.094-2.604-.677-.138-1.31-.01-1.955.09-2.394.37-4.785.76-7.176 1.142l-6.632 1.056-10.571 1.682c-2.978.473-5.956.951-8.934 1.421-2.796.441-5.593.873-8.39 1.312-1.273.2-2.547.408-3.821.61-.134.021-.272.016-.508.03.13-.23.204-.378.293-.515 2.882-4.438 5.766-8.875 8.649-13.312 1.205-1.855 2.41-3.71 3.605-5.572.158-.247.309-.314.58-.185.248.118.518.194.78.274.394.12.42.185.186.548l-2.667 4.11c-2.366 3.643-4.731 7.29-7.097 10.933-.312.481-.63.96-.943 1.44l.086.11" mask="url(#a)" transform="translate(0 22.294)"/><path d="M80.684 37.912c-.605-.003-.985-.392-.972-.997.017-.756.684-1.449 1.395-1.446.574.001.968.397.966.97-.004.812-.63 1.476-1.39 1.473"/></g></svg>