<svg height="86" width="119" xmlns="http://www.w3.org/2000/svg"><mask id="a" fill="#fff"><path d="M.177.565H26.6V29.27H.177z" fill-rule="evenodd"/></mask><g fill="red" fill-rule="evenodd"><path d="M5 54.964c.394-1.875.765-3.636 1.151-5.478 1.663 0 3.301.006 4.94-.001 4.378-.018 8.755-.037 13.132-.065a23.363 23.363 0 001.85-.097c2.251-.193 3.822-1.482 4.614-3.45 1.103-2.745 2-5.583 2.834-8.425.9-3.061 1.32-6.223 1.517-9.406a5.921 5.921 0 00-.137-1.69c-.197-.833-.839-1.355-1.53-1.384-.809-.033-1.394.33-1.684 1.265-.394 1.267-.677 2.568-.996 3.858-1.42 5.764-2.845 11.527-4.246 17.296-.135.558-.35.762-.95.757-2.783-.02-5.567.015-8.35.03h-.854c.293-1.252.549-2.379.819-3.503 1.28-5.334 2.542-10.672 3.86-15.998a16.729 16.729 0 012.346-5.323c1.34-2 3.146-3.317 5.518-3.876 3.286-.774 6.516-.59 9.7.477 2.932.981 4.58 3.117 5.285 6.04.72 2.985.521 5.996.143 8.999-.622 4.938-1.903 9.704-4.14 14.16-1.82 3.627-4.845 5.583-8.94 5.735-1.808.067-3.618.039-5.425.004-.603-.011-.872.164-1.024.77-.748 2.995-1.559 5.974-2.316 8.967-.134.528-.344.716-.908.711-2.855-.025-5.71-.002-8.564.004h-.872l2.734-10.377z"/><path d="M13 29.144c.401-1.675.783-3.264 1.166-4.852 1.313-5.446 2.63-10.891 3.938-16.338.055-.228.094-.467.091-.701-.007-.628-.32-1.1-.873-1.363a1.16 1.16 0 00-1.48.362c-.425.577-.834 1.23-1.01 1.914-.962 3.723-1.843 7.467-2.766 11.2-.763 3.088-1.547 6.17-2.318 9.256-.086.343-.175.589-.635.59-2.853.002-5.706.037-8.558.059-.093 0-.187-.022-.378-.046.048-.263.08-.507.136-.745C2.186 20.8 4.061 13.12 5.936 5.44c.337-1.382.69-2.763 1.003-4.151.1-.44.276-.625.758-.623 1.974.01 3.948-.025 5.921-.04 1.07-.007 1.07-.003 1.294 1.025.312-.103.616-.2.918-.305C17.159.879 18.495.46 19.934.588c3.731.33 6.612 3.473 6.664 7.22.033 2.364-.611 4.6-1.172 6.857-1.135 4.56-2.28 9.12-3.38 13.69-.16.663-.436.85-1.106.839-2.378-.043-4.756-.014-7.134-.015-.231 0-.461-.02-.806-.035" mask="url(#a)" transform="translate(88 25.342)"/><path d="M79.004 27.129c.882-.29 1.637-.568 2.408-.787 4.762-1.348 9.36 2.038 9.295 6.987-.024 1.852-.404 3.725-.829 5.539-1.148 4.9-2.402 9.776-3.627 14.658-.33 1.32-.097 1.085-1.365 1.096-2.26.02-4.52.012-6.779.015h-.915c.142-.673.25-1.265.392-1.85 1.425-5.86 2.856-11.718 4.281-17.577.158-.646.311-1.293.444-1.945.175-.865-.17-1.644-.836-1.935-.58-.254-1.34.008-1.829.749a4.897 4.897 0 00-.643 1.487 4072.052 4072.052 0 00-5.04 20.325c-.143.579-.357.792-.987.786-2.616-.023-5.232.02-7.848.04h-.805c.051-.293.076-.518.128-.736 2.215-9.064 4.437-18.127 6.64-27.193.123-.504.328-.681.86-.68 2.068.009 4.14.01 6.204-.081.838-.037.838.447.851 1.102m-25.33 18.19c.312-1.219.59-2.37.917-3.506.043-.148.334-.284.527-.315.396-.065.85.05 1.194-.102.367-.163.837-.502.916-.844.541-2.333 1.02-4.681 1.454-7.037.18-.972-.217-1.581-1.012-1.887-.717-.277-1.547-.004-2.059.721-.203.287-.37.613-.486.945-1.428 4.048-2.349 8.215-2.87 12.472a5.624 5.624 0 00-.018 1.277c.16 1.498 1.223 2.319 2.905 2.294 2.591-.039 5.182-.07 7.774-.104.232-.003.463-.001.731-.001-.018.228-.01.37-.042.503-.354 1.478-.72 2.953-1.067 4.433-.08.342-.192.537-.6.536-3.426-.003-6.856.124-10.277-.003-4.33-.162-7.295-3.146-7.859-7.61-.456-3.6.11-7.116.975-10.578.462-1.851 1.093-3.699 1.93-5.411 1.402-2.869 3.821-4.524 6.983-5.095 2.063-.374 4.106-.4 6.155.102 4.004.981 6.23 3.506 6.703 7.601.225 1.939.036 3.837-.422 5.721-.427 1.754-.842 3.51-1.257 5.266-.087.371-.194.64-.682.64-3.378-.002-6.756.025-10.134.04-.092 0-.184-.027-.379-.058"/></g></svg>