<svg height="86" width="119" xmlns="http://www.w3.org/2000/svg"><mask id="a" fill="#fff"><path d="M0 0h57.554v85.728H0z" fill-rule="evenodd"/></mask><path d="M41.291 47.87c.015 0 .043.002.07.005.197.017.393.002.588-.011.046-.004.092-.016.138-.026.128-.026.255-.056.383-.08.202-.035.406-.061.596-.144a.182.182 0 01.054-.015c.106-.01.197-.055.292-.095l.36-.155c.354-.153.393-.174.713-.386.031-.02.064-.04.09-.065.145-.134.31-.242.46-.366a.99.99 0 00.247-.265c.02-.031.044-.06.067-.09.154-.2.293-.41.436-.617.07-.1.126-.207.186-.314.077-.138.15-.278.225-.418.11-.133.156-.297.23-.447.012-.025.03-.048.042-.073.035-.066.07-.132.103-.2.106-.207.17-.434.283-.64.014-.023.022-.051.032-.077.101-.281.21-.56.317-.837.027-.07.051-.141.071-.213.06-.206.118-.413.184-.617.015-.044.021-.091.031-.136l.18-.821c.025-.118.056-.236.08-.355.021-.11.033-.222.034-.334a9.61 9.61 0 00-.01-.588 3.165 3.165 0 00-.118-.69c-.06-.215-.142-.423-.218-.634a.759.759 0 00-.035-.077c-.11-.215-.208-.438-.325-.651a1.364 1.364 0 00-.213-.293l-.253-.262a1.528 1.528 0 00-.102-.096 4.78 4.78 0 00-.736-.51 2.958 2.958 0 00-.589-.256 4.816 4.816 0 01-.213-.07 1.984 1.984 0 00-.353-.088c-.148-.022-.294-.055-.44-.083-.257-.05-.516-.084-.774-.13a2.907 2.907 0 00-.417-.045 1.155 1.155 0 01-.249-.032c-.063-.015-.129-.02-.194-.026-.083-.008-.168-.008-.25-.02-.225-.03-.448-.03-.673-.03a1.9 1.9 0 00-.418.035c-.045.01-.092.013-.139.018-.185.019-.37.042-.55.09a.649.649 0 01-.139.022c-.159.006-.313.056-.473.058a.198.198 0 00-.054.01c-.19.05-.383.082-.577.11-.12.019-.236.052-.348.1-.103.046-.21.079-.317.115-.115.039-.23.073-.346.11-.195.066-.39.13-.583.2-.194.07-.384.146-.58.204-.073.02-.14.053-.21.08-.227.088-.447.19-.669.287-.172.074-.34.155-.504.245-.147.08-.298.154-.438.249-.03.02-.066.035-.098.053a5.167 5.167 0 00-.217.129c-.095.059-.188.123-.282.183a2.422 2.422 0 00-.246.184 6.281 6.281 0 01-.486.379 4.07 4.07 0 00-.249.182c-.116.093-.228.19-.345.285-.11.087-.212.183-.31.282-.139.139-.278.278-.395.437-.016.022-.038.04-.056.06-.165.18-.318.369-.493.537-.047.045-.087.097-.13.147-.09.106-.174.219-.272.32-.026.027-.046.059-.067.09a.178.178 0 00-.029.159c.084.267.156.538.271.794.038.085.071.173.106.26.107.279.252.54.387.807.03.058.064.115.103.167.068.089.124.187.183.282.08.126.154.256.237.38.114.17.232.339.35.507.071.099.141.198.221.29.117.133.233.267.351.399.106.119.212.236.312.359.112.138.232.269.348.404.085.1.192.176.287.266.013.013.025.028.04.04.035.03.07.062.107.089.166.12.333.24.502.358.262.18.538.336.825.472.051.024.103.046.151.076.111.068.23.122.352.17.191.075.38.158.56.255.133.07.271.127.415.166.126.035.255.056.376.11.033.015.072.015.11.02.156.027.314.045.47.078.182.04.368.05.552.085.12.022.242.022.36.05.045.01.093.01.14.015.074.008.148.012.222.025.102.017.204.027.306.033.074.005.15.008.223.024.13.029.26.034.39.032h.433zm9.564-32.021h6.336c.103 0 .205.004.308.008a.068.068 0 01.048.026c.01.013.007.035.005.053a.166.166 0 01-.018.053c-.054.099-.104.198-.16.295-.257.435-.512.87-.77 1.303-.144.24-.282.485-.424.726-.258.433-.515.868-.772 1.302a1.8 1.8 0 01-.076.117.15.15 0 01-.118.065 8.82 8.82 0 01-.28.005h-7.85c-.094 0-.187.002-.28.004a.141.141 0 00-.117.067c-.05.078-.1.157-.152.235l-.12.188c-.187.28-.365.565-.546.849l-.752 1.183c-.024.039-.056.076-.059.124-.002.015.01.036.021.046.014.01.035.015.053.015.084.003.168.004.252.004h5.383a.93.93 0 01.138.012c.018.003.038.013.047.027a.07.07 0 01.008.053.307.307 0 01-.03.078l-.429.723c-.199.338-.398.676-.599 1.013l-.888 1.494c-.077.128-.15.258-.228.386a1.609 1.609 0 01-.095.138.114.114 0 01-.07.044c-.036.007-.073.016-.11.018a1.345 1.345 0 01-.168 0 1.37 1.37 0 00-.307.004c-.064.009-.13.004-.196.002a5.378 5.378 0 01-.25-.017 1.391 1.391 0 00-.336.006 1.576 1.576 0 01-.475-.001 1.133 1.133 0 00-.279-.006c-.065.005-.13.004-.195-.002a2.132 2.132 0 00-.252-.01c-.346.015-.692-.01-1.037.017-.046.004-.093-.004-.14-.006-.047-.003-.094-.011-.14-.006-.149.017-.299.002-.447.002l-1.094-.006h-.027a4.483 4.483 0 01-.53.008.35.35 0 00-.057.002c-.078.005-.145.029-.19.1-.05.079-.109.153-.155.234a5.434 5.434 0 01-.224.355c-.104.155-.19.32-.298.474-.108.153-.205.313-.307.469l-.073.12c-.117.19-.232.382-.363.565-.116.158-.216.327-.317.495-.116.192-.24.379-.363.567-.157.242-.319.482-.475.727-.12.189-.245.375-.354.57a.696.696 0 01-.06.095c-.065.08-.118.168-.174.255a.477.477 0 01-.07.086.24.24 0 01-.12.068l-.028.005c-.196.024-.39.046-.584.072-.195.026-.389.055-.582.083-.029.004-.056.01-.083.013-.204.025-.408.047-.613.073-.092.012-.184.03-.276.046-.275.05-.552.096-.822.167-.019.005-.038.005-.056.01a4.512 4.512 0 01-.46.119c-.156.03-.309.074-.464.112l-.545.129c-.354.083-.705.18-1.055.277-.036.01-.074.018-.11.026-.03.007-.092-.013-.098-.036a.288.288 0 01-.006-.083.14.14 0 01.02-.051l.256-.402c.021-.031.043-.061.063-.093.134-.225.284-.438.425-.66.242-.377.491-.75.723-1.133.072-.12.15-.237.23-.351.161-.23.314-.465.461-.704.155-.255.328-.5.494-.748.078-.116.155-.233.22-.357.04-.074.088-.143.136-.212.16-.23.314-.464.457-.705a.032.032 0 000-.027c-.01-.02-.027-.025-.048-.02-.044.013-.089.025-.133.04a6.78 6.78 0 00-1.605.788c-.142.09-.282.184-.422.277-.086.057-.169.117-.254.174a6.42 6.42 0 01-.21.142c-.213.135-.41.29-.599.458a2.058 2.058 0 00-.235.24 3.253 3.253 0 01-.304.329c-.115.11-.222.227-.349.324a.712.712 0 00-.1.097c-.158.186-.318.368-.453.57-.077.118-.16.23-.246.342-.085.112-.158.23-.23.35-.138.234-.262.475-.4.707-.053.09-.089.186-.13.28-.046.102-.08.209-.13.31a.707.707 0 00-.045.132 3.667 3.667 0 01-.15.45c-.082.2-.122.412-.128.629a3.137 3.137 0 00-.002.168 2.57 2.57 0 01-.028.447c-.006.036.007.07.022.076.02.006.037 0 .054-.007l.304-.143.026-.011c.118-.056.25-.08.37-.127.121-.05.241-.101.368-.136a3.79 3.79 0 00.45-.157c.172-.072.348-.132.533-.166a.983.983 0 00.16-.048c.15-.056.305-.091.462-.114.065-.01.128-.023.191-.042.207-.061.413-.122.626-.15a.44.44 0 00.081-.021c.124-.042.251-.071.378-.103.1-.026.203-.038.296-.084.111-.021.213-.07.326-.08.018-.002.037-.01.054-.014.227-.057.451-.12.684-.15.278-.081.564-.128.848-.181.165-.03.331-.057.497-.086.157-.027.313-.056.47-.081.22-.036.44-.085.664-.094.268-.044.54-.043.808-.087.046-.008.093-.01.14-.013.046-.004.093-.003.14-.012.2-.043.407-.05.611-.08.11-.014.222-.02.334-.026.14-.01.28-.011.42-.03.074-.01.15-.01.223-.011.346-.012.691-.006 1.037.003.066 0 .131.008.196.013.038.003.075.013.112.009.102-.01.204 0 .306.009.103.009.206.007.31.009.148.002.297.014.444.04.185.03.37.05.555.079.073.01.147.026.22.044.163.038.328.066.492.105.164.038.325.086.483.14.151.05.303.097.458.13.165.035.324.093.485.139a.277.277 0 01.026.01l.331.15c.111.05.224.094.326.16a.961.961 0 00.15.079c.385.165.76.36 1.144.527.171.074.338.16.491.268.108.076.222.139.342.19.12.054.236.115.341.194.023.016.045.033.07.045.178.088.328.215.48.338.021.018.042.038.065.054.247.169.471.368.701.558.143.12.287.24.427.363.085.073.163.153.232.242.188.244.382.485.57.729.153.199.31.398.442.613a.846.846 0 00.048.069c.13.162.226.342.314.529.082.177.171.353.255.53.153.32.275.653.368.997.028.108.055.217.087.325.064.224.102.454.115.689.006.102.007.205.022.307.015.1-.002.205.028.305.007.027.005.056.005.084.001.14.002.28 0 .42a1.343 1.343 0 01-.038.306c-.063.302-.096.608-.137.914a4.26 4.26 0 01-.117.547c-.057.198-.1.399-.129.603a2.6 2.6 0 01-.122.458c-.092.266-.21.519-.32.777a9.163 9.163 0 01-.476.95c-.102.18-.203.358-.314.53-.06.096-.12.19-.199.272-.025.026-.044.06-.066.09-.028.037-.053.077-.085.11-.136.142-.257.297-.384.446a7.283 7.283 0 01-.619.648c-.083.075-.16.157-.237.24a4.124 4.124 0 01-.367.344c-.26.225-.536.436-.806.65-.227.18-.463.349-.708.503-.08.05-.156.104-.233.157-.276.19-.556.376-.874.497-.06.023-.12.052-.176.086-.26.164-.545.287-.818.428-.025.013-.053.02-.078.032-.103.045-.218.049-.318.105-.099.055-.21.077-.317.114a2.132 2.132 0 01-.352.088c-.25.039-.495.103-.74.16-.273.065-.549.11-.828.14-.232.025-.463.058-.697.065-.286.058-.577.035-.866.043-.318.007-.635-.001-.953-.004-.084 0-.168-.005-.25-.012-.179-.015-.357-.024-.532-.052-.193-.03-.388-.052-.58-.094-.21-.046-.419-.096-.632-.127-.017-.003-.037-.006-.053-.014-.183-.078-.379-.1-.57-.144a10.056 10.056 0 00-.547-.122 3.394 3.394 0 01-.543-.135l-.054-.017c-.229-.05-.448-.128-.67-.198a18.713 18.713 0 01-.506-.17c-.14-.05-.28-.103-.418-.158-.225-.091-.448-.187-.675-.276a3.284 3.284 0 01-.379-.18c-.187-.104-.373-.213-.559-.32a.468.468 0 01-.07-.044c-.167-.123-.35-.215-.517-.337a.787.787 0 00-.095-.06c-.117-.061-.218-.143-.324-.22-.288-.21-.54-.46-.796-.706-.054-.052-.104-.107-.162-.155a6.274 6.274 0 01-.605-.582l-.45-.5c-.14-.21-.315-.394-.454-.605-.147-.227-.313-.442-.477-.658a5.118 5.118 0 01-.372-.56c-.079-.136-.15-.278-.256-.4-.005-.005-.016-.008-.024-.011-.022-.007-.037.002-.044.024-.01.045-.029.089-.036.135-.04.258-.093.515-.088.778.002.066.001.13-.003.197a5.53 5.53 0 00.014.728c.003.037.003.074.008.11.036.26.072.519.11.778.007.046.022.09.034.136.05.189.094.38.154.567a.62.62 0 01.033.164.854.854 0 00.074.298c.018.043.036.086.057.128a.864.864 0 01.092.293.965.965 0 00.055.216 2.8 2.8 0 00.274.612c.064.104.117.214.165.325.072.164.161.316.264.46.1.137.194.275.29.414.126.185.265.36.411.53.134.157.266.314.417.454.048.044.09.096.132.145.111.127.222.253.345.368.102.096.2.196.293.3.08.092.171.173.26.256.11.102.221.2.33.304.095.09.185.184.276.278.084.089.175.168.284.225.06.03.108.074.16.116.207.173.42.34.625.518.24.209.494.398.742.596.161.128.317.26.474.393.15.127.311.24.452.378.202.136.376.307.575.447.052.037.103.079.152.122.28.249.573.48.86.719.166.136.325.28.487.423.13.16.297.283.435.435.037.042.081.078.122.116.137.127.282.246.412.38.02.02.04.04.062.057.16.116.294.258.428.402l.097.1c.176.18.361.354.51.558a.665.665 0 00.117.12c.143.12.273.256.39.403a5.6 5.6 0 00.513.554l.22.216c.02.02.04.039.057.06.167.216.361.406.518.628a.326.326 0 00.017.022c.197.226.367.472.547.71.073.097.147.194.206.3.056.098.124.186.196.273.157.186.294.386.423.592.104.167.217.327.307.502.013.025.032.047.042.073.04.106.102.199.167.29.093.13.17.268.232.415.063.146.133.288.198.433.034.077.071.153.116.224.055.087.093.183.132.278.036.086.066.175.107.259.103.21.182.429.268.647l.02.052c.08.327.21.638.305.96.084.288.146.58.211.872.043.19.057.387.094.58.017.09.011.186.026.278.027.167.032.335.043.502.01.14.004.28.03.419-.006.243.027.485.02.728-.003.056.004.112.006.168a2.44 2.44 0 01-.027.475c-.009.055-.019.11-.02.166a3.242 3.242 0 01-.08.555c-.02.09-.033.183-.04.276a2.4 2.4 0 01-.119.575c-.046.132-.088.266-.126.4s-.087.267-.15.393a.642.642 0 00-.05.13 3.335 3.335 0 01-.203.582 3.273 3.273 0 00-.097.262c-.069.222-.159.439-.223.663-.016.054-.043.103-.068.154-.11.227-.227.45-.32.685-.08.147-.135.308-.233.446a.231.231 0 00-.028.048c-.08.19-.204.357-.31.532-.135.224-.278.444-.413.667a2.31 2.31 0 01-.16.23 3.62 3.62 0 00-.172.22c-.162.23-.35.438-.543.642-.07.075-.14.15-.202.232-.075.097-.16.184-.247.268-.08.078-.17.144-.24.234-.007.007-.013.014-.02.019-.144.09-.255.22-.385.326a.839.839 0 00-.084.074c-.159.16-.342.29-.522.424-.135.099-.275.193-.4.305-.028.025-.059.047-.089.069l-.526.372c-.023.016-.045.034-.069.048-.245.137-.466.31-.712.445-.337.184-.654.399-.976.606-.04.025-.078.053-.119.073-.309.156-.61.326-.929.46a5.027 5.027 0 01-.13.053c-.165.065-.333.122-.492.2-.042.022-.088.034-.132.049-.238.083-.47.177-.71.26-.184.064-.369.129-.56.17-.12.026-.237.063-.353.096-.243.068-.486.13-.733.183-.283.062-.568.117-.85.179-.282.063-.566.119-.847.188a.63.63 0 01-.165.026c-.105-.002-.205.016-.306.034-.046.008-.093.017-.139.019-.122.003-.24.027-.362.037-.224.018-.444.058-.666.09-.166.025-.334.039-.5.063a42.68 42.68 0 01-1 .127c-.13.015-.262.017-.393.02a3.67 3.67 0 00-.419.029c-.11.016-.223.02-.336.026-.185.01-.373.003-.559.026a.329.329 0 01-.083-.002 1.27 1.27 0 00-.308 0 2.381 2.381 0 01-.223.013l-.84.012a2.053 2.053 0 01-.365-.024 1.766 1.766 0 00-.25-.018c-.43-.004-.86-.011-1.29-.016-.103-.001-.206.003-.308.006a8.898 8.898 0 01-.589.002c-.224-.008-.448-.006-.673-.01-.12-.001-.242 0-.362-.027a.479.479 0 00-.083-.01c-.272-.011-.54-.042-.81-.073a4.145 4.145 0 01-.442-.07c-.11-.025-.217-.055-.327-.076a9.934 9.934 0 00-.415-.066c-.075-.01-.147-.025-.22-.04-.128-.027-.254-.062-.385-.076-.046-.005-.09-.02-.137-.03-.145-.032-.29-.067-.437-.097a6.276 6.276 0 01-.893-.235 2.285 2.285 0 00-.268-.08 4.845 4.845 0 01-.43-.125c-.17-.055-.337-.113-.505-.17-.018-.006-.035-.014-.053-.017-.167-.03-.32-.104-.478-.16-.185-.065-.37-.128-.558-.186a13.5 13.5 0 01-1.29-.466c-.035-.014-.07-.027-.102-.046-.138-.081-.284-.141-.43-.203a7.765 7.765 0 01-.844-.441.654.654 0 01-.069-.048 1.427 1.427 0 00-.29-.17 2.29 2.29 0 01-.32-.171.92.92 0 00-.147-.082 1.493 1.493 0 01-.242-.14 2.929 2.929 0 00-.19-.116c-.099-.056-.196-.112-.295-.164-.226-.115-.427-.268-.63-.416a2.918 2.918 0 00-.256-.172c-.072-.043-.143-.09-.217-.128-.283-.146-.54-.335-.812-.498-.12-.072-.228-.164-.34-.246-.038-.028-.073-.06-.114-.084-.144-.086-.276-.191-.414-.287-.116-.08-.226-.165-.336-.25a31.57 31.57 0 00-.514-.39 2.13 2.13 0 01-.294-.26l-.29-.302-.16-.16c-.147-.143-.294-.286-.44-.431a2.153 2.153 0 01-.152-.164c-.122-.154-.259-.295-.386-.445-.12-.142-.244-.282-.368-.422-.117-.133-.236-.264-.352-.4a11.064 11.064 0 01-.552-.705 15.134 15.134 0 00-.282-.384 7.71 7.71 0 01-.325-.457c-.035-.054-.074-.107-.113-.16-.14-.187-.27-.381-.398-.576a11.53 11.53 0 01-.338-.548 4.433 4.433 0 00-.194-.308 2.572 2.572 0 01-.26-.463 1.453 1.453 0 00-.197-.34 1.087 1.087 0 01-.102-.165c-.078-.15-.153-.3-.229-.45-.009-.017-.013-.035-.023-.051-.123-.21-.205-.44-.314-.657a2.35 2.35 0 01-.136-.337c-.027-.08-.062-.156-.096-.233a5.425 5.425 0 01-.179-.441 1.611 1.611 0 00-.05-.131 4.254 4.254 0 01-.259-.768 4.55 4.55 0 00-.199-.583c-.02-.052-.04-.103-.05-.16-.01-.054-.032-.107-.05-.16a3.471 3.471 0 01-.169-.65 2.925 2.925 0 00-.093-.38c-.078-.26-.142-.522-.203-.785-.038-.164-.084-.326-.12-.49-.043-.192-.088-.382-.114-.576-.038-.27-.085-.535-.126-.803a7.593 7.593 0 01-.082-.751 2.162 2.162 0 00-.029-.28c-.015-.091-.018-.185-.024-.278-.005-.065-.003-.131-.01-.196-.01-.102-.034-.203-.039-.306-.005-.102.012-.205.008-.307-.009-.262.008-.523.004-.785-.002-.112.014-.223.016-.335.001-.112-.008-.224-.009-.336 0-.066.002-.132.01-.196a3.19 3.19 0 00.014-.448 2.738 2.738 0 01.04-.586c.018-.1.02-.204.024-.307.01-.196.016-.392.024-.588.001-.01 0-.02.002-.028.035-.194.023-.391.031-.587.004-.112.004-.224.038-.333.048-.323.123-.641.183-.962.054-.294.112-.587.17-.881.017-.101.04-.201.08-.297.031-.077.032-.167.08-.238.047-.072.063-.154.088-.234.06-.197.124-.391.197-.584.096-.253.183-.51.27-.766.04-.125.09-.245.153-.36.085-.156.16-.316.223-.482.054-.14.112-.278.17-.415.071-.162.152-.32.214-.486.06-.086.09-.184.134-.277.031-.068.065-.134.087-.206a.556.556 0 01.043-.104c.09-.154.151-.321.22-.485a1.95 1.95 0 01.111-.224c.117-.203.244-.398.34-.613.017-.042.044-.082.067-.122.08-.138.16-.274.238-.412.06-.106.112-.217.194-.308.092-.152.188-.301.273-.457l.203-.367c.156-.277.313-.553.451-.84.122-.252.264-.494.414-.731a3.48 3.48 0 00.277-.518c.02-.051.05-.1.078-.148a5.85 5.85 0 01.408-.603.942.942 0 00.105-.165c.032-.067.07-.132.107-.197a3.33 3.33 0 00.2-.401.692.692 0 01.065-.123c.167-.248.338-.494.504-.742.271-.403.55-.8.813-1.208.102-.157.211-.31.316-.463.158-.232.32-.461.47-.698.03-.047.062-.093.096-.137a6.31 6.31 0 00.334-.484c.107-.165.213-.33.323-.492.096-.14.192-.277.277-.422.033-.056.073-.11.11-.162.101-.146.205-.29.302-.438.226-.344.455-.685.69-1.023.17-.246.331-.497.49-.75.09-.143.186-.281.28-.421l.748-1.117c.057-.085.118-.168.177-.253.07-.1.138-.2.206-.3.141-.21.283-.418.423-.628.078-.116.152-.235.23-.352.045-.07.093-.14.141-.21.073-.107.148-.214.218-.324.031-.047.052-.1.077-.15.01-.02-.017-.062-.039-.061-.009 0-.019-.003-.028-.001-.119.02-.239.039-.357.064a5.77 5.77 0 01-.58.09 4.308 4.308 0 00-.169.019c-.195.026-.388.056-.583.078-.11.012-.224.013-.336.017-.196.008-.392.015-.587.038-.157.019-.317.02-.476.024-.289.005-.579.009-.868.008-.149-.001-.299-.014-.448-.026-.13-.01-.26-.026-.39-.04a.357.357 0 01-.056-.007c-.172-.041-.347-.075-.517-.124a7.685 7.685 0 00-.298-.08 5.21 5.21 0 01-.667-.21c-.156-.061-.31-.126-.468-.188-.12-.048-.244-.093-.366-.14-.087-.034-.176-.063-.26-.102-.195-.09-.39-.181-.58-.28a26.373 26.373 0 00-.652-.327 1.743 1.743 0 01-.402-.252 3.964 3.964 0 01-.566-.458l-.02-.02c-.237-.183-.45-.392-.667-.597-.069-.065-.126-.138-.185-.21-.125-.152-.228-.32-.334-.484a1.826 1.826 0 01-.154-.298c-.049-.122-.107-.24-.164-.356a2.273 2.273 0 01-.18-.44c-.017-.063-.047-.122-.068-.184-.028-.08-.063-.155-.078-.24a.49.49 0 00-.036-.105 5.72 5.72 0 01-.254-.83c-.006-.027-.016-.054-.019-.081-.019-.178-.066-.35-.1-.523-.028-.137-.038-.277-.075-.413-.013-.044-.01-.093-.014-.14-.004-.055-.003-.112-.015-.167-.032-.147-.032-.297-.037-.446-.009-.233-.007-.467-.007-.701a4 4 0 01.07-.724c.024-.137.036-.278.077-.412a.483.483 0 00.015-.083c.025-.29.098-.571.165-.852.045-.191.09-.382.126-.575.031-.166.074-.327.14-.483.035-.086.062-.176.092-.264.057-.168.118-.334.192-.496.082-.18.154-.361.21-.55.024-.08.058-.157.09-.234.076-.191.148-.384.232-.571.058-.128.128-.25.2-.37.075-.13.147-.26.217-.392.083-.157.17-.312.255-.467.081-.148.161-.295.245-.441.065-.114.13-.227.2-.338.118-.19.226-.387.354-.571.106-.153.208-.31.316-.462.091-.13.173-.266.258-.4.217-.34.437-.674.69-.987.041-.05.08-.105.118-.157.022-.03.043-.062.07-.087.125-.115.224-.251.314-.393.161-.252.35-.485.532-.721l.222-.288c.075-.096.157-.187.224-.288.062-.093.137-.177.205-.266.194-.251.394-.498.57-.762.041-.062.08-.127.117-.191.044-.072.081-.147.146-.205.027-.024.046-.06.065-.091.048-.081.111-.15.171-.221.167-.201.354-.384.533-.575.108-.115.224-.225.321-.351.022-.03.05-.057.075-.083.14-.138.262-.292.383-.446l.034-.044c.083-.102.192-.18.264-.291.07-.11.161-.205.248-.303.135-.154.27-.31.422-.448.088-.082.165-.178.24-.273.063-.081.13-.16.208-.227.13-.11.24-.236.333-.376.047-.071.102-.133.162-.193.105-.105.211-.212.314-.32.04-.04.075-.083.111-.126.101-.122.2-.246.305-.365.081-.091.17-.173.252-.263.221-.241.442-.482.644-.74.11-.138.226-.273.34-.41.057-.072.111-.15.177-.215.066-.068.118-.145.181-.213.122-.13.23-.27.355-.397.111-.112.21-.237.32-.352.07-.075.14-.152.207-.228.195-.214.375-.442.57-.656l.017-.022c.163-.24.357-.455.558-.664.11-.115.204-.243.322-.351a.09.09 0 00.018-.021c.088-.133.202-.245.311-.36.046-.046.085-.1.121-.153.036-.055.073-.11.114-.16.082-.102.145-.218.206-.333.043-.082.082-.168.12-.253a.712.712 0 00.007-.599.231.231 0 00-.029-.048.868.868 0 00-.288-.261.424.424 0 00-.159-.051l-.419-.035a.38.38 0 00-.083.003c-.11.022-.223.025-.335.033-.028.003-.056.003-.083.008-.32.06-.644.118-.955.22a1.428 1.428 0 00-.309.13c-.048.03-.1.049-.15.074-.076.036-.156.069-.227.112-.199.12-.394.25-.598.363-.112.086-.235.153-.349.235-.205.147-.413.288-.628.42-.023.016-.048.03-.07.047-.179.135-.365.26-.55.384-.086.057-.173.114-.249.182-.02.019-.045.034-.068.05-.112.085-.237.148-.34.245-.095.09-.21.157-.303.25a.417.417 0 01-.067.05c-.16.097-.293.232-.45.334-.03.02-.052.052-.08.078-.034.032-.066.068-.105.092-.097.06-.174.14-.255.218a3.78 3.78 0 01-.289.264 1.257 1.257 0 00-.163.155c-.068.078-.148.142-.224.21-.063.057-.13.107-.203.149a.737.737 0 00-.137.097c-.123.115-.249.226-.357.356a1.896 1.896 0 01-.318.315c-.122.129-.27.228-.402.347-.09.082-.184.159-.272.242-.109.103-.212.21-.304.33a8.6 8.6 0 01-.49.575 1.659 1.659 0 00-.155.199c-.08.126-.167.248-.252.37a1.009 1.009 0 00-.127.25c-.037.115-.095.222-.133.338a.63.63 0 00-.023.304.231.231 0 00.11.157.12.12 0 00.08.017.488.488 0 00.357-.196c.056-.075.117-.145.176-.217.075-.096.157-.185.227-.285s.155-.186.244-.27c.196-.188.41-.353.623-.522a.747.747 0 01.246-.128c.247-.055.497-.086.751-.06.15.016.295.05.428.12.026.014.05.029.076.039.16.066.281.18.4.302.02.02.035.043.05.066l.138.21c.015.025.031.049.042.074.048.112.091.225.12.344a.485.485 0 01-.003.22c-.063.25-.188.469-.326.68-.046.07-.098.137-.148.205a2.925 2.925 0 01-.603.619c-.17.13-.336.269-.516.387-.016.01-.033.019-.046.032-.144.15-.328.246-.488.375a1.62 1.62 0 01-.21.137 1.518 1.518 0 00-.277.193.776.776 0 01-.187.12 4.935 4.935 0 01-.33.153 4.254 4.254 0 00-.375.19 1.023 1.023 0 01-.259.103 1.43 1.43 0 00-.264.093 1.97 1.97 0 01-.423.143c-.037.007-.074.015-.11.016-.085 0-.17.008-.253-.004a3.188 3.188 0 00-.447-.031c-.133-.001-.258-.037-.385-.067a.277.277 0 01-.078-.031 1.768 1.768 0 01-.348-.234l-.224-.211c-.088-.083-.17-.173-.27-.245a.585.585 0 01-.134-.142 3.468 3.468 0 01-.299-.506 2.12 2.12 0 01-.107-.288 6.422 6.422 0 01-.119-.547.936.936 0 01-.015-.14c-.002-.084-.004-.168-.004-.252 0-.112.002-.224 0-.336-.003-.13-.018-.262-.012-.392.005-.13.014-.261.014-.392 0-.32.053-.632.145-.938l.071-.241a1.99 1.99 0 01.158-.42c.131-.328.272-.654.372-.995a3.3 3.3 0 01.332-.74c.156-.266.332-.52.5-.778.03-.046.063-.093.098-.136.101-.123.19-.255.28-.386a2.25 2.25 0 01.336-.411c.055-.05.102-.11.151-.165.098-.113.192-.23.31-.322.03-.023.052-.054.078-.081a1.969 1.969 0 01.118-.12c.152-.094.258-.244.404-.344a.754.754 0 00.09-.07c.105-.09.21-.183.338-.244l.333-.257.178-.136c.044-.034.09-.066.133-.102a5.22 5.22 0 01.886-.588c.115-.061.231-.123.347-.183.05-.026.1-.05.152-.072.13-.053.255-.115.37-.195a.759.759 0 01.15-.08c.207-.083.412-.173.615-.266.187-.086.383-.147.584-.193.191-.043.383-.084.563-.164a1.03 1.03 0 01.16-.052c.218-.054.43-.128.646-.186a3.13 3.13 0 00.214-.068c.123-.043.247-.081.378-.101.11-.018.216-.057.323-.088.1-.028.197-.06.3-.07.018-.002.038-.004.055-.011.105-.041.218-.051.327-.075.11-.026.22-.04.33-.067.2-.05.405-.062.605-.112.044-.011.092-.01.14-.01.093-.001.185-.011.278-.026l.138-.023c.148-.02.298-.01.446-.041.136-.03.277-.043.416-.055.14-.011.28-.02.42-.012.13.006.261-.005.391.017.12.02.242.012.362.029.074.01.147.02.22.046a.793.793 0 00.272.053.494.494 0 01.14.014c.117.03.24.04.357.063.147.029.293.058.436.104.222.072.448.13.676.185.036.008.072.018.11.023.185.028.362.08.532.162.161.076.325.142.49.21.094.04.19.078.29.1.082.017.161.05.235.09.083.044.171.077.26.105.062.02.123.043.185.064.053.018.106.04.16.049.16.023.304.092.456.136.062.019.12.05.178.08.1.053.197.106.304.145.06.023.116.059.174.09.048.026.095.06.146.08a.825.825 0 01.26.163c.041.038.086.072.131.106.053.04.095.088.128.147.064.114.132.225.226.318.02.019.034.045.046.07.075.15.16.296.222.453.063.158.101.32.11.489.011.224.01.448-.007.672a1.06 1.06 0 01-.056.274c-.06.167-.108.338-.185.499-.032.067-.056.138-.08.208a4.68 4.68 0 01-.237.539 29.82 29.82 0 01-.204.398 3.73 3.73 0 01-.22.358l-.892 1.292c-.095.139-.197.272-.295.409-.059.084-.119.168-.173.255-.159.253-.33.498-.512.736l-2.756 3.573-1.268 1.642-.192.24c-.023.03-.05.056-.072.087-.188.257-.406.489-.603.737-.122.154-.243.308-.373.455l-.298.336c-.049.056-.095.114-.143.172-.018.02-.04.04-.05.066-.057.132-.154.234-.238.346-.083.112-.158.23-.25.337a1.193 1.193 0 00-.118.157c-.11.185-.246.352-.372.527-.119.167-.243.332-.364.497-.027.038-.054.077-.083.113-.196.238-.383.483-.57.728a.846.846 0 01-.09.106 2.853 2.853 0 00-.406.499c-.212.308-.414.623-.625.93a5.935 5.935 0 01-.35.473 4.845 4.845 0 00-.284.382c-.177.264-.36.523-.525.795a6.503 6.503 0 01-.268.394 5.234 5.234 0 00-.285.449c-.166.293-.339.58-.51.87-.113.193-.238.38-.342.579-.016.033-.038.064-.059.095-.1.136-.174.286-.23.446a.954.954 0 01-.064.155c-.082.148-.136.307-.194.465-.06.167-.126.332-.19.497a5.72 5.72 0 00-.244.803c-.013.055-.02.11-.028.166-.007.056-.009.112-.022.166a1.859 1.859 0 00-.042.446c0 .13.001.262.01.392.014.302.086.59.197.87.08.2.175.393.272.584.116.228.268.427.431.62a.55.55 0 00.104.094c.144.102.291.203.437.303a.764.764 0 00.124.064c.096.038.185.09.284.117a.187.187 0 01.052.023c.163.093.342.15.515.22.06.025.122.05.185.062.22.045.437.102.657.144.111.02.221.035.334.039.148.006.297.01.446.04.063.012.13.012.195.012.168 0 .336 0 .504-.002.066-.001.131-.008.196-.014.046-.005.092-.016.14-.02.261-.02.515-.08.772-.13a.268.268 0 00.055-.011l.645-.188c.153-.045.3-.106.441-.178.208-.106.42-.207.627-.311.193-.096.374-.212.54-.35.073-.06.14-.124.196-.2.096-.126.193-.252.281-.384.138-.211.284-.417.43-.622.061-.083.115-.17.172-.256.103-.155.214-.305.322-.458.055-.075.115-.147.16-.231.02-.041.048-.08.074-.117.17-.247.342-.491.505-.741.153-.235.316-.463.47-.697.025-.04.05-.08.077-.117.3-.405.56-.84.855-1.248.225-.31.426-.636.65-.948.09-.13.175-.264.276-.387.041-.05.076-.106.113-.16.088-.132.166-.27.27-.393a.527.527 0 00.03-.046c.137-.245.302-.472.475-.693a.564.564 0 00.044-.071c.066-.124.147-.238.226-.354.167-.248.34-.493.503-.742.253-.382.52-.754.777-1.132.047-.07.096-.14.14-.21.14-.233.276-.466.414-.7.105-.176.217-.347.346-.51a7.17 7.17 0 00.457-.636c.01-.016.02-.032.031-.046.153-.201.285-.416.438-.617.101-.134.201-.27.29-.412.054-.087.118-.168.176-.253.08-.115.16-.23.238-.346.09-.131.178-.263.271-.392.094-.127.166-.27.256-.401.138-.2.277-.398.424-.592.141-.187.273-.38.401-.574.098-.148.201-.292.301-.44.083-.123.178-.24.242-.375.027-.06.073-.108.111-.161.092-.13.184-.26.277-.388.005-.008.011-.015.015-.024.054-.087.103-.178.161-.262s.13-.158.192-.241a8.49 8.49 0 00.327-.49c.02-.03.036-.064.06-.094.16-.208.297-.43.447-.644.112-.161.214-.33.338-.482.034-.043.061-.093.09-.142a2.71 2.71 0 01.215-.327c.067-.09.127-.185.192-.276.234-.326.46-.658.684-.992.103-.156.217-.304.308-.468.192-.253.352-.528.543-.782.112-.15.211-.31.321-.46.271-.37.518-.754.778-1.131.062-.092.121-.19.183-.281.095-.14.192-.277.29-.413a.177.177 0 01.143-.076c.103-.003.206-.004.31-.004h8.212c.084 0 .168 0 .252.004.03 0 .056.008.083.014.05.01.087.09.064.136-.013.025-.025.05-.04.073-.195.274-.376.558-.563.837-.203.303-.402.607-.616.902-.12.167-.228.342-.34.514a2.53 2.53 0 01-.269.358.977.977 0 00-.128.184c-.07.122-.144.24-.217.36a1.371 1.371 0 01-.06.095c-.14.197-.263.408-.4.608-.132.193-.268.383-.398.576-.079.116-.152.236-.226.355-.06.095-.12.188-.186.28-.165.238-.332.474-.489.718-.09.14-.19.276-.282.417-.203.314-.409.625-.615.937-.026.039-.056.074-.084.112-.033.045-.067.09-.098.136l-.56.839a2.588 2.588 0 00-.09.14c-.17.282-.363.546-.546.817a1.783 1.783 0 01-.136.178 3.437 3.437 0 00-.34.479c-.07.11-.137.223-.207.333-.075.118-.149.238-.228.353-.273.39-.53.79-.79 1.19-.102.157-.197.318-.3.473-.219.326-.432.656-.65.982-.227.342-.462.679-.694 1.018-.02.03-.046.06-.064.092-.124.219-.268.427-.41.635-.032.047-.057.098-.093.14-.109.13-.192.276-.282.418-.15.237-.302.47-.455.707-.046.07-.094.138-.143.207-.11.15-.214.306-.317.462-.128.195-.253.393-.378.59-.025.039-.049.079-.076.118l-1.136 1.7c-.156.2-.294.41-.429.624-.13.204-.262.409-.398.61-.02.03-.04.063-.062.093a13.94 13.94 0 00-.54.819c-.073.119-.154.234-.232.35-.093.14-.187.279-.282.418-.047.07-.096.138-.144.207l-.109.163c-.092.14-.182.283-.279.42-.108.153-.21.309-.312.466-.07.11-.145.217-.218.325-.02.032-.043.06-.063.094-.208.343-.435.674-.66 1.007-.11.163-.215.329-.322.493-.062.093-.12.188-.185.28-.094.14-.19.277-.275.423-.067.112-.143.219-.217.326-.18.263-.349.532-.52.798-.178.275-.368.54-.55.813-.202.303-.402.608-.604.91-.149.227-.3.452-.45.677-.145.217-.288.437-.443.647-.039.053-.07.11-.106.166-.159.253-.323.503-.488.752-.18.273-.358.547-.54.818-.21.31-.407.627-.61.94l-.388.584c-.192.288-.382.577-.572.865-.026.039-.052.078-.08.115a4.398 4.398 0 00-.219.325 2.138 2.138 0 01-.094.14c-.07.098-.14.197-.202.302-.028.048-.065.09-.098.137l-.502.708c-.064.092-.119.19-.165.293-.05.11-.117.212-.187.31-.129.184-.256.369-.374.56-.183.293-.375.58-.562.87-.166.26-.33.522-.507.774-.316.452-.607.92-.908 1.382-.204.313-.414.62-.622.932l-.449.678c-.217.326-.43.656-.652.98-.243.354-.482.71-.71 1.075-.01.016-.019.032-.03.047-.144.185-.26.388-.389.582-.13.194-.254.392-.383.587-.28.419-.549.846-.836 1.26a3.557 3.557 0 00-.106.166c-.129.217-.256.434-.383.652l-.074.119c-.155.245-.308.49-.466.733a2.615 2.615 0 00-.127.217c-.034.066-.08.126-.12.189a7.42 7.42 0 00-.443.842c-.065.145-.137.287-.2.432-.103.24-.227.47-.318.716-.037.096-.085.187-.125.282-.133.319-.278.632-.403.955-.014.034-.032.067-.049.1-.113.226-.205.46-.287.699-.052.15-.112.297-.169.446-.007.017-.015.034-.02.05-.099.324-.242.628-.372.938-.008.017-.016.034-.022.052-.067.204-.155.4-.238.598-.057.137-.095.283-.14.425-.05.16-.098.32-.168.475-.027.059-.044.123-.062.186a9.5 9.5 0 00-.212.928 2.754 2.754 0 01-.05.218c-.012.045-.032.089-.036.135-.013.13-.048.257-.064.387-.029.222-.07.442-.106.663-.044.267-.08.536-.114.805-.014.1-.016.205-.02.307-.004.103-.003.206-.008.308-.01.205-.01.41-.039.615a2.44 2.44 0 00-.01.56c.002.027.001.056.002.084.008.224.018.447.035.67.024.318.024.636.071.95.004.028.004.057.006.085.006.102.003.207.02.307.028.156.067.31.105.465.016.063.035.126.037.192a.684.684 0 00.053.216c.1.262.2.524.298.786.023.06.045.123.065.185.057.178.12.353.188.527l.021.052c.065.215.163.418.258.62.111.237.226.472.327.714.078.189.16.378.244.565.02.042.036.087.062.125.122.177.216.37.327.555.053.088.104.177.156.265l.184.315c.046.08.094.16.148.237.06.085.113.17.167.259.055.088.114.17.18.25.057.074.125.14.167.224a.162.162 0 00.034.044c.183.188.343.395.511.595.253.302.531.577.822.84.07.063.14.126.205.192.19.192.393.373.601.546.172.143.337.296.513.434.256.203.492.432.772.604.152.124.313.237.477.344.032.02.06.045.092.063.351.198.687.419 1.045.6.083.044.166.086.247.133.21.123.433.22.658.31.053.02.105.042.156.064.335.145.672.28 1.015.404.457.164.91.338 1.37.496.15.05.298.106.447.164.174.067.356.11.537.158.017.004.037.004.054.01.231.078.47.122.701.2.044.015.09.026.134.037.11.028.221.03.328.069.097.034.201.047.301.065.101.019.203.032.304.05.156.032.31.077.47.079a.257.257 0 01.081.018c.106.038.218.05.33.069.137.024.273.052.411.08.11.024.22.052.331.054.028 0 .058.002.084.01.145.047.295.044.443.057.121.009.243.019.363.032.14.014.28.027.42.029.121 0 .242.005.363.023.063.01.13.009.195.01l.672.024c.047.002.094-.001.141 0 .102.003.205.004.307.013.168.015.335.018.503-.003a.547.547 0 01.14-.004c.102.012.204.012.307-.002a.848.848 0 01.167-.003c.16.008.32-.01.476.02.036.006.075 0 .111-.006.12-.02.242-.026.363-.034.121-.01.241-.033.361-.045.112-.012.225-.011.336-.027.23-.034.462-.062.693-.094.26-.036.52-.077.777-.123.13-.023.255-.055.386-.06.038 0 .074-.012.11-.023.053-.017.105-.037.157-.058.165-.065.333-.122.505-.167.207-.056.413-.118.62-.178.044-.013.087-.031.131-.047.035-.013.07-.03.104-.04.225-.065.443-.147.655-.247.187-.06.36-.156.535-.242.201-.1.4-.203.597-.308.15-.08.297-.16.44-.25.108-.07.215-.147.31-.237.185-.172.385-.326.558-.511.038-.041.084-.074.125-.112.048-.045.097-.09.14-.138a42 42 0 00.441-.506 1.79 1.79 0 00.186-.28c.028-.05.05-.101.083-.146.146-.206.266-.428.4-.642.183-.295.325-.61.43-.94.031-.098.074-.192.103-.29.03-.098.046-.2.072-.3.011-.045.031-.088.045-.132.03-.09.055-.178.068-.271.027-.204.083-.403.126-.603.05-.228.094-.457.138-.686.027-.138.04-.278.054-.417.006-.056.001-.112.003-.168l.011-.28c.004-.093.051-.182.035-.277-.016-.093-.009-.186-.016-.28-.016-.242-.024-.485-.07-.724-.016-.073-.016-.15-.027-.222a2.958 2.958 0 00-.116-.49 1.288 1.288 0 01-.067-.243c-.015-.112-.052-.218-.087-.324a4.928 4.928 0 00-.219-.575c-.02-.042-.035-.086-.052-.13-.104-.25-.205-.501-.312-.75-.036-.086-.083-.167-.126-.25-.08-.158-.173-.31-.237-.476-.014-.034-.035-.066-.054-.098a10.376 10.376 0 00-.49-.783 4.292 4.292 0 01-.196-.307 3.473 3.473 0 00-.286-.415c-.154-.188-.3-.381-.45-.574-.04-.051-.074-.107-.11-.161a1.752 1.752 0 00-.29-.341c-.155-.136-.294-.288-.439-.432a16.368 16.368 0 00-.626-.603c-.207-.217-.44-.405-.666-.602-.035-.031-.074-.057-.106-.09-.17-.174-.366-.32-.555-.472-.05-.041-.105-.077-.159-.115a10.895 10.895 0 01-.538-.402l-.043-.036a8.768 8.768 0 00-.764-.614c-.099-.07-.203-.133-.302-.201a2.085 2.085 0 01-.157-.12 6.039 6.039 0 00-.42-.325c-.137-.097-.266-.206-.402-.305a27.818 27.818 0 01-.802-.612 6.693 6.693 0 01-.64-.5c-.143-.12-.286-.24-.438-.35-.106-.076-.2-.166-.3-.25a3.698 3.698 0 01-.349-.326c-.133-.143-.277-.277-.392-.438-.016-.022-.038-.041-.056-.062-.083-.088-.16-.181-.252-.263a.884.884 0 01-.117-.12c-.157-.2-.347-.366-.52-.55-.167-.176-.34-.347-.51-.521-.104-.107-.209-.213-.296-.336a2.28 2.28 0 00-.173-.22 8.925 8.925 0 01-.39-.476 3.675 3.675 0 00-.368-.422c-.102-.097-.186-.211-.27-.323-.09-.12-.175-.242-.26-.364a.974.974 0 01-.07-.121c-.027-.05-.05-.1-.075-.151a6.555 6.555 0 00-.367-.693c-.03-.047-.056-.097-.082-.146a4.417 4.417 0 00-.257-.434c-.059-.083-.103-.177-.152-.268a.467.467 0 01-.043-.103c-.024-.101-.07-.192-.115-.285-.143-.304-.286-.608-.393-.928-.078-.171-.11-.357-.177-.531-.066-.176-.102-.36-.15-.54a17.318 17.318 0 01-.155-.625.772.772 0 01-.023-.166c0-.178-.05-.351-.067-.527-.059-.226-.085-.46-.129-.688-.022-.111-.022-.223-.026-.335-.005-.121-.005-.243-.01-.364a1.275 1.275 0 00-.02-.195 1.196 1.196 0 01-.022-.223c0-.374-.01-.747.002-1.121a.823.823 0 01.03-.221.393.393 0 00.015-.083c.01-.121.03-.241.045-.361.03-.222.055-.445.075-.668.015-.17.047-.334.101-.493a7.67 7.67 0 00.103-.35c.023-.08.045-.161.076-.24.044-.113.076-.23.104-.348.048-.2.11-.397.19-.586.048-.112.088-.226.122-.343.05-.17.115-.335.184-.498.077-.181.151-.362.226-.544.12-.293.244-.585.418-.854.076-.118.144-.24.207-.365.05-.1.112-.195.174-.288.098-.147.202-.291.303-.437.07-.1.135-.202.205-.301.067-.09.137-.177.206-.267.016-.022.033-.045.046-.07.115-.205.257-.388.417-.56.064-.068.12-.144.182-.213.1-.111.196-.224.312-.321.106-.091.2-.196.298-.295.106-.106.215-.207.338-.294.092-.064.18-.135.262-.211.16-.146.331-.274.512-.391.14-.092.277-.19.396-.31.04-.04.087-.071.132-.103.085-.06.172-.113.256-.173.083-.06.17-.115.267-.152.016-.006.032-.017.048-.026.078-.045.128-.107.131-.201.006-.131.017-.261.021-.392.005-.15.003-.3.007-.448a1.58 1.58 0 01.011-.168c.02-.158.03-.316.024-.475-.009-.282.03-.56.087-.834.038-.183.07-.367.074-.555.003-.112.011-.224.021-.336.034-.353.074-.705.188-1.045.078-.23.142-.464.214-.696.027-.09.04-.183.075-.27.1-.242.19-.488.295-.727.12-.273.252-.542.38-.812.084-.177.184-.346.284-.514.033-.057.071-.111.108-.164.124-.175.255-.346.388-.514.243-.308.495-.61.732-.921.07-.09.142-.171.238-.235.101-.068.18-.161.261-.252.038-.042.072-.086.107-.131.075-.095.16-.181.255-.258.11-.087.214-.181.313-.28.087-.085.178-.165.268-.247.145-.132.292-.262.436-.395.145-.133.3-.253.457-.37.3-.223.6-.447.886-.686.115-.096.238-.181.357-.272.067-.051.135-.1.2-.155a1.66 1.66 0 01.298-.207 8.47 8.47 0 01.981-.48c.14-.055.271-.126.41-.181.077-.03.153-.067.237-.078a.44.44 0 00.132-.046c.07-.033.14-.056.21-.077.171-.05.338-.11.495-.193a.496.496 0 01.16-.054c.121-.018.233-.064.344-.113.086-.037.17-.072.266-.085.082-.012.164-.04.241-.071.173-.072.356-.113.531-.174l.028-.007c.064-.01.131-.011.193-.028.064-.016.123-.042.19-.046.018-.001.038-.002.055-.007.19-.057.386-.068.58-.088.075-.007.15-.011.222-.033a.724.724 0 01.221-.035c.171 0 .332-.051.497-.08.027-.004.052-.016.08-.024a.199.199 0 00.092-.062c.023-.03.046-.058.067-.09.088-.132.178-.262.261-.398.112-.183.23-.362.351-.54.08-.115.154-.235.23-.352.285-.44.573-.875.855-1.316.282-.44.57-.878.858-1.314.15-.226.29-.458.438-.684.232-.351.454-.708.685-1.06.117-.18.24-.356.36-.533a.864.864 0 01.07-.088.21.21 0 01.146-.073l.308-.003z" fill="red" fill-rule="evenodd" mask="url(#a)" transform="translate(31)"/></svg>