<svg height="86" width="119" xmlns="http://www.w3.org/2000/svg"><mask id="a" fill="#fff"><path d="M0 0h44.41v61.743H0z" fill-rule="evenodd"/></mask><path d="M22.845 55.217c-6.764 0-12.248-4.684-12.248-10.461 0-5.78 5.484-10.462 12.248-10.462 6.765 0 12.248 4.683 12.248 10.462 0 5.777-5.483 10.46-12.248 10.46m0-48.69c6.765 0 12.248 4.685 12.248 10.462 0 5.778-5.483 10.462-12.248 10.462-6.764 0-12.248-4.684-12.248-10.462 0-5.777 5.484-10.461 12.248-10.461m20.615 36.63a12.705 12.705 0 01-3.813-4.865c-1.157-2.576-2.982-4.833-5.272-6.585a1.024 1.024 0 01-.405-.833v-.004c-.005-.31.13-.622.405-.833 2.29-1.752 4.115-4.01 5.272-6.586a12.697 12.697 0 013.813-4.865 2.504 2.504 0 000-3.926l-1.17-1.026c-1.244-1.095-2.247-2.431-3.002-3.907C36.355 3.984 30.042 0 22.742 0c-5.035 0-9.6 1.896-12.911 4.956a1.064 1.064 0 01-1.477-.02l-1.3-2A1.98 1.98 0 003.99 2.62L.574 5.866A1.991 1.991 0 00.3 8.316c3.95 6.423 5.943 14.464 6.114 22.556C6.243 38.964 4.25 47.005.3 53.428a1.991 1.991 0 00.274 2.45l3.416 3.246a1.98 1.98 0 003.065-.318l1.299-2a1.063 1.063 0 011.477-.02c3.312 3.06 7.876 4.957 12.91 4.957 7.3 0 13.614-3.983 16.547-9.726.755-1.477 1.758-2.813 3.003-3.907l1.169-1.026a2.504 2.504 0 000-3.926" fill="red" fill-rule="evenodd" mask="url(#a)" transform="translate(37 12)"/></svg>