<svg height="82" width="88" xmlns="http://www.w3.org/2000/svg"><mask id="a" fill="#fff"><path d="M0 .218h59.356V47H0z" fill-rule="evenodd"/></mask><mask id="b" fill="#fff"><path d="M.74.163h5.53v2.12H.74z" fill-rule="evenodd"/></mask><g fill="#fff" fill-rule="evenodd"><path d="M51.974 23.086l.132-.17-.78-.611-.132.169.78.612M37.449 30.9c-.07-.062-.136-.125-.204-.187-.146.175-.292.35-.44.524l.197.17.447-.507m12.949 9.163l-.66 1.377c.45-.123.639-.5.66-1.377m-6.46-22.982c-.096-.525-.39-.897-.736-.936.089.623.285.87.737.936m11.802 14.35l-.403.344c.144.125.272.286.439.356.062.026.32-.198.304-.242-.053-.15-.19-.27-.34-.458m-4.347-4.715l.406.803c.098-.15.29-.312.273-.45-.032-.252.088-.643-.337-.693-.085-.01-.194.186-.342.34m-8.683-11.79c-.163-.648-.12-1.374-.704-1.861.164.648.044 1.404.704 1.862m10.524 10.865c.382-.79-.21-2.153-.907-2.11.296.69.583 1.359.907 2.11m3.363 10.644c.269-1.096-.162-3.005-.773-3.374l.773 3.374m-4.063-9.946c.599-.51.042-1.676-.776-2.23-.182.35.196 1.439.776 2.23m-40.49-1.032l.168.02c.287.689-.153 1.502.303 2.275.16-.394.283-.69.404-.987l.196.043.17 1.732h.144l.317-1.068.222.026c.03.21.128.439.079.628-.14.548.114.825.564 1.049.386.193.749.435 1.122.656l-.082.204c-.392-.113-.79-.205-1.172-.345-.538-.198-1.05-.48-1.596-.641-1.582-.471-3.182-.876-4.762-1.353-1.39-.42-2.324-1.55-1.774-3.086.062-.171.1-.351.178-.513.232-.488.478-.968.724-1.464-1.131.999-1.557 2.015-1.494 3.452.033.752.394 1.249 1.086 1.494a15.12 15.12 0 001.61.484c2.01.47 4.022.92 5.886 1.862.939.473 1.89.938 2.877 1.293.78.28 1.63.364 2.442.572A36.994 36.994 0 0027.33 32.9c2.636.11 5.282.03 7.92-.018.596-.012 1.184-.254 1.78-.364.546-.101 1.097-.224 1.649-.236 1.038-.02 2.078.053 3.117.048.974-.004 1.836-.384 2.619-.934.193-.135.308-.38.458-.576-.03-.035-.057-.071-.086-.106l-1.155.147c.104.416-.202.5-.45.584-1.042.352-2.116.465-3.218.46-1.016-.004-2.077-.08-3.04.176-.844.224-1.654.365-2.514.354-.311-.004-.623.084-.935.085-.306 0-.611-.056-.917-.087l-.063-.214c.745.089.865-.47 1.118-.903.252-.431.534-.845.846-1.335.338.62.02 1.052-.124 1.497.42.2.45.203.61-.156.272-.601.52-1.214.788-1.817.065-.148.167-.28.252-.42l.215.06-.158 1.518c.754.033.476-.842.873-1.093l.402.44c.163-.195.384-.368.474-.593.114-.283.134-.607.172-.917.047-.38.072-.763.106-1.144l.177-.024.44 1.287c.426-.058.559-.261.55-.648-.005-.315.108-.632.168-.948l.205.023c.464 1.047.409 2.13.168 3.285.21-.068.37-.175.5-.31.149-.153.27-.331.404-.5l.21.076-.18 1.672.944-.985.177.669c.614-.287.645-.366.373-.847-.235-.071-.732.36-.66-.326.06-.54.122-1.08.208-1.614.027-.161.14-.308.213-.461.123.13.25.257.368.393.109.124.205.259.308.388l.136-.086-.063-1.252.209-.018c.368.8.369 1.66.328 2.54.203-.558.603-1.044.46-1.697a8.943 8.943 0 01-.15-1.18c-.014-.167.035-.341.056-.513l.156-.007c.446.484.636 1.1.657 1.737.02.639-.086 1.284-.143 2.008.423-.16.825-.263 1.183-.451.98-.513 1.939-1.065 2.913-1.588.136-.074.312-.074.469-.107-.061.157-.077.368-.191.464a70.802 70.802 0 01-2.037 1.628c-.144.113-.316.19-.524.314 1.342.495 3.078.122 3.354-.666l-.953-.113-.016-.171c.18-.091.368-.171.543-.274a87.387 87.387 0 001.684-1.015c.406-.253.479-.611.25-1.017-.564-1.003-1.147-1.996-1.704-3.002-.087-.16-.071-.372-.103-.561.189.062.424.072.559.194.323.293.6.638.923.994.144-.675-.25-1.021-.63-1.395a40.425 40.425 0 01-1.491-1.578c-.111-.122-.17-.291-.252-.44l.106-.11c.607.116.975.67 1.486.962l.088-.103c-.906-.932-1.811-1.865-2.766-2.85.937-.238 1.323.5 1.944.907-.04-.218-.08-.436-.106-.586.793.548 1.663 1.075 2.445 1.71.749.607 1.496 1.255 2.085 2.01 1.084 1.39.757 3.32-.644 4.395-.636.487-1.291.948-1.83 1.342a3.3 3.3 0 001.827-.984c.283-.3.544-.63.863-.886 1.122-.906 1.144-3.693.057-4.617a42.995 42.995 0 00-1.966-1.568c-.564-.426-1.194-.771-1.724-1.235-.876-.77-1.875-1.251-3.02-1.111-.951.117-1.897.414-2.803.746-3.003 1.1-6.065 2.028-9.25 2.289-2.341.192-4.713.006-7.07-.02-.14-.001-.28-.072-.477-.126.115-.076.14-.107.168-.11 2.125-.113 4.249-.264 6.375-.326 1.383-.041 2.733-.195 4.036-.661 1.476-.53 2.945-1.077 4.416-1.617l2.116-.78-.013-.132c-.145-.007-.304-.06-.43-.014-.634.229-1.275.45-1.882.742-.535.257-1.014.147-1.375.02-.031-.332-.017-.58-.084-.802-.128-.426-.315-.833-.447-1.258-.048-.153-.008-.335-.008-.503l.196-.034.954 1.962c.116-.22.22-.422.327-.623-.425-.907-.874-1.811-.896-2.831.067-.027.133-.053.2-.078l.859 1.838.137-.038c.005-.098.039-.205.014-.296a147.28 147.28 0 00-.84-3.042c-.04-.135-.187-.24-.285-.36-.113.094-.224.189-.34.278-.035.028-.083.04-.202.095-.13-.307-.26-.603-.38-.901-.132-.323-.25-.662-.742-.508l.097.81-.1.032-.554-.756c-.116.169-.193.28-.235.344l-1.331-.33c.495-.587 1.616-.91 2.469-.88.998.035 1.738.66 2.602.994.092.036.176.16.212.26.144.402.31.802.39 1.217a7.43 7.43 0 001.034 2.652c.34-.452.626-.265.85.046.28.383.53.792.766 1.205.15.264.039.43-.26.495-.16.034-.31.107-.464.163l.05.112 1.838-.426c-.031-.541-.378-.75-.78-.96-.318-.168-.678-.4-.834-.698-.182-.35-.384-.588-.735-.741-.434-.19-.73-.496-.772-1.003-.025-.295-.086-.587-.137-.88-.182-1.04-.713-1.845-1.656-2.333-.965-.5-1.924-.735-3.08-.458-1.16.278-2.004 1.008-3.025 1.509 1.145.115 2.23.346 3.26.844-2.232.048-4.48-.522-6.701.28.086-.203.188-.351.327-.416.387-.18.794-.32 1.187-.485.423-.18.867-.327 1.256-.564.647-.393 1.252-.856 1.887-1.272.639-.42.727-.482.283-1.116-.943-1.348-1.973-2.636-2.974-3.944-.061-.081-.177-.12-.316-.21-.07.51-.097.97-.2 1.415-.102.448-.277.879-.42 1.318l-.195-.037c0-.184-.005-.37 0-.554.037-.858.094-1.715.109-2.573.016-1.011-.327-1.911-.944-2.706-.367-.476-.505-.445-.806.063-.343.58-.637 1.245-1.128 1.667-.881.755-1.881 1.378-2.858 2.014-.701.457-1.49.785-2.161 1.278-1.155.849-2.091 2.64-2.091 3.86.274-.517.499-1.061.769-1.58.265-.508.504-1.06.888-1.467a4.504 4.504 0 011.45-.997c.489-.213.958-.625 1.637-.527-.162.252-.27.416-.373.58-.101.159-.2.318-.304.486-.478-.433-1.357.014-1.57.835.235-.273.398-.463.56-.654l.086.035-.184.797.14.086.67-.664c-.055.41.045.823-.584.95-.495.1-.928.514-1.388.788l.083.149.674-.126c.244-.044.487-.104.733-.122.13-.01.333.014.38.095.062.1.029.29-.025.417-.045.106-.17.186-.272.257-.46.32-.674.897-.474 1.498l.456-1.003.144.028.086.74.147.059c.433-.658.294-1.613 1.032-2.26-.038.29-.047.466-.086.635-.09.386-.204.766-.283 1.154-.021.104.05.227.078.343.106-.077.26-.131.308-.235.133-.291.222-.602.325-.9.79.219.876.165 1.109-.59.116-.372.245-.74.368-1.111l.184.057c-.128.69-.265 1.379-.377 2.073-.027.168.033.35.053.527.122-.146.268-.277.358-.44.094-.17.128-.372.195-.558.1-.282.206-.563.31-.844l.157.027c0 .152.018.306-.003.454-.048.326-.13.648-.173.974-.031.233-.28.536.1.659.064.02.289-.348.384-.562.134-.302.215-.626.36-1.07.3 1.276-.108 1.985-1.165 2.225a2.559 2.559 0 01-.686.073c-1.952-.085-3.894-.026-5.814.384-.265.057-.413-.074-.308-.323.117-.281.247-.623.479-.777.724-.482 1.498-.886 2.252-1.324.18-.103.354-.217.53-.327-1.684.022-3.985 1.957-3.995 3.25 1.656-.288 3.305-.715 4.992-.185a.887.887 0 01-.436.199c-1.11.166-2.22.336-3.331.48-.766.1-1.482.305-2.118.762-.817.587-1.647 1.155-2.463 1.742-.375.27-.73.569-1.098.847-.251.189-.241.337.004.542.455.38.918.76 1.316 1.197.817.897 1.75 1.599 2.91 1.984.169.055.319.16.478.242l-.056.155c-.178-.03-.361-.044-.535-.09-1.342-.351-2.398-1.152-3.313-2.157-.876-.962-1.915-1.6-3.232-1.727-.28-.027-.57-.011-.835-.085-1.147-.317-2.188.02-3.204.496-.84.39-1.151 1.189-1.537 1.976.534.135.653-.114.673-.506.028-.528.874-1.185 1.472-1.11l-.493.699a2.6 2.6 0 00.054.052l1.465-.87.169.21c-.361.297-.721.59-1.082.886.04.048.083.095.125.142l1.265-.877.104.13-.77.834.074.112c.888-.135 1.319-1.246 2.453-1.2l-1.678 1.329.132.206c.906-.403 1.448-1.513 2.593-1.473-.3.322-.653.576-.962.877-.583.567-1.252.762-2.066.735-.627-.021-1.297.063-1.884.277-.896.325-1.741.792-2.595 1.224-.254.129-.465.343-.695.516l.18.074c.017.167.087.35.044.499-.11.362-.314.698-.4 1.063-.064.277-.005.582-.001.874.05 0 .102.003.153.004l.436-.566.152.05c-.05.708-.1 1.416-.148 2.125l.158.019c.2-.922-.138-1.99.717-2.854l-.124 2.473.203.023c.115-.537.23-1.073.347-1.608.147.073.204.129.204.184-.005.707.003 1.416-.036 2.12-.024.412.006.774.338 1.075l.358-1.738.196.024.147 1.157c.042 0 .083.003.125.005l.434-.945M4.488 36.315l-.01-.008c.357.467.736.927.518 1.66-.208-.154-.37-.281-.538-.401-.522-.368-1.014-.797-1.581-1.082-.631-.316-1.577-.112-1.867.346-.408.643-.635 1.49-.02 2.204.27.313.536.63.78.962.928 1.264 2.203 1.94 3.708 2.255.449.094.953.136 1.319.375 1.663 1.088 3.51 1.688 5.423 2.078 1.566.32 3.167.467 4.739.763 3.453.65 6.88.742 10.28-.306.125-.04.257-.054.385-.088 1.946-.505 3.91-.944 5.829-1.536 1.569-.485 3.146-.968 4.574-1.855 2.293-1.426 4.83-2.09 7.527-2.131.186-.003.372.032.558.05l.024.16-6.632 2.065c1.75.28 3.465.535 5.189.679 1.39.116 2.8.18 4.192.112 1.398-.068 2.786-.322 4.176-.51 1.402-.191 2.556-.915 3.526-1.875 1.059-1.047 1.65-2.376 1.846-3.861.038-.291.006-.592.006-.888-.187.243-.335.492-.331.739.01.764-.371 1.39-.64 2.06-.656 1.654-1.916 2.6-3.574 3.083-.507.148-1.018.285-1.535.388-.951.188-1.906.465-2.864.494-1.631.05-3.268-.045-4.901-.112-.653-.027-1.304-.141-1.955-.215a11.136 11.136 0 00-.04-.176l.486-.608.115.079-.034.399.105.082c.316-.28.633-.558 1.047-.923l-.071.853.917-1.155.19.06-.051.96c.715-.223.674-1.118 1.304-1.461l.26.828c.947-.584.53-1.726 1.13-2.538.08.363.12.618.193.863.037.125.135.233.205.348.079-.125.199-.24.229-.377.069-.303.057-.63.15-.924.053-.17.243-.297.372-.444.09.18.259.36.253.536-.017.51-.107 1.017-.16 1.526-.023.212-.027.425-.038.637l.204.062c.195-.4.48-.778.57-1.2.218-1.026.245-2.058-.165-3.068-.131-.321-.148-.688-.217-1.034l.18-.053c.109.157.222.31.323.47.539.854.559 1.81.565 2.774 0 .139.134.278.208.418.085-.134.248-.27.246-.403-.016-.952-.066-1.903-.103-2.854-.005-.13-.001-.26-.001-.473.127.115.195.15.219.202.602 1.382.8 2.779.196 4.222-.223.534-.386 1.094-.576 1.642l.18.102c.144-.177.333-.334.423-.535.274-.617.509-1.252.765-1.877.06-.148.146-.285.219-.427.045.014.09.028.135.04v1.81l.12.007.642-1.371c.415.613.119 1.153.143 1.709.3-.358.563-.727.748-1.132.478-1.05.802-2.177.527-3.303-.186-.767-.143-1.431.226-2.154l.497 2.245c.012-.016.063-.052.064-.09.029-1.505-.285-2.918-1.165-4.168a2.313 2.313 0 00-.477-.496 13.494 13.494 0 00-1.111-.784c-.145-.09-.344-.09-.518-.131 1.133 1.536 1.324 1.91 1.154 2.52l-1.415-1.823-.172.109c.154.29.302.583.46.87.167.302.373.588.508.904.125.296.18.62.265.933l-.176.066c-.218-.34-.426-.687-.655-1.02-.558-.803-.891-1.786-1.822-2.305-.05-.028-.033-.356.046-.41.807-.554 1.739-.768 2.688-.935.587-.104 1.008.219 1.46.489.154.093.33.152.49.235 1.062.542 1.976 1.223 2.213 2.489.138.738.237 1.484.32 2.009a5.53 5.53 0 00-.07-2.405c-.083-.321-.264-.671-.507-.888-.996-.885-2.028-1.728-3.06-2.57-.1-.081-.347-.117-.438-.051-.798.567-1.732.698-2.648.91a1.223 1.223 0 00-.64.393c-.455.567-1.03.86-1.741.916-.675.053-1.35.098-2.023.168-.146.016-.331.088-.418.198-.836 1.06-1.967 1.649-3.26 1.78-1.34.135-2.7.058-4.05.095-.388.01-.78.078-1.163.142-.744.125-1.482.367-2.226.383a119.91 119.91 0 01-6.29-.031c-1.331-.043-2.663-.192-3.985-.367-1.111-.148-2.2-.465-3.311-.598a23.83 23.83 0 01-6.985-1.941c-2.614-1.178-5.3-2.015-8.088-2.582-.288-.058-.733-.01-.91.175-.597.625-1.23 1.27-1.626 2.025-.976 1.856-.261 3.539 1.72 4.206 1.093.368 2.218.639 3.329.956.155.044.307.095.46.143-.884.065-1.742.094-2.596.053-.486-.023-.723.156-.86.602-.098.325-.271.628-.412.94l-.16-.066c-.218-.605.365-.98.505-1.505-.068-.044-.131-.101-.204-.128-.688-.252-1.352-.533-1.801-1.161-.055-.077-.2-.107-.307-.124-.611-.101-.658.415-.84.782-.11.22-.057.36.176.467.433.198.857.42 1.285.632m42.226 7.42c-1.565-.22-3.061-.456-4.565-.636-2.107-.253-4.18-.365-6.21.59-1.288.605-2.701.956-4.076 1.36-1.708.5-3.41 1.096-5.16 1.366-2.497.386-5.021.855-7.573.395-2.79-.502-5.623-.81-8.332-1.687-1.471-.475-2.896-1.094-4.348-1.631-.584-.215-1.174-.434-1.78-.562-.815-.174-1.43-.647-2.041-1.157-.428-.357-.921-.651-1.301-1.052C.457 39.8-.018 38.685 0 37.408c.016-1.03.4-1.503 1.387-1.782.373-.105.617-.23.755-.65.123-.374.469-.67.676-1.026.096-.166.183-.418.128-.581-.401-1.185-.101-2.277.509-3.267.473-.766 1.118-1.423 1.664-2.145.095-.126.174-.381.112-.49-.57-.992-.584-2.05-.21-3.058.268-.722.723-1.406 1.22-2.003.503-.602 1.153-1.084 1.75-1.603a4.66 4.66 0 001.349-1.917c.716-1.903 2.259-2.761 4.158-2.966 1.034-.11 2.1.016 3.145.106.498.043.889-.043 1.284-.342.907-.69 1.85-1.328 2.758-2.015.582-.44.955-1.026 1.132-1.751.216-.882.465-1.756.734-2.622.626-2.012 1.814-3.553 3.73-4.523 1.205-.61 2.427-1.221 3.336-2.273.537-.622 1.037-1.278 1.586-1.89.475-.527.879-.504 1.408-.042a4.008 4.008 0 011.188 1.792c.284.865.784 1.563 1.425 2.22a16.152 16.152 0 012.928 4.095c.25.504.56.666 1.093.557.917-.188 1.8-.05 2.66.319 1.426.61 2.327 1.649 2.626 3.18.118.607.307 1.13.939 1.408.206.09.33.356.502.532.274.282.523.61.845.82.525.346.883.795 1.068 1.378.16.502.464.795.984.929.939.243 1.738.728 2.492 1.36.687.577 1.51.997 2.288 1.463.678.405 1.175.95 1.466 1.685.115.292.226.586.363.868.68 1.392.393 2.725-.235 4.038-.1.208-.224.41-.284.63-.094.348-.001.599.349.82.695.44 1.43.87 1.988 1.458.782.824 1.252 1.859 1.285 3.032.01.368-.002.714.317.989.113.097.179.282.21.438.287 1.377.428 2.785-.155 4.09-.348.776-.94 1.468-1.514 2.112-1.694 1.902-4.085 2.159-6.39 2.534-1.441.234-2.914.289-4.335.42" mask="url(#a)" transform="translate(14 25.837)"/><path d="M26.63 17.986c-1.446.203-1.92 1.39-2.69 2.406 1.475-.33 2.604-1.35 2.69-2.406m-7.892 3.188c1.435.677 2.676.107 3.935-.239-1.312-.334-2.623-.672-3.935.24m5.744-.335c.084.05.133.064.164.098.105.12.205.246.306.37-.146.042-.293.116-.44.118-.298.006-.623-.15-.81.263-.025.061-.36.071-.462-.009-.318-.248-.626-.133-.944-.057-.625.148-1.245.387-1.876.42a4.978 4.978 0 01-1.826-.269c-.693-.24-.716-.86-.092-1.26 1.036-.663 2.17-.699 3.338-.465.19.04.387.061.44.07.248-.28.425-.643.604-.644.268 0 .538.25.839.41.323-.427.669-.865.993-1.318.433-.606 1.062-.87 1.75-1.025.506-.116.759.132.67.656-.111.661-.435 1.22-.98 1.606-.427.305-.902.541-1.354.811-.093.056-.178.125-.32.225m31.138-2.019c1.21.55 2.454.491 2.8-.179-.937-.49-1.81-.122-2.8.18m-1.204-.333c-.683-.83-1.317-1.747-2.638-1.903.58 1.2 1.665 1.467 2.638 1.903m1.305.872v.556c-.173-.094-.309-.156-.432-.239-.079-.053-.155-.21-.204-.198-.694.161-.807-.628-1.322-.79a5.765 5.765 0 01-1.499-.745c-.34-.234-.632-.582-.857-.935-.345-.542-.037-1.03.61-.916.517.092 1.014.354 1.492.594.241.122.428.358.628.554.197.194.38.405.563.603.574-.358.69-.3.96.508.335-.089.681-.167 1.017-.273.668-.21 1.304-.116 1.922.172.444.206.5.457.13.786-.515.457-1.152.621-1.83.554-.386-.04-.766-.148-1.178-.23m-21.383 3.91l.123.136 1.227-.889-.136-.178-1.214.931zm-1.605.95c-.706-.42-1.405-.873-2.234-.625l-.043.23zm1.769-.216c.139.44-.28.892-.78.797-.05.185-.098.371-.14.532h-.583c-.018.04-.036.08-.055.118l-.586-.749c-.554-.108-1.234-.234-1.911-.372-.336-.069-.672-.184-.658-.608.015-.438.337-.629.724-.683.843-.12 1.589.183 2.309.577.63.343.587.306 1.01-.265.336-.45.78-.829 1.218-1.19.158-.132.435-.17.654-.162.169.007.417.12.474.251.056.132-.024.411-.141.516-.478.426-.995.81-1.535 1.238z"/><path d="M5.72.776L5.636.594l-1.205.62.078.153 1.21-.59m-2.57.568C2.765.781 1.897.535 1.274.79c.698.207 1.286.382 1.875.555m-.177.726c-.226-.146-.44-.315-.68-.432-.397-.195-.83-.327-1.212-.549C.914.994.7.64.746.578c.138-.188.385-.39.603-.406.778-.057 1.527.138 2.127.646.322.273.485.184.79-.002C4.71.547 5.21.36 5.707.203c.156-.05.495.067.54.186.064.168-.002.481-.132.606-.243.232-.57.376-.865.552-.343.208-.678.438-1.041.606-.215.1-.476.124-.717.13-.177.005-.357-.073-.535-.115l.016-.097" mask="url(#b)" transform="translate(35 9.837)"/><path d="M63.09 25.898c-.95.034-1.368.678-1.946 1.323.865-.219 1.546-.473 1.947-1.323m-5.501 1.49c.915.478 1.717.245 2.514.118-.767-.364-1.538-.65-2.514-.118m3.915.151l.108.403c-1.02.043-2.004.114-2.99.11-.365-.002-.74-.15-1.088-.292-.153-.062-.351-.28-.34-.41.013-.169.185-.393.346-.465.513-.228 1.044-.403 1.622-.176.274.108.572.155.855.228.398-.49.422-.493 1.034-.02.183-.228.336-.53.582-.699a4.994 4.994 0 011.255-.63c.406-.132.648.137.444.511-.208.383-.546.716-.888.998-.245.202-.59.284-.94.442m5.465-9.837c.678.062 1.059-.225 1.062-.801l-1.061.801m-2.4.283c.5.358.967.198 1.559.093-.574-.244-1.023-.436-1.56-.093m2.158-.442c.405-.278.722-.54 1.082-.722.156-.079.395.007.598.018-.05.199-.092.399-.152.595a.287.287 0 01-.123.152c-.477.277-.86.794-1.416.84-.714.058-1.443-.035-2.161-.11-.14-.013-.254-.25-.38-.384.126-.116.236-.303.38-.334.31-.066.64-.073.96-.066.277.005.552.227.828-.061.058-.06.294.052.384.072M34.31 42.356l-.127-.202-.653.478.1.144.68-.42m6.12-3.007c-.154.278-.227.501-.375.653-.662.688-1.346 1.356-2.055 2.063-.11-.45-.11-.45 1.416-2.28-.356.218-.716.43-1.067.657-.351.226-.693.466-1.04.7l-.097-.099.556-.769c-.63-.309-1.881.261-2.293 1.165l1.333-.593.087.136c-.302.23-.634.43-.896.698-.218.225-.745.238-.625.81.397-.21.74-.394 1.082-.576l.092.092c-.1.12-.188.254-.305.355-.39.331-.8.638-1.176.983-.111.102-.132.303-.195.458.16-.016.338.01.473-.056.334-.164.647-.37 1.057-.474l-.465.596.052.108c.216-.047.43-.094.648-.14l.093.098-.93 1.094.114.13.977-.627.068.052-.505 1.02c-.858-.164-1.68-.662-2.436-1.278-.433-.354-.827-.755-1.248-1.124-.292-.257-.273-.52-.011-.757.354-.318.714-.637 1.109-.9a39.027 39.027 0 012.344-1.474c.394-.226.834-.422 1.277-.498.794-.138 1.604-.179 2.409-.252.138-.013.279.014.533.03m6.804-2.308l.326-.833c.042.009.085.018.127.025l.19.473c.424-.398.294-.987.602-1.408.36.253.48.04.505-.296.042-.537.071-1.076.113-1.732l-.418.263-.199-1.52-.128.004c-.055.243-.109.487-.165.73a1.048 1.048 0 00-.057-.002V31.4c.24.127.451.174.553.306.35.454.66.937.985 1.408.101.148.212.289.297.445.267.483.532.969.784 1.462.17.332-.012.57-.266.754-.454.33-.887.716-1.39.94-.532.235-1.136.308-1.709.453l-.15-.126m8.812 15.787l-1.685-4.4c1.073.187 2.166 3.104 1.685 4.4m.689-1.527l-2.117-4.367c1.257.539 2.573 3.347 2.117 4.367m-3.992-3.572c1.312.77 2.678 4.66 2.07 5.958-.108-.404-.218-.687-.253-.978-.193-1.635-.76-3.13-1.633-4.518-.065-.103-.092-.229-.184-.463m3.044-1.198c1.08.318 2.167 2.325 1.761 3.246-.316-.208-1.817-2.976-1.76-3.246m-24.056-1.925l-3.12 3.688c-.012-1.048 1.994-3.47 3.12-3.688m4.751 9.345c.032 1.018-.69 3.155-1.165 3.502-.362-.644.398-2.988 1.165-3.502M50.3 51.243c-.397-1.183-.781-2.321-1.161-3.448.967-.058 1.764 2.154 1.162 3.448M28.083 45.61l-2.159 2.942c-.367-.894.903-2.66 2.159-2.943m16.179-15.462l.387.441.296-1.002c.35.43.267 1.744-.196 2.504v-1.278c-.501.558-.207 1.4-1.075 1.666l.588-2.33M28.053 46.845l-1.878 3.839c-.051-.206-.205-.464-.148-.662.335-1.171.86-2.243 1.814-3.054.055-.046.126-.074.212-.123m19.018 1.203c.98.496 1.472 2.334.9 3.458a2748.37 2748.37 0 00-.9-3.458m-14.085-2.482c-.395.97-1.085 1.75-1.683 2.621-.453-.59.72-2.436 1.683-2.62m.682 8.679c.024.361.073.662.057.96a12.1 12.1 0 01-.16 1.367c-.019.11-.171.272-.267.275-.109.003-.275-.121-.325-.23-.249-.54.121-1.875.695-2.372m8.488-14.103l1.24-1.598c.298.538-.734 2.366-1.589 2.764.141-.464.25-.819.357-1.176z"/><path d="M42.164 40.134l-1.295 1.654c-.238-.76.843-2.463 1.66-2.606l-.373.962zm-14.194 8.86l-1.172 3.081c-.438-.629.266-2.625 1.023-3.141l.15.06m11.376-1.272c.182.682-.4 2.088-.961 2.32-.293-.667.346-2.207.96-2.32m-.945-.245c-.23 1.17-.757 2.05-1.403 2.921-.182-.594.724-2.594 1.403-2.92m12.741 2.676l-.937-2.478c.916.23 1.39 1.524.937 2.478m-9.654-10.687c-.093.126-.179.259-.28.378-.295.343-.567.664-.727 1.13-.148.43-.619.752-1.015 1.199-.085-.692 1.304-2.542 2.022-2.707m-4.982 18.186c-.3-.555.189-1.843.89-2.425.182.404-.441 2.146-.89 2.425m-.976-4.496c-.154.808-.352 1.517-.69 2.184-.034.064-.177.121-.248.102s-.148-.129-.167-.212c-.12-.493.514-1.762 1.104-2.074m-10.826-4.323c-.232-.722.507-1.995 1.241-2.207.054.329-.762 1.8-1.24 2.207m7.841-.987c-.225-.735.634-1.842 1.56-1.97-.458.78-.971 1.363-1.56 1.97m11.004-17.185c.283.718-.25 2.487-.876 2.832.19-1.014.535-1.868.876-2.832M25.803 46.065l-1.65 2.168c-.05-.038-.102-.075-.154-.113.149-1.013.937-1.562 1.632-2.178l.172.123m10.049 3.927c.26-1.1 1.182-1.813 1.594-2.825l.187.107-1.554 2.841a46.64 46.64 0 01-.227-.123m-7.611.151l-.674 2.06c-.474-.615-.106-1.773.674-2.06m20.697-.171l-.924-1.892c.568-.038.714.358.864.663.172.35.482.73.06 1.229m4.941-6.904c.176.25.346.43.438.642.11.254.17.535.216.81.015.086-.068.208-.14.281-.031.033-.161.008-.22-.03-.298-.203-.528-1.235-.294-1.703m-10.591-2.497c-.032-.679.553-1.788 1.003-1.949.101.466-.499 1.664-1.003 1.95m-.746-8.982c.13.752-.375 2.036-.937 2.309.155-.891.563-1.591.937-2.31M32.347 56.57c-.367-.439-.224-1.335.269-1.866.229.4.085 1.473-.27 1.865m-7.109-5.829c-.403-.499-.092-1.476.605-1.89-.15.691-.25 1.304-.605 1.89m20.748.944c-.269-.057-.487-.068-.675-.151a.784.784 0 01-.37-.34c-.043-.091.047-.35.121-.368.138-.038.31.036.463.081.088.027.162.1.251.13.431.14.478.302.21.647m12.87 3.373c-.074-.506-.147-.945-.196-1.387-.008-.064.095-.186.163-.2.076-.014.191.044.254.107.322.319.254 1.078-.22 1.48m4.704-3.052c-.284-.635-.517-1.152-.78-1.742.706.13 1.123 1.048.78 1.742m-3.866 2.727c-.125-.354-.268-.655-.323-.972-.02-.108.181-.256.282-.385.114.094.292.168.331.287.115.352.207.73-.29 1.07m-24.006-6.127c.098-.727.648-1.12 1.142-1.56-.147.691-.56 1.188-1.142 1.56m22.272-.884l-.956-1.521c.691.045 1.191.836.956 1.522M45.67 28.664c.42.439.377 1.455 0 1.98zM31.466 44.068l-1.712 1.362c.106-.57 1.092-1.43 1.62-1.487l.092.125m27.537 3.3c-.246-.334-.5-.663-.733-1.007-.042-.061-.003-.178-.001-.268.12.006.276-.033.355.028.384.294.542.696.539 1.158l-.16.089m-25.543.136c.06-.474.308-.831.724-1.068.076-.044.221-.023.302.023.04.024.046.21 0 .26-.285.316-.589.614-.887.919l-.139-.134m2.614-.529l-1.159 1.05c-.036-.543.502-1.126 1.16-1.05m3.072 9.443c.21.4-.07 1.264-.36 1.356-.07.022-.193.02-.225-.021-.051-.066-.091-.2-.057-.263.19-.347.404-.682.641-1.072m-1.744 1.45c.017-.569.371-.937.668-1.372.258.448-.156 1.285-.668 1.372m-6.167-11.181l-.726 1.25c-.307-.525.047-1.208.726-1.25m18.583-5.124c-.02-.13-.057-.343-.092-.555.264-.027.53-.067.792-.068.04 0 .123.194.106.282-.017.083-.129.175-.219.21-.149.058-.314.073-.587.131M34.453 56.128c0 .268.022.539-.014.803-.01.083-.194.213-.273.196-.09-.018-.23-.192-.212-.27.06-.266.177-.52.272-.778l.227.049M48.58 43.762c.182.344.71-.156.68.397-.006.104-.182.199-.279.298-.132-.302-.649.209-.658-.303-.002-.12.152-.24.257-.392m-2.617 4.056c.65.298.879.737.762 1.424l-.762-1.424m.291-17.871V28.2c.319.446.309 1.16 0 1.748M39.608 49.31c.09-.43.178-.859.282-1.365.345.386.206 1.114-.282 1.365m-4.399-2.648l-.81 1.137c-.064-.681.206-1.113.81-1.137M58.3 48.914c-.09-.233-.2-.461-.257-.702-.021-.09.084-.21.13-.317.1.066.274.122.285.2.035.26.014.529.014.794a8.884 8.884 0 00-.172.025m-3.13 4.826l-.093 1.252c-.42-.455-.393-.897.094-1.253m6.452-1.514c-.059-.205-.155-.41-.158-.616-.002-.105.166-.212.257-.319.102.136.291.277.285.408-.009.182-.163.357-.255.536zm-8.726-1.447c.052-.02.069-.034.082-.03.367.111.45.4.417.73-.006.057-.237.164-.288.131-.328-.213-.32-.52-.211-.83m-21.414-4.828c.078-.528.372-.802.893-.811l-.786.911a9.786 9.786 0 00-.107-.1m17.857 5.784c.147.427.025.797-.263 1.13a8.646 8.646 0 00-.171-.032c.074-.385.146-.77.219-1.157l.216.06M22.76 48.78l.633-1.346.2.09-.612 1.352-.221-.096m30.572-3.731c-.351-.285-.394-.582-.146-.99.327.306.374.626.146.99m-7.85-8.139c.2-.173.345-.312.51-.423.016-.01.223.19.21.214-.118.202-.267.385-.407.574l-.313-.366M28.789 48.95l.654-1.12.207.12-.667 1.112-.194-.113m-.338-1.461l-.783 1.242c-.08-.467.242-.982.783-1.242m20.933 3.743c-.202 0-.231.003-.232 0-.063-.245-.122-.49-.182-.734.086-.007.243-.034.248-.018.064.238.11.481.166.752m-8.919-2.046l.087-1.01c.416.404.406.611.064 1.028l-.151-.018m-11.273-3.349l-.807.912-.139-.116.75-.965.196.169m22.428 1.937c.271.237.4.527.334.89l-.155.061-.369-.865.19-.086m-13.895-2.598c-.227.22-.452.44-.678.662a14.275 14.275 0 00-.176-.172l.666-.676.188.186m5.431-1.692l-.43.367c-.06-.097-.193-.218-.17-.288.042-.13.163-.248.28-.333.022-.017.167.131.32.254M23.685 47.44l.812-.867c.042.04.086.08.13.118l-.805.873-.136-.124m13.373-5.385c.11-.181.215-.367.34-.537.023-.03.169-.02.202.02.036.042.036.166 0 .208-.124.143-.271.266-.408.396-.045-.028-.09-.058-.134-.087m4.259 27.931c.49-.17.808-1.127.574-1.35-.05-.048-.338.03-.352.088-.095.383-.143.776-.222 1.262m-10.335.774v-1.059c.04-.006.08-.01.121-.017l.382.697.595-.347c.215.09.508.21.8.33l.375-1.038c.124.404.213.7.302.996l.084.006.182-1.304c.071 0 .142-.003.213-.004.104.478.21.955.33 1.514l.468-.293c.15.09.293.173.435.257.067-.16.171-.315.194-.48.127-.916.223-1.836.358-2.75.048-.326.175-.639.266-.959l.203.03c0 .26.022.524-.005.783-.074.721-.184 1.44-.245 2.164-.014.157.111.327.172.491.166-.102.358-.177.49-.31.116-.12.167-.305.246-.46.048.003.095.008.142.013l.077 1.443.14.032c.13-.277.26-.552.452-.965l.166 1.106.181.021c.332-.475-.013-1.1.335-1.639l.423 1.562.154-.032.261-1.046.562.354c.046-.215.07-.438.144-.64.065-.177.2-.327.286-.496a.914.914 0 00.111-.344c.017-.235.005-.472.005-.708l.14-.022c.093.23.186.458.281.687h.1l.105-2.136.208-.026.466 1.616c.544-.328.108-.889.372-1.348.581.794.727 1.666.692 2.568.368.112.482-.047.495-.328.024-.54.04-1.082.065-1.623.007-.136.038-.272.058-.408l.143-.016c.16.721.316 1.442.491 2.24.54-.343.244-.974.67-1.404.074.335.12.612.202.877.033.106.147.256.23.26.093.003.221-.119.28-.218.103-.172.165-.369.265-.603.424.745.167 1.302-.535 1.406-.355.054-.72.153-1.037.316-1.532.783-3.192 1.214-4.854 1.478-1.55.247-3.16.194-4.74.154-1.18-.029-2.357-.247-3.502-.378m-14.122-5.732l.206-.045c0-.356.1-.743-.215-1.007l-.184.048c.064.335.13.67.193 1.004m5.228 3.11l.065-.766c.474.242.054 1.024.781 1.1.011-1.064-.34-2.142.207-3.13l.156-.017c.042.338.094.675.122 1.015.055.69.081 1.382.15 2.072.044.44-.164.628-.54.498a13.052 13.052 0 01-1.853-.792c-.525-.28-.985-.592-1.653-.499-.368.051-.809-.155-1.166-.346-1.23-.657-2.314-1.5-3.119-2.668-.313-.454-.33-1.199.02-1.727.31-.47.787-.374 1.21-.257.34.094.67.268.96.471.572.401 1.112.845 1.671 1.275-.635.338-.839 1.163-.468 1.856.168-.515.337-1.033.507-1.549l.184.038.05.855.13.043.434-1.222.125.025-.08 1.22c.063.018.124.04.187.06l.427-1.282c.298.657-.052 1.367.345 1.975.177-.74-.007-1.549.668-2.29.022.301.04.468.043.635.015.957.015 1.914.048 2.871.007.202.132.401.202.601l.187-.066m2.913-11.968l-1.992-.511c-.226-.573-.58.064-.907.15-.214-.572-.408-.614-.823-.163-.141.154-.228.359-.34.54a14.654 14.654 0 00-.263-.168c.056-.26.114-.517.199-.9-.443.552-.971.929-.99 1.784l.656-.844c.088.945-.525 1.723-.242 2.658l.845-1.23c.052.026.106.05.159.075-.016.674-.8 1.45.236 2.02l.384-.626c.064.16.124.242.126.325.01.456.144.718.687.609.27-.054.48.383.414.598-.324.07-.586.128-.85.179-.042.008-.093-.017-.14-.028-.395-.086-.788-.234-1.185-.246-.793-.027-1.435-.433-2.074-.796-.463-.263-.695-.745-.682-1.342.032-1.54.527-2.811 1.924-3.605.177-.102.417-.221.593-.18 1.265.292 2.525.61 3.779.949.329.089.575.307.486.752m6.978 6.189c-.39-1.218.267-3.008 1.263-3.565.12-.068.298-.032.45-.043-.008.122.021.262-.029.363-.497 1.001-1.006 1.995-1.513 2.991-.036.07-.087.13-.17.254m17.64 1.62l-1.694-3.686c.174.055.33.058.417.136.97.863 1.333 1.996 1.41 3.25.002.055-.05.114-.133.3M24.22 66.2c.15.742.276 1.361.398 1.98.039.193.115.395.086.58a.616.616 0 01-.28.407c-.092.046-.328-.046-.406-.149-.336-.439-.255-2.223.203-2.819m39.748-9.136c1.106.561 2.572 2.825 2.28 3.726l-2.28-3.726m-1.524 3.634l-1.912-2.81.108-.134c.153.051.346.061.451.162.742.71 1.28 1.544 1.484 2.567.012.058-.012.122-.018.184l-.113.031m-11.467-.869c.903.11 1.844 1.647 1.731 2.877l-1.73-2.877M25.232 62.83l-.917 3.185c-.455-.523-.203-.887-.034-1.261.06-.134.124-.292.107-.43-.055-.482.23-1.186.658-1.543l.186.049m10.73-3.35l-.968 2.11c-.428-.432-.324-.798-.187-1.145.19-.486.47-.903.949-1.12l.206.155m28.522.124c-.28-.377-.51-.68-.735-.989-.233-.318-.467-.634-.68-.963-.053-.079-.078-.248-.03-.3.054-.06.215-.079.305-.047.556.197 1.27 1.545 1.14 2.3m-1.153.159l-1.806-2.288c.82-.071 1.943 1.333 1.806 2.289M52.57 65.583l-.603-2.5c.823.32 1.203 1.784.79 2.457l-.188.043m-5.437-5.288c.788.152 1.38 1.74 1.006 2.528-.36-.906-.684-1.716-1.006-2.528"/><path d="M22.445 64.638v2.446c-.596-.46-.589-1.812 0-2.446m2.83 2.63c.353.57.385 1.22.396 1.867.001.073-.169.224-.209.208-.123-.047-.303-.149-.313-.245-.06-.6-.079-1.206-.11-1.809zm10.982-6c-.28-.49-.257-1.063.084-1.415.103-.106.315-.156.467-.139.08.01.187.216.194.34.023.4-.341.975-.745 1.214m18.185.042l-1.466-1.604c.472-.214.73.06.98.236.514.363.66.754.486 1.367M30.241 60.09c-.102-.915.541-1.84 1.353-1.986-.29.783-.806 1.314-1.353 1.987m19.436-.07c.656-.128.934.191 1.165.514.217.302.433.643.2 1.173l-1.365-1.687m3.655 3.733c.771.346.876 1.555.189 2.268a1732.5 1732.5 0 00-.189-2.268m-6.302-1.471c-.287-.626-.546-1.179-.786-1.739-.025-.057.044-.198.106-.236.068-.039.198-.03.271.01.36.195.683 1.478.408 1.965m4.338 1.802c.631.603.697 2.103.137 2.756l-.137-2.756m-1.127 3.782c.153-.666.286-1.24.42-1.816l.214-.024c.073.286.217.575.206.86-.02.466-.33.816-.84.98M34.783 69.74c-.338-.45-.22-1.673.186-2.21.251.338.144 1.787-.186 2.21m16.155-6.077c-.406-.608-.763-1.175-.884-1.905.63.104 1.158 1.26.884 1.905m-18.95-3.944l-.909 1.732c-.363-.587.17-1.734.765-1.83.048.034.096.066.144.098m22.649 4.056c.519.43.556 1.203.083 1.744-.27-.36-.32-1.42-.083-1.744m13.252-.815c.34.429.323 1.24.026 1.528-.068.068-.221.118-.298.086-.08-.032-.171-.193-.151-.268.117-.434.266-.86.423-1.346m-44.423 1.532c-.335-.525-.037-1.469.566-1.853.039.7-.212 1.254-.566 1.853m-1.169-2.409c-.163.66-.288 1.195-.434 1.724-.017.065-.136.133-.214.14-.054.006-.143-.082-.171-.146-.106-.247.407-1.482.819-1.718m11.451-1.414c-.327-.684.202-1.427 1.069-1.561l-1.069 1.56m-12.408 1.53l-.487 1.616c-.444-.55-.22-1.402.323-1.675l.165.06m39.464-2.277c-.28-.354-.567-.703-.832-1.067-.051-.071-.014-.205-.017-.31.106.004.246-.035.312.018.405.329.673.739.673 1.274l-.136.085M23.19 62.16c.122.46-.15 1.095-.549 1.34-.329-.44-.085-1.067.55-1.34m26.637 4.678c.275.447.154 1.186-.167 1.379a.346.346 0 01-.266.022c-.042-.015-.082-.152-.059-.21.146-.382.31-.758.492-1.191m11.888-5.324c-.234-.349-.42-.59-.562-.855-.047-.085.015-.23.029-.348.12.019.277-.003.353.065.298.268.438.593.18 1.139M26.473 68.31c.073.341.159.681.21 1.025.014.086-.087.19-.135.284-.096-.066-.235-.109-.284-.2-.201-.373-.175-.743.209-1.109m4.177-10.355l-1.038 1.217c-.07-.685.382-1.247 1.037-1.217M52.9 60.898l-1.053-1.167c.655.031 1.081.473 1.167 1.063l-.115.104m1.49-.947c.637-.028 1.026.38.928.99l-.928-.99m-8.727 1.579c-.11-.297-.234-.59-.328-.892-.022-.07.032-.21.093-.245.06-.035.232-.007.255.041.16.34.412.682-.02 1.095m9.861 3.966v-1.396c.48.345.47.853 0 1.396m-4.793-.003c-.524-.212-.504-.599-.556-.935-.009-.055.138-.198.174-.185.108.036.26.116.278.204.061.266.067.543.104.916m9.077-5.877c-.152-.105-.341-.185-.445-.325-.094-.125-.095-.319-.137-.482.169.057.385.07.493.184.124.13.152.352.222.533l-.133.09m-11.86 8.491c.386.38.422.62.131.803-.11.07-.296.014-.446.016l.315-.819m1.613-6.825l-.693-.919c.444-.102.817.353.694.92m16.913 2.472c.024-.266.036-.534.083-.796.013-.07.133-.12.204-.18.057.087.17.184.158.258-.046.268-.133.529-.206.79l-.24-.072m-7.818-3.782c-.353-.076-.556-.256-.529-.597.005-.063.246-.185.317-.152.323.15.353.418.212.749m-20.516.056l-.332 1.095c-.366-.378-.251-.777.332-1.095m13.471 3.003c-.123-.207-.258-.407-.36-.624-.029-.06.024-.186.08-.244.028-.03.192-.005.21.035.115.25.207.51.305.767l-.235.066m4.913 1.303c.294.279.306.575-.113.905l-.106-.878.22-.027M27.56 69.089v.69c-.12-.013-.342-.025-.342-.04-.003-.224.024-.45.042-.672.1.006.2.014.3.022m4.148-10.018l.711-.726.17.161-.691.745-.19-.18m21.419 3.633c.11.212.232.341.225.462-.007.105-.161.202-.248.303-.103-.13-.246-.247-.289-.394-.02-.067.155-.192.312-.371m-33.547-.872l-.293.719c-.365-.286-.297-.528.15-.777l.142.058m43.251 1.164l-.287-.966c.573.32.638.509.286.966m-28.915-2.004l-.299.861c-.333-.374-.277-.569.3-.86m7.902-.579l-.5.188-.112-.433.556-.036zm5.07 7.846c.033.156.138.348.08.456-.058.113-.271.146-.417.213l-.1-.103.263-.567c.058 0 .116 0 .174.002m-7.032-7.331c-.494-.31-.304-.495.096-.646l-.097.646m-13.892 2.542l-.246.832-.231-.062.232-.838.245.068m30.958-3.031l-.57-.313.164-.25.535.352zm-1.13.341l-.47-.62.16-.122c.311.09.493.275.31.742m-25.611-.454l-.286.823-.193-.056.243-.838.236.071m-11.692 1.823c-.064-.32-.04-.608.37-.813.092.405-.02.655-.38.805z"/></g></svg>