<svg height="82" width="88" xmlns="http://www.w3.org/2000/svg"><mask id="a" fill="#fff"><path d="M0 0h81.693v34.459H0z" fill-rule="evenodd"/></mask><path d="M4.841 14.658c0-.09-.003-.18-.004-.27H1.595l.005.27zm-3.226-3.954l-.005.342c1.076.145 2.151.228 3.22-.034a31.224 31.224 0 00-.005-.308zM1.61 7.055c.897.623 2.733.554 3.327 0zM4.82 1.89l.012-.339c-1.08-.177-2.158-.225-3.23.018l.002.321zm.04 1.875l-.006-.5c-1.014 0-2.029-.008-3.042.014-.078.002-.233.25-.204.335.037.112.216.243.34.25.508.022 1.02.011 1.53-.008.46-.016.921-.058 1.382-.09zm.003 1.885c.005-.182.01-.366.013-.549-1.035 0-2.07-.006-3.105.012-.077.001-.206.161-.213.254-.006.09.113.27.18.271 1.041.018 2.083.012 3.125.012zm-3.449 6.93c.846.597 2.907.561 3.558-.063-1.222-.185-2.31-.262-3.558.062zm.173-3.643c.626.578 2.667.568 3.406-.005-1.223-.335-2.313-.212-3.406.005zm1.707 21.645c-.442 0-.889-.032-1.325.015-.169.02-.316.22-.474.337.14.131.276.37.421.374a30.71 30.71 0 002.557 0c.163-.006.318-.213.477-.328-.173-.134-.332-.35-.522-.382-.369-.06-.755-.018-1.134-.016zm-.06-10.952v.003c-.442 0-.888-.034-1.324.017-.152.02-.279.246-.418.378.13.111.255.316.387.32a34.95 34.95 0 002.65 0c.143-.006.277-.252.416-.385-.16-.112-.312-.298-.482-.319-.405-.047-.819-.014-1.229-.014zm.021-1.814c-.443 0-.89-.033-1.327.018-.158.018-.292.238-.438.365.153.122.3.344.456.35.854.035 1.711.034 2.565-.002.15-.006.291-.24.435-.368-.15-.122-.292-.328-.458-.348-.405-.05-.82-.017-1.233-.015zm.024-1.824c-.447 0-.897-.033-1.337.017-.16.018-.298.235-.447.361.125.115.247.325.375.33.892.03 1.784.031 2.676.003.136-.004.266-.203.4-.312-.143-.132-.272-.359-.427-.379-.407-.054-.826-.019-1.24-.02zm.028 7.297c-.474 0-.948-.024-1.419.015-.139.011-.263.2-.395.307.136.136.267.384.408.39.881.036 1.766.031 2.65.003.134-.004.263-.2.394-.31-.135-.135-.258-.366-.41-.387-.402-.054-.818-.018-1.228-.018zm-.07 5.475v-.019c-.41 0-.828-.04-1.229.018-.185.028-.34.254-.508.391.156.12.31.34.47.345.851.032 1.706.03 2.558-.01.144-.006.28-.246.417-.378-.158-.115-.307-.309-.478-.33-.404-.05-.819-.017-1.23-.017zm-.059-2.9c.446 0 .897.034 1.338-.018.155-.018.286-.245.428-.375-.13-.112-.258-.316-.392-.32a41.29 41.29 0 00-2.68.002c-.129.004-.252.215-.378.33.147.127.282.344.442.364.407.053.827.018 1.242.017zm-.003 7.306v-.008c.446 0 .896.033 1.337-.018.156-.018.29-.243.433-.373-.13-.112-.257-.316-.39-.32a41.197 41.197 0 00-2.678.002c-.13.004-.255.212-.382.325.145.131.28.353.438.374.408.054.827.018 1.242.018zm.047-6.235c-.444 0-.89-.025-1.33.016-.14.013-.264.206-.394.316.131.143.257.404.394.41.886.037 1.776.037 2.662 0 .137-.006.262-.268.392-.41-.13-.11-.253-.303-.393-.317-.44-.04-.887-.015-1.33-.015zm-.067-4.726v-.006c.476 0 .954.025 1.425-.017.131-.01.335-.216.341-.34.005-.122-.194-.359-.31-.364a42.893 42.893 0 00-2.755-.01c-.125.004-.244.223-.365.342.143.132.273.356.43.377.405.054.822.018 1.234.018zm49.934.634c3.015-3.735 2.298-10.692-2.278-13.558.172 1.548.472 3.173.5 4.802.024 1.552-.186 3.116-.383 4.663-.24 1.881.723 3.055 2.161 4.093zM74.28 8.968c.961 2.352 1 4.597.807 6.86-.094 1.11-.266 2.213-.342 3.323-.103 1.527.881 3.04 2.28 3.603 3.144-3.804 1.832-10.91-2.745-13.786zm-47.657.061c1.03 2.386.956 4.75.68 7.132-.118 1.012-.244 2.024-.31 3.04-.098 1.537.954 3.12 2.376 3.647 3.577-4.616 1.335-11.333-2.746-13.819zm54.324 8.106c-.124-3.335-.136-6.74-1.253-9.978-.395-1.144-1.079-2.225-1.807-3.202-.52-.7-1.047-.563-1.303.287-.394 1.307-.685 2.65-.933 3.992-.054.292.206.694.417.973.65.862 1.453 1.625 2.005 2.542 2.638 4.377 1.867 9.755-1.82 13.43-.3.3-.62.828-.56 1.19a29.7 29.7 0 00.904 3.902c.28.924.752 1.04 1.32.244.745-1.045 1.468-2.185 1.852-3.394 1.024-3.222 1.078-6.59 1.178-9.986zm-23.193-5.862c-.525 1.105-1.035 1.941-1.334 2.846-2.008 6.07 1.938 11.988 8.097 13.433 1.133.265 2.156-.117 2.99-.914 2.016-1.929 1.985-5.605-.2-7.323-1.132-.89-2.509-1.49-3.82-2.125-2.535-1.224-4.736-2.752-5.733-5.917zm-23.765.26c-.984 1.127-1.853 3.297-1.98 4.875-.459 5.656 3.666 10.142 8.771 11.237 1.131.243 2.156-.177 2.97-.982 2.001-1.973 1.941-5.588-.257-7.324-1.129-.892-2.496-1.506-3.809-2.132-2.548-1.215-4.737-2.754-5.695-5.675zm-23.893-.087c-.934 1.35-1.596 2.704-1.832 4.22-.93 5.962 3.316 10.838 8.688 11.977 1.202.255 2.268-.216 3.094-1.129 2.053-2.265 1.802-5.717-.654-7.507-1.067-.778-2.326-1.3-3.527-1.88-2.519-1.216-4.73-2.732-5.769-5.68zM76.22 23.95c-2.766-2.112-3.083-4.746-2.45-7.824.343-1.675.275-3.494.06-5.207-.207-1.657-1.067-3.16-2.829-3.668-3.94-1.137-7.653-.619-10.987 1.88-1.344 1.007-1.508 2.034-.677 3.504.73 1.29 1.915 2.02 3.197 2.632 1.582.756 3.245 1.376 4.737 2.28 3.004 1.814 3.827 5.6 2.001 8.615-.324.532-.718 1.022-1.186 1.682 3.292-.26 5.903-1.492 8.134-3.894zm-23.963.026c-.106-.136-.167-.253-.26-.33-2.278-1.892-2.797-4.31-2.116-7.084.544-2.213.677-4.415-.146-6.594-.483-1.276-1.233-2.356-2.608-2.739-3.769-1.05-7.342-.624-10.6 1.638-1.868 1.295-2.038 2.674-.568 4.43.384.456.85.885 1.361 1.185.934.545 1.93.986 2.9 1.467 1.17.581 2.41 1.054 3.498 1.76 2.287 1.481 3.231 4.238 2.316 6.8-.418 1.168-1.132 2.23-1.696 3.307 2.158.334 6.108-1.518 7.92-3.84zm-23.61-.032c-2.877-2.177-3.148-4.904-2.428-8.07.341-1.504.205-3.176-.009-4.732-.23-1.68-.974-3.29-2.762-3.837-4.102-1.257-7.947-.673-11.363 2.036-.967.767-1.152 1.58-.689 2.721.606 1.496 1.732 2.491 3.174 3.156 1.563.72 3.19 1.327 4.675 2.18 3.555 2.043 4.28 6.443 1.673 9.608-.206.25-.405.506-.744.93 3.482-.225 6.178-1.493 8.473-3.992zm26.77-3.56c-2.225 5.548-6.327 8.274-12.002 8.204-5.677-.07-9.783-2.828-11.709-8.076-1.044 1.506-1.916 3.217-3.196 4.53-3.927 4.023-9.645 4.508-14.34 2.374-6.25-2.84-8.604-10.057-5.28-15.667 4.108-6.94 14.448-8.008 19.98-1.992 1.117 1.214 1.89 2.745 2.802 4.103C33.79 8.697 37.8 5.87 43.497 5.87c5.698.001 9.696 2.851 11.94 8.311 1.475-4.067 4.216-6.622 8.162-7.8 3.918-1.172 7.63-.508 11.144 1.702l1.116-4.546c-.304-.024-.523-.054-.743-.055-7.308-.007-14.616-.015-21.924-.015-9.638 0-19.275.005-28.913.01-5.584.001-11.17.018-16.755-.012-.852-.005-1.087.282-1.086 1.105.004 3.733-.067 7.465-.08 11.197-.017 4.661-.004 9.321-.004 13.98 0 1.411.001 1.414 1.385 1.413l67.118-.08h1.052l-1.15-4.682c-3.522 2.474-7.304 2.79-11.169 1.751-3.982-1.07-6.646-3.746-8.173-7.766zm-13.295 11.41l-34.465.001c-1.298 0-1.298.003-1.303 1.307-.005 1.34-.005 1.34-1.379 1.341-1.277.002-2.554-.033-3.829.013-.773.027-1.06-.206-1.045-1.027.046-2.55.016-5.104.007-7.657C.078 17.574.053 9.375 0 1.176-.006.317.263-.033 1.155.002c1.403.056 2.81.042 4.212.005.76-.02 1.11.223 1.097 1.035-.027 1.81-.23 1.644 1.727 1.644 14.615.002 29.23-.002 43.843-.003 8.138 0 16.275.021 24.412-.017 1.12-.005 1.988.375 2.515 1.255.665 1.108 1.318 2.282 1.664 3.515 1.303 4.646 1.152 9.41.893 14.166-.136 2.496-.523 4.956-1.54 7.265a9.977 9.977 0 01-1.164 1.965c-.565.743-1.329 1.073-2.327 1.068-6.988-.036-13.976-.02-20.965-.02h-13.4z" fill="#fff" fill-rule="evenodd" mask="url(#a)" transform="translate(3 23)"/></svg>