<svg height="82" width="88" xmlns="http://www.w3.org/2000/svg"><mask id="a" fill="#fff"><path d="M.173.33h69.435V16H.173z" fill-rule="evenodd"/></mask><mask id="b" fill="#fff"><path d="M.297.763h52.566v7.681H.297z" fill-rule="evenodd"/></mask><mask id="c" fill="#fff"><path d="M0 59.237h87.765V1H0z" fill-rule="evenodd"/></mask><g fill="#fff" fill-rule="evenodd"><path d="M6.45 25.44c2.014-1.937 4.158-3.707 6.563-5.144.422-.252.856-.486 1.284-.729l.1.114c-2.798 1.823-5.46 3.826-7.946 6.057zm0 29.216c.282.305.564.608.845.914.816.89 1.633 1.782 2.445 2.677a.663.663 0 01.176.36L6.45 55.253zm0-1.043c1.296 1.448 2.59 2.897 3.885 4.347l-.092.096c-.724-.711-1.456-1.415-2.17-2.136-.311-.317-.561-.697-.887-.998-.2-.186-.487-.28-.735-.414zm28.808-21.319c.136-.088.175-.112.213-.138-.048-.036-.093-.087-.148-.1-.03-.007-.109.047-.109.073 0 .063.033.128.044.166zM47.87 17.87c0 .027 0 .053-.002.08h.472l.002-.059-.472-.022zm-8.944.644l-.022-.138-.308.091c.004.023.01.048.013.071l.317-.024zm1.04-.017l.013-.112-.326-.03-.01.087c.107.02.215.038.323.055zm4.872 35.86c.064.061.128.124.191.187l.237-.247-.173-.17c-.085.075-.17.151-.255.23zm22.195-15.55h.157l-.07-.336a1.214 1.214 0 01-.087.012zm-55.705.415l.076.035.165-.317-.094-.046zm67.785.218h.037v-.447h-.037zm-17.121-9.75l-.002-.168-.305.022v.105l.308.04zm7.73 10.103a3.178 3.178 0 00-.094-.065c-.058.089-.118.176-.177.264l.086.058.185-.257zm-40.54 16.112l.019-.105-.386-.07-.016.09.383.085zM69.66 45.78a12.07 12.07 0 01-.215-.198c-.041.051-.112.103-.112.154 0 .05.07.134.117.14.058.007.123-.052.21-.095zM15.2 33.953l-.084-.1-.231.323.084.064zm14.933 22.973l-.03.124.28.065c.01-.036.02-.07.028-.104zm35.6-3.86l-.017.082.39.083c.006-.032.01-.063.017-.094l-.39-.072zm-34.298-5.75l-.017-.11-.375.026.024.182c.123-.034.245-.067.368-.099zm26.38 10.592l.109-.212c-.052-.026-.103-.07-.156-.072-.028-.003-.091.074-.083.101.014.054.066.098.13.183zM21.1 43.942c.023-.063.06-.122.06-.18 0-.024-.083-.047-.13-.07-.017.06-.043.121-.046.183-.001.017.064.038.116.066zm48.888 5.247l-.111.006c.016.08.03.157.048.234a.21.21 0 00.06-.01c.005-.076.003-.153.003-.23zM29.842 24.362l.17-.076-.213-.294-.097.064.14.306zm17.06 36.406l.066.137.278-.148-.047-.094-.296.105zm10.512-31.95l.059.125.315-.153-.055-.118c-.107.05-.212.098-.32.146zm2.39-6.06l-.025.098.528.15.028-.112a138.98 138.98 0 00-.531-.136zM48.34 44.79l-.048.112.315.14.049-.12c-.105-.045-.211-.088-.316-.132zm13.313-20.724a7.95 7.95 0 00.008-.158l-.353-.027-.016.115.36.07zm-7.586 27.982l-.025.153h.446l.01-.073a65.148 65.148 0 00-.431-.08zm-5.321-13.487l.105-.035c-.005-.082.015-.18-.023-.242-.046-.074-.142-.117-.217-.174l-.072.075c.07.125.138.251.207.376zM61.555 48.63c.05-.063.125-.116.122-.163-.004-.05-.11-.143-.124-.134-.071.04-.127.108-.19.166l.192.131zm4.227 5.688v-.062h-.628v.062zm-37.228-.006l-.17.202c.1.072.199.145.33.242-.065-.185-.113-.315-.16-.444zm17.174.297l-.07.144.368.128.04-.098c-.113-.057-.226-.116-.338-.174zm25.497-8.02l-.097.06.13.258c.053-.029.104-.059.154-.089l-.187-.23zm-57.66-1.856l.12-.053-.196-.398a2.073 2.073 0 01-.081.043l.158.408zm34.386-.393l.125-.064-.196-.407c-.031.015-.062.03-.094.043l.165.428zm25.985-.947l-.015-.15-.46.068.012.106c.154-.008.308-.017.463-.024zm-16.694 8.06l.078.098c.124-.098.248-.194.372-.29l-.077-.087c-.124.093-.25.185-.373.28zM44.11 41.768l-.131-.133-.292.272.133.135.29-.274zm27.69 9.3c.03-.008.06-.018.09-.028a101.67 101.67 0 00-.05-.549l-.04.003zm-22.03-5.38l-.05.173.372.056.022-.116a45.771 45.771 0 00-.343-.113zm-28.647-5.332l.102.168.306-.24-.085-.117c-.107.063-.215.125-.323.19zm14.448 14.336l-.018-.117-.651.143c.002.02.005.042.009.062l.66-.088zM41.862 57c.035-.047.067-.095.1-.143a45.644 45.644 0 01-.392-.155l-.043.1.336.198zm4.892-3.957l-.004-.082h-.514v.082zm-31.142-4.85a4.23 4.23 0 01.015-.15h-.373l-.012.1.37.05zm9.387-.168a5.217 5.217 0 01-.125-.004l.03.345.095-.006zm23.375 5.358l.082-.123-.515-.268-.016.091.449.3zm-24.57-8.042l.126.061.194-.38-.128-.064-.192.383zM75.21 33.733l.081-.135-.225-.144-.091.158.234.121zM54.198 56.26l.075-.144-.342-.17-.049.091zM30.587 52.8a8.281 8.281 0 00-.123.077l.175.38.126-.059zm23.949-2.546a3.063 3.063 0 01-.007-.137l-.47.032.008.105zm-4.46 5.253l-.007-.169c-.126.01-.253.02-.38.028l.006.115.381.026zm16.99 1.946l-.03.132.512.112c.01-.04.02-.079.028-.119l-.51-.125zM16.9 46.723l.012-.138-.452-.048-.016.124.456.061zm52.43-2.163l-.097.124.394.18.05-.102zM39.236 58.411l-.02-.12c-.116.016-.234.032-.352.05.006.04.01.08.017.12.118-.018.236-.033.355-.05zM22.547 44.357l.087.101c.086-.07.173-.143.259-.216a4.614 4.614 0 01-.091-.106c-.085.073-.17.146-.255.221zM73.57 31.328l.154-.114c-.02-.066-.025-.18-.06-.19-.1-.028-.213-.014-.32-.017.076.106.15.214.226.321zm-18.375-.268l.08.136c.166-.08.33-.163.497-.244-.034-.056-.066-.114-.098-.17l-.48.278zm-1.21 27.926l-.078-.129c-.17.105-.337.21-.504.315l.074.118c.17-.1.34-.202.509-.304zM22.993 48.523l-.12-.058-.268.543.123.058c.089-.18.177-.362.265-.543zm49.004 3.338l-.081-.204-.398.193.056.136.423-.125zm-14.17-12.106l.16-.127-.385-.464c-.04.03-.077.062-.116.092l.342.5zM16.566 47.16l.089.196.504-.26-.06-.135zM76.38 32.32c-.06.02-.123.037-.184.056.084.215.166.43.247.644l.108-.034-.172-.667zM47.107 53.06l-.065.184.48.177.066-.19c-.16-.057-.32-.115-.48-.17zm-21.513.076l-.07.156.422.191.045-.092-.397-.255zm22.497 3.13l.01.17c.166-.009.332-.017.498-.033.004 0 0-.085 0-.193-.172.02-.34.036-.508.055zm-16.616-7.058l.153.101.252-.345-.166-.11-.24.354zM17.798 34.62l-.183-.089-.241.516.173.082.25-.509zm55.732-4.16c-.145-.069-.246-.157-.306-.136-.086.031-.145.143-.216.22.061.051.126.146.186.144.073-.003.14-.089.336-.228zM51.291 50.753l.034-.112-.638-.104-.024.165.629.051zm-2.822-1.225l-.002-.042h-.984l.004.042zm27.016-5.378l-.03-.093-.693.224.05.141.673-.272zm-3.342-9.367l.23.126.252-.556c-.044-.024-.088-.047-.13-.072l-.351.502zM64.202 49.04l.023.2.682-.097c-.004-.049-.011-.098-.017-.147l-.688.044zm-45.3-4.027l.12.094.449-.762-.101-.057-.468.725zm-.787 3.564l.132-.13-.634-.46a1.946 1.946 0 01-.07.084l.572.506zm6.693 1.626l.237.137.198-.538-.186-.082zM20.856 26.89c.05.046.104.092.156.136l.372-.424a9.817 9.817 0 00-.105-.1l-.423.388zm2.514 11.873l.039-.189h-.733l-.006.09zm-5.188 8.79l-.145.176.393.313.12-.149a38.962 38.962 0 00-.368-.34zm14.548 3.29v.025h1.126v-.026zm11.103 4.563a4.906 4.906 0 01-.05.173l1 .25.029-.109zm4.74 2.92a3.074 3.074 0 01-.001-.097h-.857c0 .032 0 .064.002.096zm22.702-14.633l-.074.22c.22.072.44.147.66.221l.058-.157-.644-.284zm6.673 2.266c-.023.035-.045.071-.07.107l.643.578.072-.09zM25.21 51.351c.088-.016.176-.033.265-.048l-.131-.613-.186.026.052.635zM19 33.606l.224.046c.04-.224.08-.449.122-.673l-.18-.033-.165.66zm31.07-13.143l.054.251.752-.239-.02-.079-.786.067zm25.08 11.678l-.128.014c.025.263.05.526.077.788l.16-.028c0-.143.016-.289-.003-.43-.016-.118-.07-.23-.106-.344zM29.32 52.537l-.21-.025c-.02.193-.038.386-.056.58l.19.021c.026-.192.05-.383.077-.576zm40.253-2.557c-.043-.01-.086-.02-.13-.032l-.28.86.236.062.174-.89zm2.688.841l.188-.05-.256-.864-.123.033.19.881zm-11.152 3.183l-.094.222c.219.086.437.171.656.255.024-.056.046-.114.069-.17l-.631-.307zM24.246 45.63l.162.11.29-.403-.185-.122-.267.415zm22.882-26.81c-.01-.059-.017-.119-.027-.178-.265.066-.53.133-.794.201l.035.161c.262-.06.524-.122.786-.184zm-4.116 36.457l.027-.197-.59-.078a9.257 9.257 0 01-.023.175l.586.1zm3.54-2.7l.03-.204-.688-.224-.061.195.719.233zm17.542-26.98c-.383-.389-.383-.389-.656-.117l.656.117zm15.073 12.538l.154-.018-.15-1.049-.096.012c.03.352.06.703.092 1.055zm-17.042 10.98l-.001.117h1.364v-.05l-1.363-.067zM26.498 60.098l.225.063.165-.723-.2-.047-.19.707zM24.772 49.33l.165.101c.075-.083.189-.155.217-.25.03-.11-.018-.24-.032-.362l-.144-.02c-.07.176-.138.353-.206.531zm-1.593 3.627l.219.107.325-.825-.15-.067zm52.092-12.44l-.152.142-.32-.814-.137.141.609.53zm1.546-.004c.055.016.112.032.169.05.068-.207.137-.414.207-.62-.076-.02-.151-.042-.225-.063-.051.211-.102.422-.151.633zm-.348 11.385l.118.12.96-.733-.074-.09-1.004.703zm-64.183-15.72l-.177.108.386.65c.068-.042.135-.083.2-.125zm63.373 4.08l.146-.11-.527-.726-.168.126.549.71zm-61.303-4.053a9.035 9.035 0 01-.145-.096c-.186.29-.373.578-.56.866.046.03.093.058.14.09.188-.288.376-.574.565-.86zm12.16 14.023l.116.09.554-.665a10.345 10.345 0 01-.122-.097l-.547.672zm-5.838 4.68c.079-.004.157-.008.236-.01l-.056-.738-.18.012zm-4.533-21.554l.188.127.429-.587-.173-.127-.444.587zm47.033 24.354l.027-.152-1.123-.214c-.01.046-.016.091-.025.137l1.12.23zm-27.344-.313l.012.08 1.437-.195-.016-.114zm6.146-5.888l.105.118.686-.597-.19-.18c-.2.218-.401.44-.601.66zm-10.834.276a19.1 19.1 0 01-.321-.087l-.182.676.244.08.259-.669zm-15.637-2.2l-.518-.654c-.232.59.16.625.518.653zm54.317 1.142l.245.026.09-.819-.257-.028-.078.821zm-8.58-11.066l.16-.028-.16-1.255zM55.3 19.971c-.033.076-.07.148-.065.15.299.17.603.335.906.5l.1-.2-.941-.45zm9.76 24.713l-.17-.15-.51.556.177.16.503-.566zm-44.752.613l.082.225.86-.328-.07-.182-.872.285zm-6.41-4.936l.166-.01v-.864a8.71 8.71 0 00-.166.01zm16.753 7.62c.05-.026.103-.05.155-.077l-.426-.986-.188.094.459.968zm4.26-11.87c.076.025.15.048.223.073.11-.345.223-.69.333-1.034-.06-.017-.118-.035-.178-.05l-.377 1.011zm20.78-14.703a2.652 2.652 0 01-.004.091l1.895.147.008-.138-1.9-.1zm7.73 29.82l-.028.198c.363.097.726.192 1.09.29l.04-.164-1.102-.324zM19.88 28.116l.126.2.749-.46-.13-.206c-.247.156-.496.311-.745.466zm-5.143 11.28l-.18-.049-.187 1.537.082.011.285-1.499zm60.39-3.845l.102-.139c-.261-.236-.523-.472-.784-.71a29.98 29.98 0 01-.161.183l.843.666zm-54.253-4.067c.097.04.194.076.29.113l.24-.653c-.085-.025-.238-.086-.248-.069-.106.196-.191.404-.282.61zm-.792-1.796l-.144-.138-.701.618.213.22c.21-.234.42-.467.632-.7zM31.79 23.5c.9-.26.248-.597.342-.847a6.222 6.222 0 01-.197-.033l-.145.88zm-1.937 30.81c.004.061.007.125.009.187.408.228.696-.045.977-.356l-.986.168zM12.438 42.39l-.064.217.952.193c.016-.077.03-.154.045-.232l-.933-.178zm47.846-18.724l.072-.182-1.162-.51-.096.234 1.186.458zm14.465 17.11l.14-.17-.838-.672-.14.173zM37.758 19.443l-.087-.246c-.367.13-.733.257-1.1.386.026.076.05.152.077.228l1.11-.368zM12.487 44.808l-.201.158.88.953.105-.096-.784-1.015zM51.61 20.94l.765.731c-.164-.286.138-.972-.765-.73zm24.75 20.905l.2.173.693-.93-.203-.145-.69.902zM59.917 51.95c-.672-.63-.672-.63-1.301-.454l1.3.454zm10.509 2.873l.114.251.95-.47c-.031-.074-.064-.146-.096-.217l-.968.436zm-51.648-3.154l.085-.239-1.033-.45c-.03.066-.057.133-.087.201l1.035.488zm-7.74-12.962l.18.046c.125-.335.526-.622.285-1.02l-.231-.045-.234 1.02zm33.51-5.447l-.091.202c.184.094.362.234.553.258.089.011.205-.21.429-.46zm-16.77 16.374l-.101-.082-1.121 1.372.134.107zm19.364-30.579l-.027.254 1.668.147.01-.1c-.55-.1-1.1-.202-1.651-.3zM32.086 58.83l.075-.162c-.256-.116-.507-.246-.77-.344-.225-.083-.463-.128-.695-.19l-.052.193c.48.168.96.336 1.442.503zm-7.666-5.793l.146 1.136c.554-.385.53-.595-.146-1.136zm13.904-1.502l-.148-.214-1.203.825c.045.062.089.126.133.19zm29.83-3.343c-.617-.354-.736.123-1.042.29l.133.224c.303-.17.606-.343.909-.514zM41.73 52.834l-.123-.193c-.466.15-.746.53-.928 1.034l1.05-.84zm13.72-33.34a3.738 3.738 0 01-.08.153l1.792.99.073-.139-1.784-1.004zM26.86 54.64c-.081.05-.164.096-.246.144l.696 1.118c.073-.046.146-.09.22-.138l-.67-1.124zm22.292.778l.083-.247-1.375-.443c-.023.065-.044.13-.066.196l1.358.494zm7.658 3.785l-.115-.24-1.433.713.088.18 1.46-.653zm-22.08-38.17l.319.316 1.057-1.138-.167-.164-1.21.986zm32.04 32.701l-.016-.245-1.754.242.022.18 1.748-.177zm-9.76.64c-.604-.509-.783-.453-1.05.316l1.05-.316zm20.622-8.033c-.04.05-.081.1-.121.147.226.453.602.725 1.207.722l-1.086-.869zm-7.508-7.91l.233-.037-.305-1.829-.162.03.234 1.836zm-56.708 7.201l.218-.128-.695-1.3-.22.117.697 1.311zm7.274-1.116c.044.092.088.186.13.28l1.43-.78-.074-.14-1.486.64zm-8.52-2.93l-.095.314 1.188.36.099-.322c-.397-.119-.794-.236-1.191-.353zm32.068-7.473l-1.028.505c.689.486.9.074 1.028-.505zm-8.184-15.342l-.062-.165-1.79.712c.037.09.074.178.109.267zm14.479 32.657l-.153.193 1.39 1.097.13-.165-1.367-1.125zm-30.086 5.375l.247.053c.059-.527.553-.92.505-1.479a80.103 80.103 0 00-.26-.084l-.492 1.51zm41.979-31.07c.88.607 1.01.6 1.423 0zM13.22 38.33l.184.13 1.034-1.437-.185-.132-1.033 1.44zm16.212 17.131c.04.07.08.14.122.21.473-.154.964-.28 1.103-.933-.408.242-.817.483-1.225.723zm-7.896-7.136l-.135-.039-.642 2.075.217.063.56-2.099zm38.46-12.876l1.15 1.967c-.175-.734-.297-1.453-1.15-1.967zM18.636 47.37l.104.181c.655-.047 1.02-.587 1.529-.885a18.964 18.964 0 00-.084-.146l-1.55.85zm2.673-5.552l.18.105c.289-.427.755-.775.5-1.444l-.68 1.34zm-2.006 4.361c1.203.035 1.434-.052 1.722-.552l-1.722.552zm-2.492-8.434c.428.56 1.017.78 1.675.842-.49-.334-1.011-.589-1.536-.839-.038-.018-.092-.003-.14-.003zm30.005-.603l-.273-.28 1.02-.559-1.555.43.808.41zm-2.783-18.817c.833-.177 1.806-.386 2.675-.573-1.318-.084-2.1.096-2.675.573zm23.603 33.818l-.094.327 1.452.421.075-.255-1.433-.493zm.914-1.103l-.071.172c.51.507.875.611 1.482.355l-1.411-.527zm8.063-13.1l-.215.117 1.134 1.826.172-.103-1.091-1.84zM69.557 52.4l.078-.185-1.7-.702c-.033.096-.07.192-.104.29.575.198 1.15.396 1.726.596zM20.69 26.343c-1.05.511-1.344.846-1.333 1.507l1.333-1.507zm41.467-2.779l.146-.292-1.617-.79-.108.225 1.579.857zm-48.63 25.849l.283-.076-.6-1.934-.197.055.514 1.955zm27.46 7.495l-.143.268 1.659.94c.035-.062.07-.125.108-.188l-1.624-1.02zm-10.692-6.057c-.065-.042-.131-.084-.195-.127-.434.321-.767.703-.846 1.24l.218.14.823-1.253zm-4.26 3.682c-.06.036-.12.073-.178.111.04.564.12 1.101 1.019 1.281l-.84-1.392zM45.45 40.106c-.444-.31-.727-.909-1.47-.845.175.32.3.553.345.636.47.087.798.15 1.125.21zm-25 15.635l-.206-2.369c-.133.77-.44 1.551.206 2.37zm37.73-9.212c.016.11.034.22.052.328l1.848-.333c-.012-.082-.026-.163-.04-.245l-1.86.25zm4.309 7.918c-1.01-1.215-1.01-1.215-1.58-1.124l1.58 1.124zm6.264-1.176l-1.793-.746-.076.227c.46.521 1.059.611 1.869.52zm-32.672 4.461c0 .053.003.106.005.16h2.469v-.16zM60.944 42.52c.713-.568.834-1.588.437-1.879-.13.552-.267 1.146-.437 1.88zm-42.956 3.818l.065-.253c-.625-.092-1.25-.184-1.874-.274l-.031.165c.556.402 1.208.335 1.84.362zM53.1 47.442a21.48 21.48 0 01-.182.136c-.017.25-.05.5-.046.75.002.101.084.201.129.303.195-.13.573-.318.553-.382-.09-.288-.292-.54-.454-.807zm23.777-1.164c-.718.49-1.405.956-2.093 1.424.953-.125 1.594-.67 2.093-1.424zM53.972 22.714c.35.291.673.5.973.11.085-.11-.04-.56-.184-.642-.533-.294-.512.288-.79.532zm4.992 9.27c-.174-.46.6-.865-.173-1.239l-.658 1.09.83.148zm13.979 14.424l-.184.152 1.346 1.777c-.355-.669-.47-1.507-1.162-1.929zm-41.96 12.614l-.017.15 3.105.257c.005-.062.01-.123.017-.184l-3.105-.223zM18.392 27.914l-.266-.264 2.207-2.19c.084.082.167.165.25.25-.962.495-1.641 1.282-2.191 2.204zM61.64 56.4a2.79 2.79 0 01-.031-.138l-3.215.677.05.217 3.196-.756zm-12.525-5.863l.073-.269c-.588-.432-1.305-.282-1.958-.42l-.047.185zM31.813 48.25l-.022.21 1.886.18c-.828-.702-1.226-.777-1.864-.39zm-1.333 3.122c-.862.877-1.028 1.576-.5 1.917l.5-1.917zm42.139-15.555l1.69 1.238c.08-.708-.468-1.15-1.69-1.238zm.572 17.333l-.137-.199-1.528 1.233c.624.154.753.065 1.665-1.034zm-49.572-1.82c-.791.587-.991 1.402-1.027 2.417l1.027-2.417zm36.41 1.334l.097-.253c-.676-.268-1.35-.538-2.025-.807.539.585 1.146 1.014 1.928 1.06zM37.982 20.247l-.106-.166c-1.003.01-1.103.067-1.55.977l.896-.523c.015.03.032.06.049.088l-.21.258.2.197.72-.83zM20.165 57.93l-1.931 1.56c1.258-.347 1.78-.798 1.93-1.56zm18.149-7.244c-.784.035-1.711.705-1.702 1.358l1.702-1.358zm12.846-4.36c.624.675 1.435.861 2.548.71-.372-.11-.788-.237-1.206-.354-.446-.124-.894-.239-1.342-.357zm-33.362-3.497l.036.065c.736-.267 1.473-.525 2.2-.809.093-.036.132-.209.196-.318-.124-.02-.28-.097-.37-.05-.694.356-1.375.738-2.062 1.112zm11.948 7.736l-.17-.123-1.468 1.782.293.238c.667-.454.732-1.399 1.345-1.897zm44.877-14.666c.636.522 1.272 1.042 1.906 1.564-.261-.98-1.053-1.309-1.906-1.564zM41.63 59.771c.766 1.09 1.569.571 2.335.393l-2.335-.393zm2.743-9.396l-.182-.176-1.55 1.485.192.195c.695-.312 1.072-.955 1.54-1.504zm25.976-2.244l-.17.061.355 2.35c.275-.862.299-1.68-.185-2.41zm-42.892 4.121l.198.104L29.1 50.41a37.087 37.087 0 01-.292-.19l-1.351 2.032zm4.464-1.97c.809.322 2.108.072 2.767-.543l-2.767.543zm-1.516 9.703c.978.746 1.906.687 2.866.342l-2.866-.342zm1.99-5.154l.054.218 3.35-.898-.058-.216-3.346.896zm12.242-36.464l.04.378 2.667-.389a23.253 23.253 0 01-.035-.277c-.891.096-1.781.193-2.672.288zm-12.23 35.056a3.458 3.458 0 002.168-.722c-.806-.007-1.535.215-2.167.722zm42.128-21.136l.189-.078c-.05-.85-.192-1.658-1.12-2.103l.93 2.181zm-6.014 11.007c.438.818.883 1.09 1.585 1.007-.34-.693-.697-.929-1.585-1.007zm-56.398 3.313l-1.44-2.746c-.162 1.131.48 1.941 1.44 2.746zm19.803 4.583c.599.525 1.96.47 2.986 0zm-5.742-10.337l-.235-.033c.068.586-1.081.137-.67.87.127.226.777.16 1.187.226l.133-.226c-.14-.279-.277-.558-.415-.837zm2.92 6.445c-.995.277-2.15.233-2.937 1.07l.085.21c.95-.428 1.9-.853 2.852-1.28zM15.794 33c-.503.554-.331 2.841.172 3.404L15.794 33zm57.518 11.154l.123-.306-2.482-.979-.09.223c.845.285 1.507 1.02 2.449 1.062zM23.959 54.501l.208.024V51.89c-.296.785-.83 1.652-.208 2.612zm-8.395-12.063l2.17-1.718c-.928.05-1.713.697-2.17 1.718zm38.09 8.294c.632.432 2.344.285 3.09-.227l-3.09.227zm-7.371 3.595c.828.904 1.786 1.552 3.146 1.75-1.138-.634-2.142-1.19-3.146-1.75zm11.364 4.705c-1.074.9-2.323 1.25-3.695 1.223 1.419.4 3.103-.145 3.695-1.223zm1.042-37.664a5.8 5.8 0 00-3.842-.32l3.842.32zM30.395 60.55c.763.803 2.753.866 4.113-.01-.798.142-1.465.358-2.13.354-.683-.006-1.366-.229-1.983-.344zM74.25 46.784c.844.04 1.965-.95 2.077-1.88l-2.077 1.88zm-2.261-13.676a12.653 12.653 0 00-.162-.169c-.758-.046-1.505.28-1.445.655l.497-.222c-.068.214-.117.347-.152.484-.034.13-.054.264-.08.397.058.038.117.076.174.115l1.168-1.26zm-53 1.972a4106.88 4106.88 0 01-.475-3.666c-.352 1.368-.171 2.833.476 3.666zM47.005 59.2c1.37.527 2.41-.186 3.53-.404a18.833 18.833 0 00-.034-.234l-3.496.637zm26.917-9.952c.05-.032.102-.064.152-.098-.078-.209-.122-.44-.241-.624a15.046 15.046 0 00-.902-1.256c-.083-.105-.273-.124-.413-.183.019.167-.013.366.068.493.304.476.638.934.977 1.385.089.118.237.19.359.283zM16.498 35.33c.45-.738 1.462-1.117 1.398-2.276-.71.505-1.44 1.646-1.398 2.276zm53.833 6.78c.825.66 2.56 1.007 3.449.655l-3.45-.656zM27.35 53.357c.59.622 3 .791 3.534.313l-3.534-.313zM75.367 34.69l-.257.171c1.174 1.003 1.859 2.302 2.289 3.755.11-1.768-1.184-2.717-2.032-3.926zM30.861 48.57c.147.821.334 1.636.429 2.463.099.857.109 1.723.156 2.585.312-1.729.078-3.408-.585-5.049zm10.393-29.409c-.792-.376-1.556-.368-2.227-.06-.023.01-.017.084-.026.136l.226-.013.228.71c.374-.153.64-.255.9-.367.263-.112.52-.234.899-.406zM36.44 53.964c.29-.395-.033-.716-.104-1.065-.074-.364-.16-.726-.243-1.088-.078-.339.075-.76-.381-1.162-.08 1.294-.018 2.372.728 3.315zm13.526-35.769c.873.262 1.786.434 2.606.811.81.372 1.525.951 2.282 1.44-1.185-1.706-3.036-1.959-4.888-2.25zm-12.13.207c-.043-.063-.085-.128-.128-.19l-4.08 2.114c.054.101.106.202.157.303l4.05-2.227zM19.95 41.24c-1.095.02-3.324 1.557-3.513 2.182l3.513-2.182zm43.467-7.873a7.537 7.537 0 01-.05.216c1.078.557 2.207.88 3.428.796l.05-.222-3.428-.79zm15.198 14.42l-.131-.136c-.438.476-.815 1.034-1.33 1.403-.52.376-1.174.565-1.926.907 1.322.106 3.125-1.073 3.387-2.175zm-3.586-6.427l-3.786-.483-.013.206c1.274.356 2.532.987 3.799.277zm-9.535-16.453c-1.188-1.343-2.731-2.106-4.396-2.667 1.466.89 2.93 1.78 4.396 2.667zM13.59 40.502l-.216.043.662 3.94c.2-1.379.093-2.712-.446-3.983zm4.277.661c-.994.584-1.942 1.1-2.24 2.26a36.93 36.93 0 002.315-1.86c.042-.039-.038-.215-.075-.4zm-2.921 8.812c.95.86 3.092.962 3.98.227-.655.01-1.313.154-1.962.125-.677-.03-1.346-.227-2.018-.352zm49.049 4.321l.137-.122-3.468-3.343-.161.168c1.06 1.206 2.149 2.383 3.492 3.297zm15.016-4.05l-2.997 2.61c1.623-.41 2.548-1.353 2.997-2.61zm-17.462 6.465c2.285.922 4.14.656 5.16-.79-1.671 1.327-3.388 1.206-5.16.79zm.527-8.186l.02.2c1.596.278 3.032-.164 4.36-1.067-.712.148-1.368.508-2.071.666-.747.167-1.537.143-2.31.201zm1.32 6.007c.044-.132.079-.194.066-.206a1639.971 1639.971 0 00-3.795-3.664c-.05.052-.098.105-.148.156 1.328 1.182 2.363 2.662 3.877 3.714zm-5.027 4.74c-.763.398-1.584 1.028-2.503 1.251-.935.225-1.967.05-2.957.05 2.01.828 4.314.201 5.46-1.302zm.91-34.718c-.351.945.25 1.34.93 1.71l.395-.764c-.587-1.126-.587-1.126-1.325-.946zM74.935 41.89c-1.343.366-2.56-.215-3.828-.505.166.923 2.762 1.291 3.828.505zM56.207 52.1c-1.36.652-2.724.677-4.106.131 1.315 1.126 3.378 1.186 4.106-.13zM21.09 56.83c-.06.03-.117.06-.175.088.145.164.258.406.44.48 1.037.417 2.09.79 3.155.3l-3.42-.869zm30.605-36.643c.014-.068.03-.135.045-.203-1.927-1.269-3.245-1.718-4.041-1.292.439.166.905.237 1.345.383.467.156.908.386 1.363.58.428.18.858.354 1.288.532zM26.403 49.562c1.12-.603 2.253-1.21 3.385-1.818-1.7-.032-3.208.861-3.385 1.818zm40.613-12.168a8.035 8.035 0 00-.148.038l.315.638c.789-.289.619-1.057.77-1.605.144-.512-.085-.968-.825-1.02 0 .438.012.874-.005 1.31-.01.214-.07.426-.107.64zm-50.902-7.616c-1.352.81-2.798 1.537-3.1 3.327.637-1.488 2.196-2.092 3.1-3.327zM32.53 58.284c1.956.263 3.89.35 5.828.305l.004-.305zm12.256-13.217c1.312-.946 1.466-2.138 1.24-3.446-.077-.447-.308-.793-.865-.906.908 2.08.388 2.496-.375 4.352zm-20.264 2.87c-.935 1.432-.104 4.301 1.386 4.871-1.296-1.39-1.636-3.042-1.386-4.87zm30.872-24.064c.757.45 1.897.618 2.826.376.418-.109.849-.174 1.255-.255-.617-.375-1.294-.534-2.076-.364-.688.148-1.402.175-2.005.243zm9.587 8.296c.342-.31.27-.76.008-1.06-.425-.485-1.033-.274-1.57-.25-.071.263-.184.481-.165.687.013.145.183.36.32.395.425.11.868.147 1.407.228zM14.93 43.911l.569-5.357c-.775 1.094-1.063 3.738-.568 5.357zm3.573 5.84c-1.31-.887-2.306-1.909-2.621-3.44-.03-.149-.271-.252-.514-.462.29 2.177 1.638 3.847 3.135 3.902zm50.276-.47c-1.361 2.041-3.355 2.916-5.7 3.18 1.199.052 2.362.005 3.378-.642.989-.629 1.964-1.29 2.322-2.538zm-20.938 7.597c.008-.059.017-.117.024-.176l-4.794-.914c.075.162.109.408.213.443 1.486.487 2.984.92 4.557.647zm-29.17-19.92c.234 1.943 1.127 3.436 2.093 5.006.08-.697-1.428-4.32-2.093-5.006zm57.84 14.152l-.114-.104c-.261.396-.55.78-.776 1.195-.366.672-.654 1.39-1.045 2.047-.455.765-1.125 1.235-2.072 1.208-.153-.005-.31.093-.464.144l.049.208c.358-.024.725-.01 1.074-.078 1.258-.247 1.749-1.29 2.263-2.277.396-.763.727-1.56 1.086-2.343zm-59.538-3.378c2.01-.922 2.975-2.739 3.867-4.617-1.311 1.521-2.248 3.361-3.867 4.617zm21.188 7.904c.137.07.326.251.435.211 1.39-.513 2.754-1.084 3.715-2.32-.311-.035-.64-.07-.867.065-1.073.633-2.117 1.311-3.283 2.044zM22.287 24.334l-.128-.144c-3.053 1.256-4.64 2.883-4.595 4.783.212-.372.352-.78.558-1.153.736-1.327 1.865-2.217 3.217-2.865.338-.162.634-.41.948-.62zm6.58 34.375c1.595 1.59 6.567 1.43 8.336.738-2.82.25-5.647.57-8.335-.738zm-9.196-30.28l-.122-.14c-1.995.716-4.088 2.34-4.694 3.682l4.816-3.542zm-3.687 25.187c.006-.087.018-.118.007-.133-.058-.076-.112-.163-.187-.22-.87-.664-1.258-1.532-1.224-2.634.02-.642-.085-1.287-.141-2.042-1.183 1.756-.191 4.807 1.545 5.03zm58.698-25.374l.076-.218c-.088-.075-.164-.182-.267-.219a262.416 262.416 0 00-3.361-1.188c-.11-.038-.247.005-.361-.027-.386-.11-.784-.2-1.144-.37-.486-.229-.93-.287-1.374.074.199.135.405.153.606.202.716.174 1.447.314 2.144.55.914.31 1.796.713 2.704 1.04.305.11.65.107.977.156zm-23.53 27.526c-.041-.098-.082-.196-.124-.292-1.265.664-2.49 1.427-3.806 1.964-1.337.545-2.766.867-3.991 1.237 2.927.116 5.373-1.535 7.922-2.909zM76.349 39.29c.08 1.32-.537 2.395-1.277 3.37-.746.985-1.63 1.863-2.43 2.763 1.586.117 4.189-4.027 3.707-6.133zm-2.2 13.183c-.593.951-1.326 1.768-2.3 2.281-.943.496-1.96.852-3.027 1.304 2.01.156 5.175-1.439 5.328-3.585zm-47.311.072l.208.017c.159-.327.307-.66.48-.98a6.189 6.189 0 012.536-2.544c.12-.066.156-.288.23-.437-.13-.017-.287-.09-.386-.042-1.43.688-2.591 1.643-3.058 3.237-.068.23-.01.498-.01.75zm-8.211-26.77c.949-.55 1.856-1.22 2.869-1.62.807-.316 1.338-.849 1.99-1.49-2.17.345-3.72 1.417-4.86 3.11zm57.17 7.901c.299-1.832-.783-3.802-2.563-4.623-.967-.447-1.968-.82-2.964-1.197-.243-.092-.531-.072-.797-.102-.02.088-.037.177-.056.266.465.163.919.376 1.397.48 2.868.625 4.734 2.093 4.882 4.96.003.063.056.122.102.216zm-54.062 3.282v-3.303c-.162-.022-.382-.015-.573-.088-.31-.118-.55-.144-.73.284.58-.123.766.111.635.588-.125.45-.223.928-.452 1.325-.452.781-.203 1.398.386 2.157-.156-.667-.638-1.178-.245-1.63.335.23.585.4.979.667zm1.139-14.56c-2.502-.267-6.496 4.373-6.221 7.206.209-.283.415-.58.493-.908.58-2.423 1.735-4.427 4.034-5.6.542-.278 1.129-.469 1.694-.699zm23.158 1.1l.123-.212c-.898-.899-1.903-1.516-3.251-1.604-1.282-.083-2.433.134-3.305.861.41.048.997.177 1.579.164.48-.01 1.225-.04 1.378-.322.33-.604.68-.384 1.024-.234.658.29 1.287.643 1.923.983.188.1.354.241.529.363zM28.75 55.452c-2.765-2.785-3.976-5.867-1.776-9.72-2.271 1.655-1.873 8.065 1.776 9.72zM11.994 33.918c-.15-3.404 1.816-5.717 4.047-7.92-1.984.061-5.163 5.62-4.047 7.92zM58.32 55.755l-.106-.16c-.282.2-.595.37-.841.61-.58.561-1.123 1.157-1.686 1.735-1.354 1.386-2.912 2.356-4.917 2.446-.486.022-.967.127-1.628.22 3.01.613 7.407-1.778 9.178-4.85zm-21.438.274c-.123-.05-.173-.09-.211-.083-1.83.42-3.663.826-5.487 1.271-1.244.304-2.488.454-3.756.196a231.04 231.04 0 01-1.655-.34c1.657.906 3.369 1.185 5.204.607.96-.302 1.96-.49 2.95-.682 1.006-.195 2.094-.106 2.955-.969zm21.84-19c-.218 1.028-.991.7-1.772.775.252.41.453.718.638 1.036.227.391.522.768.642 1.192.186.656.25 1.346.365 2.022l.177.011c.44-1.3.09-2.707.387-4.19.153.292.25.482.35.673.067-.059.134-.116.199-.175.148-.72-.576-.87-.985-1.345zm-17.44 22.61l.038-.199c-.273-.049-.545-.126-.821-.143-1.636-.094-3.046.58-4.43 1.332-.892.485-1.736 1.11-2.682 1.436-1.746.601-3.55.69-5.285-.125-.358-.167-.65-.474-.968-.715-.084.78.456 1.021 1.01 1.247.16.065.326.124.496.158 1.953.386 3.846.311 5.64-.68a42.695 42.695 0 012.852-1.456c1.309-.596 2.634-1.187 4.15-.855zm7.636-15.43c.827.277 1.175-.4 1.782-.65-.612-.54-.733-1.12-.51-1.802.089-.277.202-.623.113-.868-.235-.652-.567-1.27-.885-1.889-.032-.06-.237-.034-.428-.057l.179.775-.42.097c.126.417.72.864-.157 1.067l.747 1.785-.186.081-.207-.48-.223.054c.084.392.04.985.277 1.136.522.332.033.425-.082.75zm3.843-.62c-.251-.134-.314-.193-.376-.194a1.616 1.616 0 00-.363.052c-1.226.28-2.264.895-3.071 1.847-1.361 1.607-2.688 3.242-4.021 4.873-.407.5-.786 1.022-1.178 1.533l.15.151c.278-.218.61-.393.824-.66.863-1.087 1.65-2.233 2.542-3.295.712-.849 1.596-1.555 2.284-2.42.684-.863 1.613-1.172 2.568-1.507.189-.067.352-.205.64-.38zm-29.91 11.23c-1.096-1.744-1.243-3.616-.721-5.526.58-2.125 2.459-2.827 4.274-3.612-.301-.105-.596-.18-.826-.09-.69.273-1.384.56-2.02.936-.926.55-1.511 1.38-1.88 2.41-.408 1.141-.394 2.302-.276 3.456.1.994.45 1.927 1.45 2.426zm54.943-9.45l.106-.07c.094-.879.167-1.76.288-2.633.205-1.468.528-2.924.64-4.396.134-1.728-.733-2.983-2.211-3.838-.841-.488-2.104-.575-2.8-.158.21.047.4.096.59.128.122.021.247.023.37.026 1.478.034 2.675.865 3.213 2.233.383.974.422 1.981.28 3.004-.216 1.567-.45 3.133-.637 4.704-.038.322.103.666.16 1zm-20.06 4.13l-.022.224c.77.117 1.535.282 2.309.343 2.5.198 5.003.322 7.404-.639 1.31-.525 2.5-1.213 3.209-2.509.894-1.636.41-3.259-1.293-4.173.105.208.235.402.393.57 1.487 1.58 1.272 3.547-.565 4.74-1.346.873-2.815 1.517-4.434 1.558-1.75.044-3.504-.073-5.257-.112-.581-.013-1.162-.002-1.743-.002zM23.79 42.226c-.344-.092-.536-.196-.722-.185-1.915.107-3.82.32-5.481 1.387-1.417.91-2.795 1.88-4.181 2.836-.873.601-1.771 1.094-2.89.965-.172-.02-.357.054-.536.086.46.62 1.079.565 1.587.348.904-.385 1.81-.822 2.605-1.39 1.822-1.302 3.642-2.598 5.832-3.202 1.183-.326 2.397-.54 3.786-.845zM40.2 21.52c.563-.24 1.067-.64 1.564-.633 1.485.02 3.049-.104 4.232 1.13.12.126.408.27.505.213.537-.31.877.163 1.308.25.844.17 1.71.22 2.563.348.649.097 1.294.222 1.935.365.556.125 1.104.292 1.767.471-.195-.628-.402-.934-.958-.766-.49.15-.897-.002-1.311-.308-.25-.185-.631-.313-.934-.279-.933.103-1.701-.439-2.568-.573-.065-.009-.125-.078-.181-.126-.433-.38-.948-.457-1.464-.28-.487.164-.741-.028-1.086-.35-.396-.367-.918-.757-1.421-.81-.768-.084-1.568.1-2.351.196-.71.09-1.225.481-1.6 1.152zm-5.311 39.456c-.935.185-1.7.445-2.47.456-.663.008-1.398-.139-1.98-.449-.695-.368-1.584-.878-1.79-1.519-.213-.67-.71-.729-1.051-1.269-.147.588-.275 1.011-.355 1.443-.17.913.15 1.671.99 2.024.686.288 1.459.412 2.205.507 1.573.2 3-.238 4.45-1.193zm33.998-32.26c-.56 1.244-1.933 1.028-2.716.542-.172-.107-.226-.436-.505-.153-.201-.22-.401-.443-.602-.664.152-.116.293-.31.459-.335.543-.08 1.105-.054 1.64-.163.242-.047.437-.316.653-.485-.261-.274-.485-.61-.797-.798-.154-.09-.476.094-.715.175-.028.01.002.216-.022.221-.746.18-1.563.134-2.088-.335-.278-.248-.497-.406-.788-.368-.582.077-1.151.252-1.73.364-.188.037-.391.006-.574.006l.447 1.35-.566.141 1.103 1.218.089-1.635 1.02.141.068-.127c-.262-.186-.524-.372-.784-.559.547.016 1.388.044 1.489.331.205.588.579 1.398-.288 1.87.664.52 1.29.316 1.912.18.473-.106.926-.062 1.19.37.416.675 1.148.568 1.752.75.094.028.48-.399.443-.535-.218-.77.344-.875.94-1.078-.391-.16-.68-.282-1.03-.425zM35.66 46.91c.492.261.976.534 1.476.777.35.17.617.06.742-.327l.3-.01c.783.431 1.904.304 2.414-.28l-.553-.025c.167-.24.329-.483.5-.718.053-.07.132-.122.204-.175.464-.34.972-.635 1.385-1.03.553-.527.447-.873-.29-1.154.044-.345.165-.708.11-1.043-.07-.424-.203-.884-.454-1.22-.262-.352-.545-.656-.717-1.088-.233-.583-.605-1.11-.92-1.665.208-.377.422-.783.66-1.175.032-.05.192-.045.289-.033.359.047.716.14 1.075.15.22.005.558-.043.64-.185.12-.21.083-.524.069-.793-.006-.135-.105-.266-.163-.398.735.441 1.608.256 2.285.858.674.6.863 1.39 1.302 2.072l.15.698.155-.05-.278-.656c.438-.252.433.116.486.361.084.386.152.768.773.893-.274-.685-.368-1.398-.768-1.822-1.244-1.32-2.276-3.017-4.437-3.02-.157 0-.311-.15-.472-.213-1.494-.588-2.927-.609-4.323.332-.607.41-1.324.653-1.965 1.02-.33.19-.65.441-.888.735-.724.898-1.506 1.784-1.46 3.06 0 .06-.066.132-.12.182-.474.447-.34 1.008-.256 1.538.103.657.275 1.304.387 1.96.063.362-.022.767.108 1.096.693 1.754 2.179 2.627 3.873 3.055 1.218.31 2.518.342 3.786.402 1.139.052 2.283-.005 3.192-.89.18-.178.488-.225.733-.338.267-.125.555-.224.794-.392 1.746-1.23 2.216-3.01 2.089-5.017-.028-.439-.211-.867-.322-1.3-.122.26-.2.557-.167.842.138 1.23.319 2.456-.701 3.452-.081.08-.118.221-.14.34-.142.795-.773 1.096-1.396 1.42-.295.153-.567.354-.843.541-.476.321-.853.76-1.56.685-.508-.054-1.045.194-1.574.276-.337.052-.698.124-1.022.058-.986-.198-1.961-.459-2.94-.697-.071-.017-.14-.067-.21-.065-1 .035-1.124-.05-1.49-1.002l.463-.03zm15.504-7.895l-.083.468c-.094.07-.251.124-.271.211-.223.95 1.163 2.652 2.132 2.667.335.006.668.104 1.016.162l-.176.523c.323.098.78.35.88.248.48-.482 1.113-.448 1.67-.65a.42.42 0 00.215-.192c.157-.339.296-.686.438-1.025l-.433-1.476-1.074.777-.281-.535.332-.499c.769-.718.429-1.606.44-2.485.58-.294.774-1.34 1.789-1.044-.125-.71-.418-1.147-1.067-1.372-.326-.11-.621-.397-.854-.67-.554-.647-1.17-1.049-2.063-.805-.163.044-.348.006-.523.006 1.185-.705 2.418-.42 3.658-.294-.73-.228-1.466-.41-2.214-.496-1.448-.163-2.831.028-3.953 1.068-.717.666-1.392 1.38-2.08 2.08a1.317 1.317 0 00-.236.375c-.376.826-.73 1.662-1.121 2.48-.223.467-.132.874.108 1.436l.599-1.43.29.098-.208-.624c.543-.433.955-.33 1.237.281l.432-.736c.167.9.71 1.258 1.4 1.453zM27.479 26.042l.585-.358c.689-.249 1.382-.413 2.094-.09h-1.29c.28.151.54.28.805.284.156.002.316-.19.476-.295l.506-.416c-.447-.266-.83-.679-1.205-.672-.573.012-.831-.22-1.135-.62-.314-.41-.33-.629.188-.817.192-.07.365-.23.507-.387.204-.223.37-.48.529-.689-.581-.189-.57-.177-1.154.367-.13.121-.363.131-.703.243.275-.355.45-.519.549-.72.32-.664.965-1.078 1.682-.92 1.379.3 2.845.351 4.027 1.283.122.097.267.165.403.246l.1-.119c-.217-.203-.44-.4-.652-.609-1.31-1.284-2.926-1.33-4.575-1.054-1.017.172-2.017.47-3.004.775-.604.186-1.261.382-1.738.767-1.092.883-1.941 1.993-2.36 3.364-.55 1.805-.19 3.53.576 5.191.09.196.355.34.57.443.112.055.292-.026.44-.046-.032-.164-.008-.395-.11-.48-.27-.23-.4-.442-.43-.835-.032-.458-.31-.897-.481-1.345l-.141-.28c-.036-.17-.058-.343-.11-.507-.232-.756-.321-1.457.597-1.845a.37.37 0 00.197-.212c.197-.813.993-.839 1.573-1.21a5.924 5.924 0 01-.198 1.258c-.194.784-.177 1.52.61 1.967.273.153.685.252.96.16.387-.129.79-.397 1.028-.72.209-.286.198-.729.284-1.102zm11.32 27.718l1.1-.996-.09-.126-2.502 1.385.053.132c.479-.13.958-.26 1.436-.393-.667.3-1.31.682-2.007.88-1.668.471-3.36.857-5.043 1.276-.456.113-.911.308-1.37.315-1.356.024-2.73.091-4.068-.079-1.822-.229-3.628-.617-4.906-2.172-.985-1.197-1.202-2.629-1.406-4.085-.114-.819.157-1.496.59-2.165.744-1.152 1.773-1.999 2.842-2.812.159-.12.296-.272.442-.407l-.123-.202c-.22.084-.458.136-.656.255-1.31.787-2.246 1.937-2.998 3.23-.25.431-.458.997-.405 1.471.126 1.145.29 2.317.672 3.396.529 1.5 1.565 2.64 3.117 3.206 1.704.622 3.487.748 5.274.764 2.08.02 4.072-.54 6.068-1.053 1.03-.265 2.106-.413 3.084-.806 1.109-.445 2.267-.923 2.87-2.103l.234-.229c-.05-.035-.1-.069-.147-.104l-.182.268c-.626.384-1.252.77-1.88 1.154zm15.488 3.138l-1.3-.396-.052.22c.372.476.862.308 1.344.19l-.736.581-2.28-1.148a8.649 8.649 0 00-.07.17c.734.855 1.435 1.153 2.34.994-.512.36-.984.81-1.545 1.062-2.366 1.063-4.813 1.423-7.392.84-2.23-.504-4.36-1.158-6.066-2.78-.303-.289-.677-.504-1.02-.752l-.143.154c.5.527.924 1.181 1.522 1.552 1.044.647 2.153 1.25 3.314 1.632 1.26.415 2.608.565 3.919.82 1.027.197 2.022.215 3.08-.024 2.815-.635 5.055-2.093 6.829-4.325.187-.236.35-.489.525-.733l-.191-.147c-.318.36-.62.735-.958 1.075-.355.356-.745.678-1.12 1.015zm16.864-8.513c-.086-.268-.172-.535-.26-.803l-.251.105.402.837c-.001.447-.022.895-.001 1.341.07 1.46-.654 2.512-1.74 3.357-1.148.895-2.49 1.322-3.924 1.461-1.207.117-2.447.073-3.62.34-1.444.328-2.781.312-4.1-.38-.112-.058-.29.01-.437.02l-.04.171c.203.114.394.29.61.332.797.153 1.605.38 2.404.363a57.445 57.445 0 004.972-.346c.905-.099 1.832-.275 2.68-.597 2.979-1.133 4.263-3.057 3.305-6.2zm-41.77-3.753l.877.053c-.113-.714-.063-.778.51-.555.3.116.559.341.832.523.293.198.58.403.872.604-.126-.457-.307-.779-.477-1.109-.116-.224-.202-.465-.327-.685-.29-.51-.896-.919-.568-1.627.13-.28.35-.52.587-.857-.697.065-.982.443-1.15.961-.117.36-.176.756-.375 1.063-.115.18-.451.27-.695.283-.091.005-.247-.31-.288-.499-.044-.2.015-.424.037-.783-.841.431-1.602.818-2.427 1.24.39.28.736.53 1.088.772.054.038.162.07.203.042.646-.429.935.022 1.222.484l-.567.398c.124.074.272.233.367.206.22-.065.59-.128.28-.514zm46.205 3.674c.094-.175.188-.35.34-.638l-1.303.611.073.207.83-.117c-.137.172-.263.354-.413.514-.724.781-1.554 1.486-2.163 2.348-1.337 1.892-3.33 2.837-5.258 3.896-.08.043-.191.023-.287.04-.95.146-1.901.28-2.847.452-.155.028-.282.213-.53.41.269.027.385.045.502.05 1.773.063 3.346-.665 4.853-1.422 1.064-.535 2.01-1.36 2.898-2.176 1.203-1.106 2.29-2.334 3.445-3.494.505-.506 1.027-1.012 1.816-1.03l-.784.602-.705.543.15.184c.496-.393 1.242-.51 1.348-1.335-.071-.607-.576-.342-.897-.446.22-.164.44-.328.663-.492l-.106-.179c-.226.116-.457.226-.671.361-.017.011.077.2.12.305-.358.27-.715.537-1.074.806zm-58.1-16.899c-.154-.39-.401-.268-.641-.107-1.15.768-2.33 1.496-3.433 2.327-1.328 1-2.302 2.311-2.943 3.848-.537 1.285-.176 2.926.929 3.762-.128-.373-.164-.6-.275-.783-.46-.753-.477-1.549-.251-2.365.28-1.009.693-1.943 1.615-2.55l.248.705.193-.089c.089-.337.02-.59-.402-.654.144-.223.25-.49.44-.66a35.059 35.059 0 012.096-1.758c.782-.592 1.608-1.126 2.415-1.685.645-.252 1.385-.38 1.693-1.3-.196.15-.274.26-.366.272-.71.096-1.168.447-1.317 1.037zm-4.533 7.703c-.391.574-.823 1.123-1.167 1.724-.846 1.477-1.04 2.986-.073 4.503.134.211.232.537.576.267.004-.057.015-.086.005-.105-.106-.195-.224-.385-.324-.583-.574-1.156-.705-2.35-.063-3.499.358-.639.854-1.219 1.365-1.75 1.229-1.28 2.778-2.06 4.414-2.693.32-.124.618-.31.926-.466l-.09-.247c-.208.041-.424.061-.626.124a13.8 13.8 0 00-4.922 2.7c-.268-1.647.923-2.813 1.45-4.2-1 .973-1.71 2.081-1.842 3.482-.03.322-.104.671.37.743zm24.056-15.605l1.892-.357c-.356-.293-.59-.504-.846-.688-.08-.058-.214-.039-.323-.056l.014.334c-.952-.08-1.384.813-2.084 1.07.226.358-.05.515-.208.688-.713.77-1.696.69-2.612.82-1.092.156-1.706.561-1.428 2.16.186-.138.338-.304.44-.496.415-.775.9-.916 1.629-.473.247.15.516.263.755.382l.635-.525-.326-.239 1.666-1.767c.267-.283.53-.569.796-.853zm18.075 30.142c-1.25-.288-2.528-.49-3.742-.886-1.241-.405-2.421-.999-3.625-1.517-.34-.145-.673-.365-.994.105 2.266 1.272 4.61 2.301 7.202 2.636.372.048.778-.17 1.168-.267.447.305.782.037 1.132-.156l-.051-.227c-.363.104-.727.207-1.09.312zm-6.701-23.693l-.396.562-.198-.026c-.025-.58-.041-1.162-.078-1.74-.016-.248-.012-.536-.137-.727-.182-.277-1.438-.35-1.64-.103-.357.443.225.67.306 1.02.018.081.132.138.203.206l.307.582c-.015.51-.194 1.061.316 1.454.172.133.367.236.55.353a64.45 64.45 0 01-.11.634l.239.001-.051-.703c.084-.108.176-.314.25-.307.71.063.64-.36.538-.816l.046-.75-.17.011.025.35zM19.852 56.577c-.198-.163-.52-.294-.573-.496-.19-.703-.401-1.433-.385-2.148.015-.692.3-1.378.468-2.066l-.213-.056c-.228.893-.49 1.78-.675 2.681-.218 1.057.21 1.964 1.01 2.573 1.24.946 2.709 1.35 4.27 1.366-.815-.273-1.678-.428-2.462-.764-.53-.227-.952-.708-1.423-1.076.37-.096.422-.283.305-.658-.223-.719-.363-1.464-.528-2.2-.051-.224-.074-.454-.11-.68l-.181-.01c-.066.324-.141.647-.195.974-.157.956.214 1.773.692 2.56zm43.245 1.655l.007.008c-.61-.536-1.327-.443-2.044-.357-.981.117-1.962.224-2.94.362-.42.06-.831.184-1.363.306.193.107.255.172.314.17 2.02-.07 4.04-.146 6.062-.22l-.036-.269zM49.085 47.506l-1.212.054c.653.405.985 1.367 1.918.936l.545.793.348-.177.435-1.013c-.334-.11-.665-.23-1.002-.328-.342-.1-.691-.18-1.038-.27.19-.077.38-.152.572-.228-.02-.032-.04-.062-.057-.093l-.51.326zm15.8-23.71l1.33 1.668c-.104-.842-.657-1.305-1.337-1.66-2.077-2.15-6.141-2.928-7.874-1.434.35.01.713.01 1.033-.106 1.685-.61 3.298-.508 4.855.394.662.384 1.329.76 1.994 1.137zM48.633 27.68c-.276-.936-1.024-1.375-1.842-1.742.616.58 1.233 1.157 1.85 1.736.052.341.07.691.16 1.022.218.79.352 1.58.82 2.322.31.492.147 1.287.177 1.947.009.194-.053.391-.067.588-.013.166-.003.333-.003.5.454-.974.55-2.023.29-2.986-.318-1.168-.911-2.26-1.385-3.387zM10.18 42.584c-.771 2.301.257 4.203 1.69 4.186-1.345-1.002-1.58-2.339-1.588-3.764 0-.144-.072-.287-.11-.43l.39-.803-.22-.07-.162.881zm47.993 10.58c-.293-.324-.573-.662-.886-.967-.182-.178-.416-.306-.626-.457l-.147.202c.878 1.373 1.9 2.58 3.57 3.053-.71-.532-1.6-.869-1.908-1.829.312.274.622.551.94.817.316.265.652.417 1.09.134l-2.232-1.965.199 1.011zM52.81 43.18l-1.388-.885-.08.877h1.475c.295.503.062.845-.41 1.087l.493.14-.016.102-.631.078c.785.05 1.62.453 2.462-.4l-1.905-.999zm16.973-10.745l-.316 1.05.763-.639 1.572-1.038c-.191-.48-.281-.916-.96-.41-.413.308-1.042.334-1.06 1.037zM42.649 56.498l-.491-.3a7.958 7.958 0 01-.086.19c.158.064.315.13.47.194 1.57.915 3.45 1.223 4.049.76-.948-.219-1.976-.46-3.005-.689-.308-.068-.625-.104-.937-.155zM55.947 29.32c-.42-.002-.447.29-.502.644.127-.052.192-.08.257-.105.69-.245 1.13-.187 1.019.168l-.602-.029-.06.233c.247.084.497.251.738.24.659-.033.947-.38 1.18-1.374-.2.156-.321.245-.435.341-.12.1-.26.31-.345.29-.427-.105-.84-.27-1.258-.413.147-.04.295-.078.442-.116l-.014-.12h-.713l.293.241zm-9.16-9.6c-1.247-.847-2.93-1.077-3.508-.412 1.19.147 2.335.29 3.48.43.15.27.205.674.682.488.169.32.338.64.49.932 1.122-.564 1.7.287 2.488.901-.605-1.445-1.723-1.754-2.974-1.838l-.658-.5zm11.389 25.996c-.227.016-.504-.047-.672.06-.642.41-1.248.874-1.865 1.316.905.434 1.38-.82 2-.756.249-.294.39-.46.53-.628 1.176-.505.927-1.663 1.29-2.69-.26.216-.55.351-.544.473.034.845-.674 1.428-.74 2.225zm8.952.301l1.848 1.603c-.498-1.263-1.461-1.889-2.476-2.469l.616.856-.501-.097.113-.058 1.696 1.815-1.296-1.65zm-28.01 6.445c-.778.047-1.78.618-2.094 1.193l.09.153 2.096-1.256.439-.27c-.044-.06-.09-.12-.133-.18l-.398.36zm3.11-5.556l.66.324c.49-.154.49-.154 1.068-1.462l-1.721 1.147h-.565l.037.198.522-.207zm-19.526 4.021l.588-1.134-.252-.139-.976 1.58.154.098.479-.397-.46 1.613.197.067c.004-.853 1.013-1.228 1.046-2.218-.342.233-.56.381-.776.53zm50.037-1.017c.02-.917-.322-1.507-1.196-1.776.426.701.774 1.273 1.12 1.845.066.252.129.503.193.754l.265-.104-.382-.719zm4.47-13.708l-.164-.53-.233.102c.107.17.215.338.32.507l.794 2.558c-.055-.582-.075-1.257-.202-1.91-.052-.266-.336-.486-.515-.727zM46.552 55.396l.318.208.07-.144-.398-.054-2.122-.627a6.617 6.617 0 01-.05.202c.68.338 1.367.646 2.182.415zM34.47 53.61c-.626.105-1.24.244-1.761.645a4.735 4.735 0 001.519-.252c.11-.035.159-.262.237-.4l.569.172.013-.247zm23.718-19.78h-.376l-.031.131c.18.08.36.16.54.238.388.258.516.912 1.226.786-.325-.587-.636-1.109-1.36-1.155zM37.004 52.712c.67.101 1.448-.306 1.7-1.007l-1.691 1.015-.302.236.105.093.188-.337zm8.225-20.275l.108.36.227-.028-.074-.734c.016-.286.03-.573.045-.86l-.248-.126-.248.428-.338-.569-.257.153.502.721c-.06.284-.184.597.283.655zM20.766 48.253l-.465 2.123.187.031c.12-.468.268-.933.346-1.41.04-.24-.048-.5-.078-.753l.589-.509-.153-.126-.426.644zm23.39-19.974c-.15-.247-.302-.493-.454-.739.577-.725-.337-.656-.564-.983l.435-.056-.286-.882h1.166l.85.627.099-.15-.492-.538c.128-.08.255-.162.383-.243l1.187.297c-.104-.632-.58-.873-.97-1.174-1.193-.92-2.625-.933-4.03-1.03-.474-.032-.808.186-.805.758-.96-.342-1.806-.213-2.668.142-1.936.796-2.451 2.521-2.881 4.303-.026.11.227.285.35.43.388-.475.754-.1 1.134.02.086.026.203-.045.433-.103-.24-.187-.378-.308-.528-.408-.18-.118-.37-.219-.548-.32.218-1.154.499-1.266 1.34-.563l.73.46c.269.786.17 1.774 1.21 2.142.106.036.157.324.168.5.02.317.008.64-.022.956-.025.26-.096.515-.15.79.17.204.43.488.656.798.636.876 1.225.983 2.063.372l-.458-.366 1.848-.096-.01-.207h-1.311c.534-.46 1.13-.958 1.7-1.489.093-.087.097-.322.073-.477-.084-.539-.341-1.096-.26-1.603.072-.454-.298-1.022.252-1.385l.37.21c-.538.747.352.883.47 1.35l.243-.123-.722-1.22zM78.9 46.152c.046.17.09.337.137.505l.145-.072-.29-.424c.357-.794-.29-1.33-.406-2.002l-.196.053.61 1.94zM17.339 33.05c-.665.314-1.038.86-1.304 1.488l.147.111 1.149-1.606.346-.389-.187-.105-.15.501zm-1.35 8.04c.484-.239.996-.445 1.182-1.017-.54.177-1.065.37-1.172 1.028l-.59.403.127.142zm24.148 16.102c-.18-.496-.515-.71-1.108-.484l.946.641 1.522.855.1-.195-1.46-.817zM15.834 40.038c.553.194.872-.026.938-.81l-.93.817-.261.483.176.053c.025-.18.05-.36.077-.543zm.157-11.915a1.852 1.852 0 00-.505 1.448l.255.063.249-1.512.516-.459c-.052-.042-.102-.085-.153-.128-.12.197-.241.392-.362.588zm6.56 28.767l-1.14-.747-.154.31 1.29.441c.444.326.942.312 1.426.391l.045-.312c-.49-.029-.978-.056-1.466-.083zm46.507-9.989l.433.364.103-.22c-.181-.046-.362-.09-.543-.137.486-.43.253-.685-.215-.883-.054-.127-.084-.273-.166-.379-.257-.333-.533-.65-.803-.974.228.03.454.061.682.093l-.001-.197-.684.1-.526.61 1.15.864.57.76zm3.997-6.947l-.718-.603-.105.144.769.522 1.138.927.14-.193c-.41-.266-.816-.53-1.224-.797zm-9.452-3.647l.445.274c-.186-.497-.353-.984-.95-1.016-.103-.104-.226-.312-.305-.297-.806.155-1.197-.53-1.782-.82-.383-.189-.844-.222-1.27-.326l-.115.278c.374.243.74.5 1.125.724.628.366 1.435.418 1.898 1.076l.006.143c-.052.081-.17.19-.148.24.253.585.527 1.161.695 1.524l-.276 2.645c.24.013.49.07.723.03.462-.078.915-.209 1.37-.318l.14.248c-.688.935-1.38 1.87-2.168 2.937.342-.113.537-.21.74-.234.215-.024.447.065.658.026.144-.025.31-.157.388-.288.19-.325.65-.957.815-1.042.492-.256.524-.56.077-.99.496-.183 1.016-.4.995-1.005-.015-.473-.195-.94-.302-1.412.087-.07.239-.13.25-.213.094-.579-.521-1.309-1.288-1.464 0 .268-.02.518.006.763.024.218.166.44.139.644-.073.54.227.574.62.538-.816.384-1.503 1.114-2.564.952-.152-.35-.33-.67.2-.943.562-.29.422-.917.47-1.4.018-.18-.401-.399-.613-.608-.216-.213-.423-.436-.634-.654l.655-.012zm-4.4 21.194c-.483-.1-.483-.1-.691.417l.684-.402.099.47.669-.787-.11-.098-.65.4zm14.13-8.136c-.165-.464-.26-.983-.86-1.11l-.377-.739-.19.125.578.607.802 1.158.147.62.209-.084zm-37.966-.518a77.834 77.834 0 00-.373-.436l-.105.134.487.293c.36.347.768.556 1.239.584l.057-.16-1.305-.415zm-1.202-16.113l.528.255.56.334-.42.76-.163.44 2.113-1.479-1.28.472-.032-.31c-.02-.409-.294-.445-.611-.419.159-.278.14-.432-.236-.342l-.323-.314.018-.435.737-.36-.077-.17-.36-.059c-.065-.18-.077-.426-.204-.532-.795-.652-1.51-1.412-2.651-1.527-.614-.063-1.202-.39-1.802-.6 1.08-.299 2.026-.177 2.953.352.812.463 1.709.733 2.506 1.29.94.656 1.54 1.465 1.868 2.513.255.811.454 1.641.678 2.462l.187-.043c-.147-.895-.214-1.813-.462-2.679-.403-1.41-1.221-2.54-2.624-3.138-.862-.366-1.745-.683-2.602-1.058-1.68-.733-4.014-.883-5.51.728-.244.264-.602.42-.902.633-.498.356-1.02.686-1.482 1.085-.882.761-.98 1.915-1.39 2.915-.743 1.818-.153 3.433.698 5.025.695 1.3 2.07 1.651 3.256 2.063 1.45.505 3.049.625 4.676.004-.47-.149-.462-.114-1.233.053-.311.068-.671-.029-.997-.102-.995-.225-1.99-.393-2.943-.858-.455-.22-.904-.407-1.29-.746-.913-.8-1.493-1.842-2.066-2.886-.073-.134.013-.356.028-.56.477.435.995.757 1.3 1.22.436.655.554 1.55 1.55 1.697.154.022.28.196.429.278.12.067.259.14.39.142.412.01.823-.012 1.234-.023.618.86 1.4.121 2.224.293-.075-.295-.071-.529-.182-.678-.318-.427-1.545-.497-2.036-.149-.798-.319-1.44-.839-2.094-1.395-.372-.317-.29-.438-.151-.718l.139.021.318-.697c.349.183.68.305.95.508.925.692 1.89 1.12 3.073.722.224-.075.509-.115.725-.043.643.213.84-.112.908-.656l.299-.367c-.064-.026-.126-.05-.19-.078l-.101.452-1.034-.882-.091.627-.51-.632 1.234-1.685-1.464-.643c.816-.318 1.088-.894.842-1.519-.251-.637-.73-1.178-1.578-1.076.46-.224.922-.447 1.365-.66.249.03.627-.039.78.115.464.471 1.04.973 1.2 1.565.198.731.572.902 1.188.933.045.187.09.374.137.561zm24.159 15.813l-.596-.452-.102.208.705.236.647.656.173-.225c-.276-.14-.551-.282-.827-.423zm-32.865 6.74l-.224-.63 1.188-.807c-1.308.17-2.287.778-2.38 1.455l1.185-.645-.082.478.486.695c.117-.106.234-.214.353-.32l-.526-.226zm-2.14-.83l.215.502c.059-.027.119-.055.177-.08l-.278-.517c-.03-.28-.06-.56-.088-.84l-.193.033c.055.301.112.601.168.902zm53.504-9.33l-.421.813-1.503 1.132c.657-.172 1.262-.41 1.523-1.103l.52-.727.298-.493-.193-.1c-.074.16-.15.318-.224.477zm.588-3.134l-.674.351.183.235.482-.594.32-.834-.204-.054-.107.896zm-60.54 7.881l.676.14.049-.118-.712-.429-.021.392c-.247-.098-.493-.197-.74-.294-.015.08-.032.16-.05.24zm49.205-1.307l-.823.155c.026.077.05.155.075.233l.745-.269.809-.447-.096-.144-.71.472zm-31.46-24.965c.195-.085.608.07.445-.407 1.256-.955 2.75-1.156 4.265-1.31-1.084.004-2.16.013-3.205.198-1.148.205-1.566.375-1.772 1.452l-.255.33.083.073.439-.336zm5.555 27.765c.185.105.37.21.555.313.176.133.334.301.529.393 3.78 1.78 7.724 2.945 11.93 3.026.732.013 1.517.111 2.207-.38a.968.968 0 00-.506-.188c-1.281-.053-2.578.01-3.843-.167-1.906-.265-3.821-.584-5.675-1.09-1.54-.424-2.993-1.153-4.485-1.746a70.478 70.478 0 00-.47-.257l-.473-.19-.061.14zm17.257-24.03a2.712 2.712 0 00-.1-.082l-.054-.18c.089-.025.178-.049.38-.1a622.19 622.19 0 00-1.41-1.189l.088-.133.646.204c.16-.268-.835-.438.009-.72.145.221.258.476.442.661.584.59 1.194 1.154 1.794 1.727 1.27 1.883.699 3.88.373 5.875.473-.963.703-1.977.779-3.035.082-1.138-.011-2.2-1.16-2.832-.128-.236-.208-.52-.391-.7-.594-.585-1.227-1.13-1.845-1.69-1.887-1.557-5.011-1.854-7.085-.694-.273.154-.598.22-.905.301-.635.17-1.085.522-1.331 1.354.767-.258 1.36-.147 1.829.4.216.251.505.442.707.704.449.587.68 1.338 1.34 1.767.059.091.118.184.175.277.085-.11.178-.218.244-.339.007-.013-.133-.107-.205-.165v-.554c.776.192.618.922.927 1.272-.168.444-1.185.351-.698 1.046.41-.028.726-.048 1.15-.075l-.295-.208c.288-.228.568-.467.867-.678.258-.18.668-.267.78-.504.204-.436.202-.962.354-1.428.098-.296.319-.55.52-.884l-.168-.764 2.1 1.115c-.532-.269-.928.082-1.354.297a81.9 81.9 0 01.233-.397l-.183-.056c-.014.15-.028.298-.04.446.384.463.546.945.088 1.5.522-.167 1.16-.12 1.1-.902h.168l.574.242.127-.223c-.201-.155-.402-.31-.603-.467l.033-.19zm-23.885-9.298c.915-.717 2.027-.825 3.092-.766 1.573.086 3.188.111 4.677.715 1.1.45 2.009.553 3.135-.155.707-.444 1.832-.375 2.75-.305 2.175.165 4.352.406 6.383 1.31.156.07.333.115.503.121 1.083.04 2.003.495 2.899 1.06a16.8 16.8 0 001.952 1.06 2.93 2.93 0 001.207.265c1.103-.013 2.123.238 3.033.85.864.58 1.696 1.208 2.54 1.82.1.071.226.14.277.243.655 1.288 1.903 1.29 3.087 1.47.609.093 1.21.266 1.797.461 1.15.381 2.286.801 3.426 1.21.163.06.363.104.462.225.14.17.33.466.267.597-.09.187-.39.383-.6.381-.322-.003-.643-.178-.97-.263-.422-.109-.848-.202-1.273-.303-.961-.844-2.163-.98-3.39-1.087.154.158.325.31.524.375a62.56 62.56 0 002.245.692c.2.058.416.064.625.094.138.13.255.328.419.38 1.564.507 2.64 1.537 3.352 3.191l.082-.697.165-.176c.273.612.128 1.44.919 1.784-.022.1-.094.226-.057.295.164.305.359.595.542.891l.366.876.148-.466.394.17a43.436 43.436 0 00-.112-.443l.566.048c.735.871.627 1.952.652 2.98.044 1.72.013 3.442.013 5.295-.306-.397-.525-.68-.743-.965.079.843.97 1.414.714 2.365l-.782-1.659a6.528 6.528 0 00-.172.078c.038 1.092.98 1.937.872 3.074l-.877-1.925-.21.087c.369.841.743 1.68 1.099 2.523a.764.764 0 01.04.455c-.526 2.078-1.68 3.57-3.861 4.087-.036.01-.063.06-.1.094 2.176.194 3.272-1.057 3.905-2.95.252 1.328.01 2.547-.47 3.733l-.006.005-1.303 1.2.077.081.337-.118c.14.014.282.03.422.042-.29.14-.58.277-.868.415l-.777-.05-.001.187h.63c-.246.067-.495.123-.737.204-.212.073-.414.172-.62.26-.307.492-.018.396.302.291l-.312-.296h.838l-.35.653c-.337-.02-.673-.043-1.01-.066a5.833 5.833 0 00-.006.132l1.139.151-.88.356c.143.06.266.11.494.203l-.562.127.47.271-.03.08c-.436-.055-.873-.113-1.311-.166-.095-.01-.212-.043-.288-.003-.693.36-1.38.732-2.066 1.101l-1.641-.338-.03.256 1.677.071c-.246.446-.627.257-.99.23-.64-.053-1.291-.55-1.914-.022-.208.176-.455.488-.435.716.049.555-.196.64-.652.671-.42.028-.831.16-1.247.242-.085.017-.177.036-.263.026-.706-.088-1.41-.194-2.116-.27-.156-.018-.39 0-.47.1-1.14 1.37-2.714 1.726-4.367 1.911-.072.01-.141.041-.246.073l-.14.61-1.946.59v.391l-2.684.597.57-.487h-1.74l.008.008c.096-.13.192-.263.309-.42l-1.131-.126a1.936 1.936 0 00-.036.098c.144.068.289.136.61.29h-1.102l.008.01c-.971-.404-1.902-.025-2.844.144l.01-.01-1.826-.119-.005-.21 4.27-.282-.003-.21c-.58.048-1.16.107-1.742.142-.365.021-.736.045-1.095-.002-.731-.095-1.456-.33-2.173.054-.04.023-.112.037-.145.016-.788-.512-1.651.02-2.46-.183-.07-.017-.131-.065-.197-.099h.917c0-.046 0-.09.002-.136a777.34 777.34 0 00-1.51-.19 4.845 4.845 0 00-.007.123l.613.212-1.515-.006-.256-.007c-.387-.05-.773-.118-1.163-.145a3.013 3.013 0 00-1.101.107l1.625.24h-3.857l-.001-.164.96-.06-.673-.272h1.269l-.007-.149-1.253.16c-.421.088-.876.102-1.257.278-1.103.51-2.18 1.077-3.262 1.631-1.774.908-3.65.986-5.512.475-1.721-.47-2.572-1.515-2.19-3.849l-.78-.245.01-.188.872-.126-.705-.369c.272.014.545.026.942.047-.454-.337-.454-.337-.94-.042-1.45 1.015-2.962.718-4.466.175-.463-.168-.668-.004-.991.318-.458.458-1.05.794-1.621 1.117-.141.08-.425-.094-.643-.153.11-.189.179-.433.338-.56.489-.389 1.014-.735 1.6-1.152-.991-.809-1.797-1.588-1.745-2.743.046-1.022.332-2.03.513-3.058-1.06-.858-2.38-1.174-3.785-1.315-.024.863.178 1.675 1.01 2.238.277.19.64.393.318.825-.296.396-.624.168-.924.01-1.147-.612-1.476-1.683-1.547-2.87-.032-.548-.096-1.015-.455-1.505-.343-.469-.405-1.144-.615-1.806-.383.127-.742.285-1.117.362-.385.08-.805.17-1.171.086-.271-.06-.481-.39-.72-.6.204-.173.4-.357.616-.512.088-.063.223-.064.322-.089.007-.069.02-.105.01-.117-1.238-1.346-1.047-2.91-.661-4.49.146-.599.21-1.076-.283-1.617-.565-.62-.503-1.492-.38-2.283.194-1.246.845-2.25 1.79-3.073-.177.316-.322.657-.541.94-.591.768-.97 1.622-1.037 2.587-.051.743.102 1.44.808 1.96-.941-2.228-.086-4.038 1.393-5.844l-.611.346c.34-.617.31-1.262.323-1.958.055-3.133 1.495-5.6 3.954-7.49.485-.373.94-.225 1.062.245.112.437-.24.542-.483.724-2.026 1.512-3.296 3.472-3.58 6.018a.733.733 0 00.05.356c.419-1.234 1.216-2.135 2.255-2.868.227-.159.4-.503.45-.788.223-1.254.803-2.22 1.894-2.937.398-.26.608-.817.89-1.248 1.295-1.979 3.149-3.089 5.44-3.537 1.283-.25 2.568-.496 3.847-.77a88.301 88.301 0 003.38-.807c.194-.05.353-.245.523-.38.398-.319.794-.64 1.19-.963-.048.182-.097.364-.17.628l.912-.534-1.145 1.318c1.827-.999 3.578-2.109 5.746-2.189-1.167-.146-2.293-.138-3.363.372-.378.181-.783.301-1.176.45.798-.739 1.78-1.039 2.827-1.09 1.054-.052 2.112-.01 3.167-.01-1.861-.28-3.718-.433-5.535.233z"/><path d="M41.825 14.87l.088-.175c-.04-.018-.084-.06-.116-.052-.054.013-.1.059-.148.09l.176.137zm-21.546-.618l-.064.142.387.15.043-.096zm22.63.376a4.375 4.375 0 00-.01-.164l-.447.037.007.127zm17.83-6.681c.019.036.036.073.054.11.186-.12.373-.238.56-.357l-.051-.08c-.188.109-.374.219-.562.327zm-44.286 5.28l-.045.125.656.224.035-.101-.646-.247zm51.874-10.48l-.161-.213-.693.623.122.11.732-.52zM62.9 6.617c.052.068.103.138.153.207.602-.48 1.204-.96 1.805-1.437l-.07-.097L62.9 6.617zm-24.906 8.545l.025.17 3.044-.391a6.415 6.415 0 01-.028-.2l-3.041.42zm17.864-4.724l.063.18c.724.106 1.659-.312 1.975-1.046l-2.038.866zM29.394 15.67l.03-.281c-1.856-.144-3.66-.785-5.557-.546l-.024.229zM9.489 10.279l-.06.197c1.983 1 3.962 2.008 6.176 2.39a192.936 192.936 0 00-4.775-2.177c-.426-.185-.893-.276-1.341-.41zm24.519 5.199l-.731-.247-.045.239h.785c-.005.083-.012.165-.018.248l3.219-.25-.032-.336-3.178.346zm17.298-2.833c-.441-.422-.74-.09-1.044.2l-1.003.128c.025.093.049.187.075.28l.924-.385 1.04-.231.829-.12c-.276.014-.701-.52-.821.128zM.173 4.517c.299.23.457.368.63.48.552.355 1.126.678 1.66 1.056.6.423 1.17.892 1.749 1.347.797.625 1.642 1.156 2.67 1.359L4.045 6.878l.119-.21c.213.118.435.222.638.354 4.564 2.993 9.466 5.235 14.77 6.534a42.651 42.651 0 008.392 1.173c.52.022 1.04.077 1.56.097 3.797.148 7.588.148 11.357-.435 1.079-.167 2.155-.35 3.233-.52a.676.676 0 01.417.07l-.908.315c.225.093.4.24.55.218.996-.156 2.028-.228 2.964-.563.878-.313 1.623-.984 2.48-1.375.9-.41 1.877-.646 2.803-1.002 5.036-1.937 9.783-4.394 13.922-7.904.944-.8 1.783-1.725 2.66-2.601.173-.172.303-.387.544-.698.17.993-.005 1.608-.583 2.24C66.703 5.038 64 6.918 61.15 8.599c-3.085 1.82-6.324 3.349-9.733 4.453-4.33 1.4-8.751 2.47-13.31 2.74-2.967.175-5.956.288-8.921.14-7.121-.355-13.924-2.025-20.271-5.38-2.66-1.406-5.29-2.85-7.61-4.788-.341-.286-.662-.6-.986-.907-.042-.04-.052-.114-.147-.34z" mask="url(#a)" transform="translate(10 54.237)"/><path d="M52.784 6.05c-1.232-.454-2.454-.94-3.7-1.355-4.458-1.484-8.995-2.668-13.686-3.103-2.737-.254-5.494-.455-8.24-.42-2.447.03-4.894.39-7.335.65-3.91.42-7.564 1.79-11.26 3.034C5.73 5.811 3.026 7.032.399 8.444L.297 8.33c1.397-.744 2.755-1.582 4.202-2.215a72.151 72.151 0 0111.7-3.942c2.845-.699 5.753-1.054 8.686-1.256 3.829-.263 7.64-.204 11.44.302 1.57.21 3.147.477 4.674.894 3.205.874 6.385 1.843 9.559 2.822.797.245 1.539.673 2.305 1.016z" mask="url(#b)" transform="translate(14 11.237)"/><path d="M66.863 17.188c.167.045.343.068.498.138 4.227 1.87 8.153 4.209 11.533 7.397.252.237.478.505.704.767.041.047.033.136.065.296-.148-.054-.268-.063-.329-.127-3.424-3.571-7.57-6.063-12.034-8.081-.179-.081-.345-.193-.516-.29zM6.776 39.868v-2.796l.084-.001v2.796h-.084m62.041-18.812l-1.372-.77.106-.187 1.355.786c-.029.057-.06.113-.089.171M47.141 61.663l-1.959-.121.036-.261 1.917.389zm-6.157-46.249h-1.399v-.054h1.414l-.015.054m35.225 15.393l-.165.177c-.154-.256-.31-.51-.463-.767l.198-.125.43.715M7.471 38.963l-.073-.76.155-.01v.806l-.082-.036m40.401-22.647h-1.16v-.081h1.146l.014.081M66.25 21.4l-.77-.377c.032-.057.06-.112.09-.17l.788.435-.108.113m2.26.027l-.878-.45.059-.134.893.41-.074.174m-25.807 39.33l.256.007 1.05.24-.034.132-1.272-.379m5.212 1.842h.992c0 .018.002.035.003.053h-.993l-.002-.054m-6.565-1.23c-.252-.021-.503-.043-.755-.063l.02-.168.748.106-.013.125m19.84-1.225l-.844.156-.023-.122.857-.179.01.145m-14.445 1.844h.789l.006.06h-.804l.009-.06m23.362-4.604c-.15-.032-.302-.063-.452-.096l.022-.174.463.031-.033.24M37.343 16.384h.862l.002.064h-.862c0-.02 0-.043-.002-.064m2.224 44.968h-.904a2.41 2.41 0 01-.002-.085h.904l.002.085m-1.729-46.976h-.84l.005-.075h.899l-.064.075m10.054 2.451h.858l.003.059h-.859l-.002-.06m22.841 39.75l.666.176-.04.168a81.725 81.725 0 00-.67-.165l.044-.18m-5.556-36.487l.581.315-.052.108a368.4 368.4 0 01-.607-.26c.025-.055.052-.109.078-.163m9.349 5.547c.104.12.198.181.194.235-.005.077-.082.15-.129.224-.064-.057-.158-.104-.18-.173-.02-.055.051-.139.115-.286M13.379 60.613l-.612-.441.097-.151.649.418-.134.174m37.041 1.391h.755l.006.05h-.757l-.004-.05m-2.057.128h.696l.004.078h-.698a1.98 1.98 0 01-.002-.078"/><path d="M66.25 21.4l.108-.112.299.433c-.195-.03-.315-.014-.383-.067-.045-.036-.018-.166-.024-.253M44.165 65.052h-.508l-.005-.062.495-.033.018.095M7.497 40.34l.036-.595.077.003v.613l-.113-.02m45.32 21.478l1.193-.15-.006-.007-1.194.147zm-2.992-.153h.644l-.032.192-.602-.202zm-2.69.004h.9l-.02.168-.874-.176zm5.525-.159l-.863.203-.032-.193h.904zm-.841-44.224l.555-.03.008.097-.532.05a5.052 5.052 0 00-.031-.117m-7.361 44.066l-.595-.027.003-.076h.612l-.02.103m22.016-37.722l.404.046-.009.11-.407-.022.012-.134"/><path d="M49.083 3.966h.607v-.07h-.607zM35.218 3.46h.598v.044h-.6l.001-.043m10.92 46.735h-.627l-.008-.076h.651l-.016.076m17.746-1.725l.344.105a3.788 3.788 0 01-.02.113l-.353-.027.029-.19m6.205-38.22l.249.501c-.246-.164-.345-.23-.443-.297l.194-.204M45.486 50.859h.477l-.002.052h-.477l.002-.052m7.324-.049l-.73.178a61.885 61.885 0 00-.028-.169h.765zM39.41 3.899h.473v.061h-.462l-.01-.061M49.787 4.93h.482v.078h-.481l-.001-.079m18.138 3.878c.107.053.214.105.32.16l-.055.112-.32-.16.055-.112M65.096 7.8l.37.212-.058.1a35.188 35.188 0 00-.368-.217l.056-.096M49.985 6.06h-.522l.001-.08h.522l-.001.08m-.737-.603h-.47l-.003-.06h.47l.003.06M44.46 14.47c-.68-.118-1.048-.637-1.385-1.123l2.104.674.114-.176v.47l-.383.243-.45-.089m-9.836 6.977l-.46.289-.137-.561c.092-.014.183-.03.274-.042l.323.314m20.573 7.749c-.228-.266-.265-.52.081-.707.035-.02.165.135.251.208l-.332.499m7.896-4.507l.51.619-.656.013-.292.023a6.746 6.746 0 01-.007-.142zM38.056 35.91l.122.44-.3.012c-.464-.085-.174-.38-.168-.596l.346.145m-.749-19.243l.73.46zm-14.629.866v.278l-.177.024.036-.583zm3.296 7.635l-.177-.854a2.15 2.15 0 01.066-.07l.251.945-.14-.021m31.322-8.544v.35h-.166l.003-.446-.008-.007.17.103m.132-.288a6.39 6.39 0 00-.148.04l.007.008c-.017-.052-.036-.102-.054-.152a.623.623 0 01.095.022c.035.026.068.054.1.081" mask="url(#c)" transform="translate(0 11)"/><path d="M38.08 34.459l-.04.168.476.13.044-.19-.48-.109m-.023 1.452a32.018 32.018 0 00-.346-.144l-.156-.135c.085-.016.17-.03.254-.047.037-.19.123-.388.098-.57-.042-.319-.672-.602-.035-.95a39.349 39.349 0 01-.221-.253c.745-1.392 1.908-2.354 2.689-3.642l.284.158c.009.526.154 1.058-.182 1.564-.068.101-.245.232-.222.278.37.77-.212.998-.688 1.348-.355.261-.326.638.05.927.106.081.222.15.306.37l-.891.042.769.595c-.621.176-1.02.81-1.71.46m-2.386-.007c-.29-.18-.578-.36-.872-.532-.065-.038-.19-.015-.225-.064-.767-1.08-1.55-2.194-1.565-3.553-.008-.661.416-1.326.705-1.97.05.493.26.91.032 1.467-.146.358.329.975.533 1.474.184.449.355.905.576 1.335.19.372.4.749.677 1.056.243.268.265.5.129.795zm-.228-8.162l1.066-.483.324 1.222h-.246l-.167 1.762c-.41-.47-.794-.756-.947-1.135-.14-.346-.03-.795-.03-1.366" mask="url(#c)" transform="translate(0 11)"/><path d="M37.808 35.584l-.254.047c-.82-.394-1.572-.878-1.98-1.732-.098-.205-.064-.472-.09-.71l.331.181c.205.163.426.309.61.49.246.244.476.507.692.78.243.304.462.63.691.944m1.852-5.952l-.99-.936c.733-.25 1.025-.003.99.936m-5.38 1.676l1.113-1.113.146.143c-.142.596-.574.908-1.102 1.125-.053-.05-.105-.103-.157-.155" mask="url(#c)" transform="translate(0 11)"/><path d="M35.815 33.37l-.33-.181c-.34-.211-.707-.413-.326-.933.426.26.718.577.656 1.115m3.653-6.601l.674-.528c.124.575.088.608-.674.528m-5.018 1.937l-.543.468-.147-.158.513-.483.178.173m3.322-1.904l.513-.102.038.17-.513.114zm4.161-.423c-.17-.056-.34-.109-.49-.157l-.01-.126.547.124zm-16.692-3.286c-.053-.199-.255-.456.179-.47l.207.263-.001-.337c-.051-.166-.053-.38-.161-.489-.752-.754-.251-1.44-.031-1.957l2.236-.725c-.133.33-.158.606-.28.658-.636.273-.566.806-.59 1.334-.017.381.003.836-.628.802.17.443.432.868-.227 1.117-.132.05-.164.364-.241.556-.154-.25-.31-.5-.463-.752" mask="url(#c)" transform="translate(0 11)"/><path d="M25.242 23.094l.463.752.158.4c-.022.022-.044.044-.065.068-.258.327-.495.167-.71-.045-.183-.183-.342-.392-.556-.64.124-.26.079-.783.71-.535m3.706-5.148l.218.58c-.075.04-.123.088-.153.079-.383-.122-.315-.32-.065-.66m5.68 2.155l-.3.605c-.372-.435.066-.469.3-.605m5.228-3.153l1.861.593c-.808.147-1.403-.066-1.86-.593m.633-2.229l1.41.216-.033.211-1.418-.23.042-.197m-1.986.632c-.097.492-.42.284-.75.272.109-.495.456-.409.745-.426l.005.154" mask="url(#c)" transform="translate(0 11)"/><path d="M38.505 15.35l-.005-.154.949-.066c.004.074.008.147.01.22zm12.654 13.191l.838-.25c.017-.406-.236-.528-.567-.579.49-.203.41-.655.48-1.055.043-.244.162-.473.246-.71l.167.06-.204.938 1.205-.803.593 1.176-.302-.113c-.32.632-.557 1.33-.992 1.868-.217.267-.794.28-1.214.304-.067.003-.166-.544-.25-.836m-.004-5.663h1.558c-.515.388-.94.827-1.558 0m2.465 1.787h1.37l.007.11h-1.394l.018-.11m-3.372 1.241l.934-.376.076.18-.925.398zm5.155-2.237l-.516-.164.033-.145.544.15-.061.158m-4.449.044l.442-.088.027.124-.445.083-.024-.119m-23.068-9.428l-.426.219c-.134-.47-.709-.918-.047-1.412.402.292.72.628.473 1.193m-1.943-3.077c-.161.77-.65.823-1.18.986.083-.775.777-.55 1.18-.986m-.21 1.356l1.577-.989c.08.427-.422.796-1.577.989m-.242 1.778c.245.16.542.278.715.496.089.113-.043.4-.164.62-.184-.384-.043-.946-.771-.889l.22-.227m23.65.405c-.219-.466-.16-.788.29-.912a36.834 36.834 0 012.487-.612c.145-.03.341.2.635.389l-1.71.809.204.326zm5.114.666c-.281-.057-.562-.112-.844-.17l.037-.188.842.174-.035.184m8.398.628h.607v-.075h-.607zM47.18 19.289l-.148-.352.103-.055.171.328-.127.079m-5.077-8.176h-.25v-.171l.25.013zm20.994 36.12l-1.178.148a18.755 18.755 0 00-.008-.237l1.193.097zm-5.817-30.856l.006.15a.619.619 0 01.011.046l-.171-.05.008.006-.001-.176.155.032zM6.298 42.775c-3.23-3.06-5.241-6.462-5.978-10.117-.587-2.925-.365-6.012.665-9.176 1.746-5.37 5.268-9.157 5.303-9.195l.326.306c-.035.037-3.496 3.762-5.21 9.04-1 3.09-1.216 6.099-.642 8.946.719 3.559 2.684 6.88 5.844 9.873zm72.806 1.729l-.27-.355c.082-.064 8.271-6.405 8.48-14.944.122-5.002-2.483-9.787-7.744-14.222l.288-.34c5.371 4.526 8.03 9.43 7.903 14.576-.217 8.755-8.572 15.221-8.657 15.285" mask="url(#c)" transform="translate(0 11)"/></g></svg>