<svg height="132" width="131" xmlns="http://www.w3.org/2000/svg"><g fill="none" fill-rule="evenodd"><g fill="red"><path d="M45.421 71.896v2.236c0 .9.491 1.323 1.282 1.337.818.013.995.013.995.545v1.5c0 .627-.245.873-.859.873-.518 0-.995-.178-1.377-.491h-.055v1.554c.328.136.832.232 1.296.273v.79h1.214v-.831c.804-.191 1.254-.723 1.254-1.76v-2.481c0-.886-.478-1.322-1.268-1.322-.832-.028-1.009-.028-1.009-.546V72.25c0-.585.218-.804.804-.804.518 0 .955.219 1.268.532h.055V70.41c-.259-.11-.627-.191-.996-.245v-.818h-1.213v.818c-.9.122-1.391.613-1.391 1.73M58.94 84.488v-6.23c0-2.06-.962-2.756-2.753-2.756h-1.58v-3.744h3.906v-2.647h-6.606v9.012h3.102c.882 0 1.23.241 1.23 1.15v4.547c0 1.043-.641 1.47-1.657 1.47-.99 0-1.927-.374-2.569-.989h-.106v2.968a8.613 8.613 0 003.102.562c2.38 0 3.931-.909 3.931-3.343m3.958-11.954c0-.775.294-.99 1.043-.99s1.043.215 1.043.99v11.74c0 .749-.293.99-1.042.99-.776 0-1.044-.241-1.044-.99zm1.043 15.298c2.3 0 3.851-.615 3.851-3.05V72.027c0-2.434-1.55-3.075-3.85-3.075s-3.851.64-3.851 3.075v12.757c0 2.434 1.55 3.049 3.85 3.049zm7.944-15.298c0-.775.294-.99 1.043-.99s1.043.215 1.043.99v11.74c0 .749-.294.99-1.043.99-.775 0-1.043-.241-1.043-.99zm1.043 15.298c2.3 0 3.852-.615 3.852-3.05V72.027c0-2.434-1.552-3.075-3.852-3.075s-3.851.64-3.851 3.075v12.757c0 2.434 1.55 3.049 3.85 3.049z"/><path d="M36.65 60.758c.898-.194 1.826-.395 2.751-.569.988-.186 1.757-.411 2.438-.718l-.037.213c-.079.449-.16.913-.206 1.376-.102 1.022-.185 2.063-.266 3.07l-.09 1.13c-.042.491-.08.982-.12 1.473-.06.736-.12 1.472-.182 2.208l-.178 2.045a315.4 315.4 0 00-.314 3.73c-.102 1.327-.195 2.678-.286 3.984-.069 1.001-.14 2.036-.215 3.054-.065.886-.144 1.788-.219 2.66l-.019.22a74.305 74.305 0 01-.3-1.259c-.4-1.757-.724-3.677-1.02-6.042-.133-1.059-.25-2.138-.364-3.18-.092-.835-.186-1.698-.287-2.546l-.112-.952c-.278-2.372-.566-4.823-1.15-7.194a37.3 37.3 0 00-.525-1.849l-.199-.662.9-.193zm13.264-6.262a5.37 5.37 0 01.255-.005l.225.002h.03c.001.155.005.33.038.5.11.568.234 1.212.402 1.83.281 1.03.211 2.085.122 2.994-.013.135-.023.272-.034.415l-.003.031-.276.046c-.409.068-.649.354-.61.727.058.561.43.65.645.651.03 0 .061.004.094.01v1.336a1.22 1.22 0 01-.058.014c-.163.04-.318.077-.472.123a.691.691 0 00-.48.851c.122.503.49.522.756.492.09-.01.181-.017.276-.023l.015.1c.036.23.07.446.126.666.073.28.178.644.338.984.348.736 1.255 1.126 2.021.87.213-.07.354-.273.406-.358.355-.59.583-1.281.694-2.115.02-.146.023-.15.191-.164.335-.03.598-.182.723-.416.115-.216.102-.473-.036-.724a.774.774 0 00-.725-.422h-.006v-1c.196-.072.446-.223.516-.576.09-.454-.058-.744-.48-.938a.225.225 0 01-.059-.05l-.006-.251c-.03-1.077-.06-2.191.245-3.24.11-.38.281-.757.447-1.123.053-.118.107-.236.158-.354.122-.278.252-.551.39-.84.04-.083.078-.167.12-.251l.135.018.685.09c2.266.3 4.55.254 6.512.187l2.473-.085c2.008-.07 4.086-.142 6.128-.205.316-.01.643.004.96.017.197.008.401.017.605.02.027 0 .04.004.041.003.002.003.015.018.033.067.153.4.316.804.473 1.194.09.223.18.445.268.668.32.805.304 1.643.248 2.356-.02.244-.046.492-.072.732-.027.256-.055.52-.075.782-.005.056-.014.077-.013.079a.217.217 0 01-.084.013c-.223.01-.44.046-.65.082l-.088.015c-.374.062-.598.323-.584.683.015.39.246.644.62.68.176.017.352.044.538.073.016 0 .032.004.047.006l-.013.22c-.025.46-.049.895-.084 1.333a.14.14 0 01-.024.022 2.027 2.027 0 01-.272.059 2.71 2.71 0 00-.279.057.715.715 0 00-.522.833c.054.27.233.582.773.528.134-.013.267-.024.406-.036l.022.113c.044.23.086.447.147.667.21.763.605 1.259 1.208 1.512.403.17.622.11.9-.244.05-.062.113-.12.182-.182.064-.06.13-.12.191-.19.403-.456.562-1.015.665-1.502.01-.043.018-.086.027-.13l.041-.006c.144-.02.294-.041.44-.068.394-.074.648-.371.633-.74-.018-.418-.345-.767-.744-.792a2.723 2.723 0 00-.202-.004v-1.414c.36-.071.812-.23.775-.847-.035-.586-.483-.718-.839-.768-.289-1.72-.08-3.488.67-5.685.864.079 1.774.184 2.657.433.737.208 1.51.472 2.164.993.537.427.953 1.006 1.272 1.77.61 1.46.94 3.134 1.037 5.267.031.688.05 1.39.068 2.068.025 1 .052 2.034.123 3.05.16 2.309.386 4.608.607 6.748.114 1.109.251 2.232.383 3.319.108.882.22 1.794.317 2.692.15 1.369.34 3.174.48 4.984.071.926.1 1.873.127 2.789l.024.78a.27.27 0 01-.07.135c-.267.268-.626.412-1.13.454-.682.057-1.36.084-2.05.108-.865.03-1.744.056-2.593.082l-1.535.046c-.658.02-1.315.042-1.973.064-1.156.039-2.352.078-3.528.11l-.743.022c-1.38.04-2.809.082-4.212.093-1.54.012-3.107.009-4.623.007-.926-.001-1.852-.003-2.778-.001-1.108.002-2.216.007-3.324.012-2.06.008-4.192.018-6.287.008-.774-.003-1.563-.04-2.326-.073a72.512 72.512 0 00-1.769-.067c-1.06-.023-2.138-.025-3.179-.027l-.837-.001-.172-.001c-.985-.001-1.914-.003-2.817-.318a2.096 2.096 0 01-.548-.281.356.356 0 01-.126-.2c-.155-1.376-.02-2.78.111-4.137l.007-.076c.18-1.863.321-3.79.447-5.49.087-1.177.168-2.373.246-3.53.066-.97.132-1.94.202-2.91.055-.77.12-1.551.181-2.308.041-.507.083-1.015.122-1.523.066-.85.128-1.7.191-2.548.138-1.863.28-3.79.453-5.68.151-1.65.483-2.938 1.044-4.054.491-.977 1.237-1.657 2.282-2.078 1.092-.44 2.295-.673 3.786-.733zm2.127-1.969l.027.142c.022.113.068.273.207.365a.41.41 0 00.318.052c.291-.059.438-.283.392-.596-.395-2.719-.115-5.476.854-8.429.551-1.678 1.225-3.114 2.06-4.39 1.298-1.986 2.69-3.297 4.381-4.127 1.476-.723 3.123-1.053 4.895-.98 1.918.078 3.63.635 5.09 1.654 1.226.857 2.26 1.968 3.157 3.396 1.43 2.275 2.334 4.81 2.688 7.537.107.816.094 1.671.083 2.498-.006.375-.012.762-.006 1.142.006.484.014 1.046.013 1.6 0 .21.056.369.17.475a.503.503 0 00.394.125c.255-.017.367-.153.416-.301.07.669-.098 1.323-.275 2.01l-.02.085c-.064.246-.138.498-.21.74-.158.533-.32 1.083-.386 1.645-.076.667-.065 1.347-.054 2.005.004.28.01.569.007.852v.124h-.71c.008-.078.015-.156.024-.233.035-.35.072-.711.122-1.063.17-1.191-.046-2.395-.658-3.682-.255-.534-.476-1.152-.699-1.948-.173-.62-.045-1.142.381-1.554l.003.058.005.124c.01.258.02.525.018.785 0 .188.048.327.148.423a.47.47 0 00.358.125c.2-.007.317-.09.38-.158a.525.525 0 00.125-.395 89.819 89.819 0 01-.052-1.244c-.033-.86-.067-1.752-.147-2.627a22.892 22.892 0 00-1.148-5.275c-.775-2.273-1.805-4.054-3.15-5.444-1.922-1.984-4.364-2.925-7.26-2.797-1.453.065-2.71.42-3.845 1.082-1.145.67-2.13 1.597-2.925 2.756-1.122 1.634-1.887 3.607-2.406 6.207-.434 2.177-.666 4.152-.709 6.038-.007.284-.018.576-.029.857-.007.171-.015.342-.02.514-.004.113-.01.282.111.406a.404.404 0 00.304.114c.134-.002.451-.055.485-.526l.014-.195.003-.044c.014.094.018.197.015.308-.024.791-.358 1.5-.716 2.145a7.668 7.668 0 00-.959 3.614c-.008.421-.006.833-.004 1.27l.002.362h-1.136a1.03 1.03 0 01.005-.138c.163-1.374.034-2.637-.395-3.86a7.95 7.95 0 01-.314-1.324c-.133-.78.121-1.464.578-2.305zm1.24 9.286v1.166h-1.219v-1.22zm-.12 2.74c-.095.534-.226.948-.414 1.308a.264.264 0 01-.048.002c-.156-.149-.307-.309-.368-.474-.089-.24-.14-.506-.198-.786l-.02-.106zm23.154-1.415v.15H75.31l.066-1.49h.101c.288 0 .561-.002.83.005.008.445.007.897.007 1.335zm-.196 1.706c-.08.335-.182.617-.396.848l-.009.008-.014-.022c-.165-.262-.239-.558-.288-.869zM55.051 51.188c.161-1.91.335-3.775.703-5.603.338-1.684.751-3.02 1.297-4.208.81-1.76 1.76-2.978 2.99-3.829 1.266-.877 2.751-1.322 4.414-1.322h.023c2.756.007 5.023 1.15 6.738 3.396 1.292 1.691 2.213 3.77 2.817 6.352.324 1.382.523 2.912.628 4.807a.108.108 0 01-.006.02c-1.045.43-1.545 1.305-1.422 2.476-.163 0-.325-.003-.485-.004a36.769 36.769 0 00-1.56.008 962.39 962.39 0 00-4.108.147c-1.332.049-2.71.1-4.064.145-2.657.087-4.83.02-6.844-.213l-.03-.004c.01-.096.017-.186.024-.277.053-.737-.285-1.326-1.003-1.752-.117-.07-.117-.08-.112-.14zm37.51 9.81a2.464 2.464 0 00-.192.48c-.08.318-.165.637-.248.957-.248.943-.503 1.918-.677 2.896-.296 1.67-.514 3.38-.725 5.034l-.039.31c-.194 1.52-.374 3.065-.548 4.561-.08.691-.16 1.382-.242 2.073-.27 2.28-.66 4.54-1.156 6.72l-.07.293a33.948 33.948 0 00-.06-.634 581.669 581.669 0 00-.503-4.53c-.082-.723-.167-1.444-.252-2.166a362.714 362.714 0 01-.399-3.472l-.018-.163c-.154-1.42-.313-2.89-.412-4.338-.077-1.125-.116-2.274-.154-3.385a173.95 173.95 0 00-.045-1.25c-.068-1.774-.156-3.383-.508-4.982.88.415 1.744.626 2.423.766.944.194 1.902.406 2.83.61l.994.22zm.407-.676a28.795 28.795 0 01-.463-.17c-.27-.102-.55-.207-.833-.298-.265-.086-.537-.164-.799-.241a14.81 14.81 0 01-1.315-.425c-.954-.377-1.914-.793-2.842-1.195-.305-.132-.61-.264-.91-.392a.144.144 0 01-.034-.047 8.972 8.972 0 01-.144-.324 8.504 8.504 0 00-.146-.33c-.726-1.531-1.824-2.503-3.357-2.971-1.214-.37-2.418-.328-3.548-.253l-.259.016v-.067c.002-.217.004-.421-.004-.628-.022-.516-.085-1.097-.564-1.476-.507-.402-.68-.87-.56-1.521.013-.075.013-.147.013-.21 0-.026 0-.052.002-.077a16.563 16.563 0 00-.733-5.765c-.956-3.07-2.196-5.328-3.902-7.104-1.206-1.255-2.585-2.16-4.097-2.693-1.847-.649-3.845-.79-5.94-.419-1.943.345-3.645 1.18-5.057 2.484-2.149 1.981-3.695 4.566-4.727 7.901-.776 2.51-1.067 4.842-.889 7.122a.298.298 0 01-.06.11c-.056.072-.12.14-.187.213a2.612 2.612 0 00-.302.367c-.337.522-.664 1.1-.813 1.777-.318.005-.643.006-.957.007-.73.002-1.487.003-2.23.06-1.078.083-2.044.418-2.87.995-.884.617-1.532 1.481-2.042 2.72a.483.483 0 01-.203.232l-.32.136a116.193 116.193 0 01-3.743 1.538c-.393.152-.81.272-1.215.39-.38.108-.773.222-1.154.362l-.17.062c-.615.223-.709.303-.64.903.008.071.017.153.026.25.01.11.023.236.047.363.072.371.15.747.225 1.111.16.764.323 1.555.435 2.337.288 2.02.556 4.077.815 6.067.108.828.215 1.654.325 2.481.097.737.193 1.475.287 2.212.221 1.705.448 3.468.703 5.198a33.023 33.023 0 001.436 5.901c.154.45.23.9.23 1.378.001.508.063 1.017.122 1.51l.044.37a.723.723 0 00.252.47c.251.19.525.37.814.532.913.512 1.935.586 2.822.614.823.027 1.656.017 2.463.007 1.042-.012 2.121-.026 3.18.041 2.431.153 4.894.17 7.413.172l1.004.001c3.67 0 7.418-.027 11.426-.08 2.716-.037 5.477-.113 8.146-.186l1.554-.043c1.908-.05 3.944-.11 5.997-.212.846-.042 1.698-.172 2.494-.305.533-.09.934-.408 1.322-.715.073-.058.146-.117.22-.173l.083-.063.026-.402c.02-.278.037-.556.055-.833a1.45 1.45 0 00-.004-.24c-.1-.884 0-1.67.302-2.409.094-.227.162-.456.215-.65.675-2.449 1.17-4.986 1.511-7.757.141-1.137.274-2.295.403-3.415.182-1.587.371-3.228.584-4.838.212-1.61.477-3.243.733-4.822l.221-1.372c.106-.66.231-1.332.352-1.98.04-.212.08-.425.118-.637.06-.323-.078-.562-.387-.673z"/></g><path d="M128.508 66.722L108.8 72.474l17.564 10.63-20.524.445 14.189 14.836-19.936-4.902 9.873 18-18-9.873 4.9 19.937-14.834-14.191-.444 20.525-10.63-17.564-5.752 19.706-5.753-19.706-10.63 17.564-.445-20.525-14.835 14.19 4.9-19.937-18 9.873 9.875-18-19.937 4.902 14.19-14.835-20.524-.445 17.564-10.63-19.707-5.752 19.707-5.752L4.048 50.34l20.524-.445-14.19-14.836 19.937 4.902-9.873-18 18 9.873-4.901-19.937 14.835 14.19.444-20.524 10.63 17.564L65.207 3.42l5.752 19.706 10.63-17.564.445 20.525 14.835-14.19-4.902 19.936 18-9.872-9.873 18 19.937-4.902-14.19 14.835 20.524.445L108.8 60.97z" stroke="red"/></g></svg>