<svg height="83" width="88" xmlns="http://www.w3.org/2000/svg"><mask id="a" fill="#fff"><path d="M.702.161H52.44v73.263H.702z" fill-rule="evenodd"/></mask><mask id="b" fill="#fff"><path d="M0 .138h28.576v31.544H0z" fill-rule="evenodd"/></mask><g fill="#fff" fill-rule="evenodd"><path d="M58.233 12.047c.015.057.038.112.06.168.032-.05.068-.097.104-.145zm8.915 9.341c.349.375.593.763.78 1.064l.094.149c.149.235.284.483.417.732.09.17.213.403.27.47.022.024.039.048.058.07l-.866-3.118a2.99 2.99 0 01-.256.276 2.603 2.603 0 01-.497.357m-1.034-2.258c.221-.23.41-.534.51-.91a2.05 2.05 0 00.044-.25l-.23.127c-.14.076-.286.133-.433.18.103.184.163.415.198.62.01.058-.035.15-.089.234m-.872-.174l.196.617c.152-.048.31-.146.465-.266a1.54 1.54 0 01-.637-.325c-.008-.007-.015-.017-.024-.026M39.398 56.894l-.047-.001c.017.15.044.302.094.454.084.063.19.12.3.145l.136-.612c-.161.003-.32.014-.483.014m-3.897-30.848l.598.429a2.403 2.403 0 011.004 1.927c.864.438 1.486 1.124 1.773 1.993.207.626.398 1.874-.579 3.318a5.483 5.483 0 01-.104.222 2.393 2.393 0 01-.59.76 2.938 2.938 0 01-.59.957c-.405.44-1.118.95-2.274.983a7.274 7.274 0 01-.285.095 2.397 2.397 0 01-1.518 1.569l-3.273 1.11a2.418 2.418 0 01-1.875-.138 2.46 2.46 0 01-.537-.394 4.194 4.194 0 01-.49.002l-.217-.015c-.005.132-.01.262-.017.392-.028.622-.053 1.209-.012 1.732.018.22.034.443.048.665.081 1.153.15 2.148.563 2.882.057.102.148.24.294.41l.181-.118c.717-.467 1.434-.933 2.163-1.382.547-.337 1.081-.421 1.368-.466l.078-.013c.063-.016.126-.027.19-.038a3.3 3.3 0 01.716-1.34c.787-.89 2.003-1.276 3.245-1.031.787.153 1.531.358 2.25.556.368.1.736.204 1.107.296.604.15.741.047.862-.045a9.28 9.28 0 012.297-1.261c1.061-.393 2.142-.69 3.15-.951.91-.234 1.675-.353 2.415-.377h.083c1.273 0 2.346.906 2.814 1.765l.021.04c.225-.025.454-.018.678.02.38.038 1.322.15 1.998 1.01a.738.738 0 00.171.174h.025c.076 0 .321-.017.842-.227a21.47 21.47 0 001.491-.69c.021-.095.042-.206.06-.293l.03-.162c.05-.277.142-.787.498-1.306.107-.158.2-.388.046-1.31a27.09 27.09 0 01-.23-1.778c-.239.09-.509.22-.79.355-.27.13-.543.26-.819.376l-.106.049c-.366.168-.97.456-1.777.418a27.484 27.484 0 01-3.847-.402 2.411 2.411 0 01-1.85-1.605l-.3.127c-.204.085-.406.17-.61.253a2.399 2.399 0 01-2.999-1.048c-.062.02-.124.039-.185.06a2.408 2.408 0 01-3.152-1.942 2.051 2.051 0 00-.033-.167c-.072-.345-.182-.87-.102-1.498.236-1.822 1.296-3.261 2.988-4.055l.012-.006a2.39 2.39 0 01.16-.808c.068-.18.133-.357.198-.533.19-.512.385-1.041.641-1.582.537-1.123 1.685-1.626 2.506-1.716.567-.061 1.13-.102 1.694-.144.9-.068 1.75-.131 2.552-.271a7.52 7.52 0 01.507-.07l-.924-2.308a2.405 2.405 0 01.037-1.87c-.23-.118-.457-.24-.682-.358l-.37-.197a2.85 2.85 0 01-.726-.546 4.96 4.96 0 01-.528-.137c-2.253-.721-4.678-1.39-7.144-1.407-1.28-.005-2.62.258-4.052.539-2.64.519-5.19 1.767-8.047 3.929-.232.174-.488.55-.745.974.78 1.086.838 2.354.841 3.059.231.529.366 1.12.4 1.723l.015.004.6-.071c.815-.098 1.658-.2 2.533-.243a2.271 2.271 0 011.848.729c.63-.101 1.27.045 1.788.417M54.873 8.234c.016-.027.035-.052.05-.08l-.04-.02-.01.1m-4.791 2.767c.037.079.077.156.105.238.07.04.135.083.2.13.096-.016.191-.024.285-.03-.15-.086-.304-.173-.448-.258l-.142-.08m13.004-1.127a2.598 2.598 0 00-.27-.047l.218 1.564.1-.056a2.036 2.036 0 00-.048-1.461"/><path d="M56.309 7.785l-.35.96a2.391 2.391 0 01-1.41 1.41 2.394 2.394 0 01-1.228 1.482c-.204.1-.42.158-.64.197.157.086.317.188.47.326l2.369.226a2.406 2.406 0 011.88 1.235c.166.121.314.266.446.427a2.847 2.847 0 01.059-.927c-.604-.922-.625-1.878-.487-2.618a2.397 2.397 0 011.98-1.925 3.09 3.09 0 011.883-.773 2.49 2.49 0 011.243.268c.119.056.29.14.477.254l-.18-.36-7.652-3.533c.023.145.04.291.048.441a2.397 2.397 0 011.092 2.91M26.97 81.174a2.405 2.405 0 01-.15-2.31c.718-1.541 2.257-3.415 5.506-3.581l.08-.017c.285-.05.755-.132 1.317-.055 1.558.222 3.018-.516 4.685-1.398a361.2 361.2 0 01-1.818.253c-1.147.157-1.928-.227-2.381-.574-.466-.355-1.054-1.032-1.215-2.232a2.41 2.41 0 011.216-2.42c.274-.151.55-.31.83-.468a50.081 50.081 0 012.614-1.41c-.286.104-.573.206-.863.31a6.66 6.66 0 01-1.194.285c-.093.015-.186.03-.276.05a2.408 2.408 0 01-2.75-1.55l-.09-.252a2.406 2.406 0 011.118-2.928l.143-.083c.202-.118.477-.281.824-.416.81-.314 1.623-.627 2.436-.938 1.408-.541 2.852-1.1 4.276-1.668-.11.014-.217.03-.327.03a2.404 2.404 0 01-2.301-1.707l-.375-1.237a18.562 18.562 0 01-2.45-.3 2.42 2.42 0 01-.865-.355 2.392 2.392 0 01-1.468 1.402c-.192.063-.384.13-.581.196-.493.17-1.003.346-1.556.498-1.695.466-3.07.823-4.328 1.123-2.554.609-3.56-.616-4.08-1.963l-1.042 1.043c.098.033.198.067.295.113a2.404 2.404 0 011.26 2.788c-.127.47-.261.933-.394 1.388-.275.945-.534 1.835-.693 2.695-.16.865-.231 1.78-.308 2.748-.036.45-.073.902-.117 1.35a2.407 2.407 0 01-3.558 1.866 3.574 3.574 0 01-.974-.774L16.783 80.8s3.436 2.06 4.124 2.06c.26 0 3.513-.297 7.438-.667a2.407 2.407 0 01-1.374-1.02M43.507 4.152a2.407 2.407 0 01-1.872 1.788l-.491.094c-.301.056-.602.111-.9.181-.758.175-1.52.341-2.28.507-1.843.401-3.583.78-5.276 1.307-.778.242-1.581.647-2.433 1.076-.813.412-1.656.837-2.585 1.178-1.23.453-1.981 1.437-3.106 3.006l-.313.434c-.225.312-.442.633-.66.958l.843-.324c.188-.073.384-.12.58-.145a8.29 8.29 0 01.366-.273 2.399 2.399 0 012.698-1.981c.057.008.11.008.155.01.239.012.676.034 1.148.231.15-.112.329-.243.537-.372.545-.675 1.19-1.033 1.939-1.089a2.402 2.402 0 011.602-1.61 2.412 2.412 0 012.33.53c.338-.05.683-.027 1.014.067a2.4 2.4 0 011.728-.219c.164.041.312.09.446.138a2.771 2.771 0 011.719-.01c.399-.148.893-.213 1.486-.085a2.39 2.39 0 011.155-.296h.009c.337.001.662.072.959.203.596-.123 1.145-.088 1.588-.055a7.788 7.788 0 01-.59-.334c-.065-.039-.126-.077-.188-.11A2.408 2.408 0 0143.867 6.7l.06-1.008a2.406 2.406 0 011.448-2.063l.855-.369a2.407 2.407 0 012.132.113l.02.011c.007-.003.015-.003.022-.005.03-.086.058-.172.098-.255l-4.921-.657-.267.021c.256.504.333 1.093.193 1.663M65.683 41.62l.232.008V40.56l-.176-.005c-.02.355-.037.711-.056 1.065"/><path d="M52.303 70.218c-.032-.091-.057-.178-.08-.258-.102-.346-.24-.821-.573-1.31a35.168 35.168 0 00-1.3-1.752l-.27-.35a23.8 23.8 0 00-.75-.91c-.538-.632-1.005-1.178-1.145-1.715a2.41 2.41 0 00-.84-1.28 2.403 2.403 0 00-1.104-2.3c.27-.356.54-.722.8-1.095 1.862-2.651 2.883-5.571 3.87-8.394l.035-.1c.84-2.405 1.654-5.292 1.296-8.451-.195-1.727-.84-2.97-1.914-3.693-.534-.361-1.37-.713-2.515-.63a2.755 2.755 0 00-.032-.47l.025-.04c.27-.406.409-.885.4-1.366.104-.275.164-.524.209-.708l.036-.147c.126-.48.265-.957.403-1.434.264-.917.539-1.865.742-2.862.213-1.045.31-2.19.309-3.602-.001-.6-.073-1.154-.136-1.644-.06-.445-.112-.864-.092-1.171.03-.471.143-1.005.26-1.57.129-.615.26-1.251.328-1.947.173-1.768.152-4.042-1.498-6.007-.02-.023-.036-.047-.057-.07-.058-.07-.181-.301-.271-.471a11.36 11.36 0 00-.417-.732l-.094-.15a6.658 6.658 0 00-.78-1.063 2.483 2.483 0 01-1.22.334c-.187 0-.374-.022-.56-.066a3.969 3.969 0 01-1.706-.881c-.301-.27-.523-.54-.702-.757-.058-.071-.117-.144-.18-.212a3.435 3.435 0 01-.69-1.08 2.51 2.51 0 01-.547-.24l-.13-.077c-1.17-.7-2.77-1.657-3.437-3.717a2.98 2.98 0 01-.13-.644 2.435 2.435 0 00-.446-.427 2.408 2.408 0 00-1.88-1.235l-2.368-.226a2.491 2.491 0 00-.47-.326c-.14.024-.28.048-.421.048a2.4 2.4 0 01-1.163-.3c-.148-.081-.284-.162-.426-.243a2.578 2.578 0 00-.285.03 2.342 2.342 0 00-.2-.13c-.028-.082-.068-.16-.105-.238-.478-.28-.907-.525-1.31-.694-.28-.118-.66-.211-1.063-.311-.357-.09-.763-.19-1.178-.326a4.485 4.485 0 01-.638-.27C25.45.507 24.9.472 24.305.595a2.39 2.39 0 00-.96-.203h-.008c-.412 0-.808.105-1.155.297-.593-.13-1.087-.064-1.485.084a2.767 2.767 0 00-1.72.01 4.462 4.462 0 00-.445-.137 2.393 2.393 0 00-1.73.219 2.4 2.4 0 00-1.013-.07 2.412 2.412 0 00-2.33-.53 2.402 2.402 0 00-1.602 1.612c-.748.056-1.394.414-1.94 1.089a7.87 7.87 0 00-.536.372 3.276 3.276 0 00-1.148-.23c-.045-.002-.098-.002-.155-.011a2.399 2.399 0 00-2.698 1.98 8.29 8.29 0 00-.366.274 2.417 2.417 0 00-.58.145l-.842.325a72.8 72.8 0 00-.9 1.383c-.223.349-.446.698-.672 1.044-.214.328-.306.809-.393 1.528-.124 1.04-.313 2.049-.498 3.026a60.73 60.73 0 00-.345 1.943c-.03.198-.056.398-.082.598.216-.133.439-.274.659-.43.318-.226.895-.363.44-.962-.022-.031.023-.126.05-.184.36-.763.659-1.566 1.106-2.274.422-.667 1-1.234 1.56-1.903l-.944-1.184c.626-.242 1.176-.455 1.728-.666l.106.286c-.288.09-.576.183-.933.297v.532c.35-.192.698-.29.908-.515.858-.927 1.692-1.863 3.253-1.91l-.883-.95c.378.05.655.006.759.118.569.61 1.155.39 1.727.069.422-.238.779-.607 1.216-.802.306-.137.44-1.055 1.004-.291.337-.668 1.344.076 1.6-.756.047-.155.088-.315.099-.474.017-.228.004-.457.004-.778.356.528.54 1.077.918 1.3.589.35.87-.21 1.058-.691 1.468.57 1.468.57 1.812-.197.583.146 1.145.698 1.778.096.055-.051.225-.022.32.02.49.216.953.317 1.444-.044.1-.074.382.042.554.125.5.245.95.347 1.292-.378.336.726.697.45 1.23.223.494-.211 1.149-.045 1.874-.045l-.736.645 1.162.48c.032-.078.062-.157.093-.236l-.545-.157-.005-.132 1.499-.426c-.131.255-.205.395-.308.597l.67.136L28 4.38l.974.072c.164.866-.005 1.036-.776.788-2.561-.82-5.167-1.502-7.862-1.521-1.516-.011-3.051.293-4.551.588-3.377.665-6.322 2.328-9.015 4.367-.942.71-1.49 1.954-2.163 2.99-.1.154.033.67.185.74 1.074.489 1.123 1.425 1.12 2.386 0 .296.06.499.195.782.24.505.269 1.208.139 1.77-.227.99-.642 1.938-.831 3.009.283-.275.556-.56.849-.822.644-.58 1.304-1.118 2.27-.73.116.048.282-.036.425-.053.912-.104 1.824-.221 2.74-.281a2.37 2.37 0 01.206-.38l.21-.305c.365-.534.93-.898 1.567-1.011.01-.001.02 0 .03-.002a2.267 2.267 0 00-1.847-.73c-.875.045-1.717.146-2.533.243l-.6.072-.015-.004a5.06 5.06 0 00-.4-1.723c-.002-.705-.062-1.973-.841-3.06.258-.422.514-.8.745-.973 2.856-2.162 5.407-3.41 8.047-3.93 1.432-.28 2.77-.544 4.053-.538 2.465.017 4.89.686 7.143 1.406a4.8 4.8 0 00.528.138c.179.185.415.383.725.546l.37.196c.226.12.452.24.683.359a2.405 2.405 0 00-.036 1.87l.923 2.308a7.581 7.581 0 00-.506.07c-.803.139-1.654.203-2.553.27-.564.042-1.127.084-1.693.145-.822.09-1.97.593-2.506 1.716-.257.54-.452 1.07-.642 1.582-.064.175-.13.353-.198.533a2.389 2.389 0 00-.16.808.07.07 0 00-.012.005c-1.691.794-2.752 2.234-2.987 4.056-.08.629.029 1.152.1 1.498.014.056.027.11.034.167a2.405 2.405 0 003.152 1.942c.06-.021.123-.041.185-.06.208.368.51.68.887.898a2.4 2.4 0 002.112.15c.204-.082.407-.168.61-.253l.3-.127a2.406 2.406 0 001.85 1.604c1.179.215 2.436.347 3.847.403.807.038 1.41-.25 1.777-.418l.107-.05c.275-.115.547-.245.818-.375.28-.134.55-.264.79-.356.059.585.13 1.179.23 1.78.154.92.06 1.15-.045 1.308-.357.52-.45 1.03-.498 1.307l-.032.162a15.04 15.04 0 01-.058.294c-.495.246-1 .49-1.492.689-.521.21-.766.227-.841.227h-.026a.786.786 0 01-.171-.174c-.675-.86-1.62-.972-1.998-1.01a2.366 2.366 0 00-.677-.02l-.022-.04c-.468-.86-1.541-1.766-2.813-1.766h-.083c-.741.025-1.507.144-2.415.378-1.01.262-2.09.558-3.151.95a9.283 9.283 0 00-2.297 1.262c-.121.092-.257.195-.862.045-.371-.093-.74-.195-1.107-.296-.72-.198-1.462-.403-2.25-.556-1.242-.246-2.457.14-3.245 1.03a3.304 3.304 0 00-.716 1.34c-.064.01-.126.023-.19.039l-.078.012c-.287.045-.821.13-1.368.467-.73.448-1.445.915-2.163 1.382l-.181.118a2.555 2.555 0 01-.294-.41c-.413-.734-.482-1.73-.562-2.882a48.35 48.35 0 00-.05-.665c-.04-.523-.015-1.11.014-1.732l.016-.392.217.015c.175.01.335.006.49-.002a2.408 2.408 0 01-.664-1.051l-.1-.33a2.378 2.378 0 01-.067-1.062c-.396-.038-.792-.083-1.19-.116-.89-.07-1.115.262-1.077 1.137.05 1.24-.134 2.493-.035 3.727.124 1.537.124 3.132.913 4.533.29.518.707.99 1.147 1.396.59.542 1.29.668 2.015.2.942-.61 1.877-1.23 2.832-1.818.2-.124.477-.125.718-.184-.002.228-.045.464.002.68.07.313.188.618.322.909.1.219.259.41.499.779l3.538-1.768c-.42-.194-.725-.42-1.06-.477-.685-.12-1.07-.484-1.281-1.135-.278-.861.23-1.558 1.138-1.38 1.089.212 2.154.556 3.233.824 1.023.255 1.988.225 2.892-.454a6.74 6.74 0 011.687-.93c.95-.352 1.935-.622 2.918-.877.615-.158 1.254-.281 1.886-.3.236-.008.579.27.709.508.404.739-.027 1.747-.818 2.118-.41.19-.925.354-.79.97.125.56.758.902 1.373.808.169-.025.367-.1.505-.04 1.103.46 1.624-.477 2.326-.961.077-.054.066-.31.022-.447-.074-.23-.246-.428-.303-.66-.037-.151.054-.335.087-.505.176.038.43.015.517.125 1.078 1.375 2.42 1.26 3.83.69.67-.27 1.319-.594 1.967-.917.818-.41.922-1.218 1.074-1.994.027-.141.045-.3.122-.412.65-.951.613-1.98.434-3.061-.175-1.051-.256-2.118-.355-3.18-.054-.574-.283-.8-.895-.704-.575.09-1.2-.058-1.747.097-.746.21-1.436.614-2.156.922-.275.117-.57.286-.85.275a24.594 24.594 0 01-3.507-.365c1.375-.493 2.917.103 4.214-.914-.735-.19-1.48-.348-2.198-.587-.33-.11-.678-.322-.886-.591-.27-.348-.546-.57-.972-.457-.798.213-1.594.442-2.376.709-.637.217-1.252.499-1.877.753l-.032-.227-.248-1.234c1.017-1.26 2.442-2.22 4.294-2.16 1.71.057 3.41.36 5.12.556-.368-.565-.318-1.146.529-1.467.066-.025.148-.186.123-.236-.176-.37-.421-.713-.557-1.096-.152-.424-.314-.705-.831-.778-.31-.043-.565-.395-.87-.562-1.357-.747-2.644-.277-3.931.24-.256.105-.552.106-.815.196-.161.054-.373.155-.427.29-.391.957-1.248 1.463-1.941 2.139-.737.722-1.346 1.576-2 2.38-.12.15-.14.43-.282.5-.373.185-.786.286-1.184.42-.048-.341-.172-.691-.13-1.021.13-1.015.677-1.741 1.624-2.185a51.528 51.528 0 002.665-1.372c.28-.152.517-.388.899-.682-.872-.112-1.608.698-2.17-.075.26-.68.476-1.33.768-1.943.085-.178.38-.335.594-.358 1.466-.158 2.95-.185 4.398-.437 1.177-.204 2.11 0 2.99.8.24.217.705.184 1.1.274l-2.687-6.714L33.39 8.49c.007-.551-.415-.907-1.071-1.175-.853-.348-1.665-.798-2.482-1.23-.155-.081-.252-.273-.381-.421.455-.284.844-.595 1.287-.772.207-.082.537.06.773.179.08.04.05.309.072.494l3.703.353-.972.499.009.133c.512.049 1.025.096 1.658.155l-.77 1.21c.734.414 1.313.26 1.773-.473l.13.187c-.18.35-.36.7-.53 1.035.68.675 1.1-.01 1.574-.4l.133.18-.557 1.226h1.433l-.24.845 1.426.117-.44.679 1.15.1-.147-.966 1.37.287a50.83 50.83 0 01-.427.37l1.704 1.71c.033.034.063.074.102.1.527.367 1.087.692 1.57 1.108.31.267.526.655.75 1.01.312.487.526 1.05.897 1.48 1.09 1.267 1.13 2.767.983 4.276-.117 1.204-.512 2.385-.593 3.588-.067.984.22 1.987.22 2.98.002 1.042-.052 2.103-.26 3.12-.286 1.406-.748 2.775-1.113 4.167-.172.656-.236 1.4-1.284 1.009l.962.49c-.265.398-.513.77-.754 1.135.544.637.476.925-.267 1.272-.965.45-1.015.585-.744 1.669.057.223.009.472.009.868.692-.1 1.328-.176 1.959-.285.456-.08.909-.183 1.355-.307 1.507-.42 2.284.245 2.492 2.08.289 2.556-.341 4.998-1.177 7.388-.96 2.745-1.913 5.499-3.602 7.906-.824 1.176-1.748 2.28-2.608 3.432-.261.35-.434.763-.688 1.118-.41.569-.128 1.01.31 1.293.48.307.864-.033 1.145-.438.38-.55.87-.881 1.722-.894l-1.631 2.368c.649.892.903.869 2.535-.213.375 1.43 1.465 2.374 2.315 3.48.505.659 1.023 1.31 1.489 1.995.177.259.228.605.372 1.013h-8.01a2.407 2.407 0 01-1.526.328l-.286-.034a2.41 2.41 0 01-.896-.294H8.999c.69-1.48 1.89-2.117 3.45-2.198.316-.016.639-.133.943-.09 2.639.369 4.762-.944 6.946-2.08.649-.337 1.313-.663 2.002-.902 1.094-.38 2.028-.942 2.699-1.907.33-.478.655-.636 1.158-.113.265.276.743.362 1.139.488.05.017.293-.325.27-.353-.27-.32-.52-.724-.873-.884a18.633 18.633 0 00-2.82-1.018c-.49-.131-1.054-.052-1.575.017-2.026.263-4.047.565-6.071.84-.413.056-.792-.013-.888-.74.91-.506 1.863-1.074 2.85-1.575 1.958-.994 3.933-1.954 5.905-2.923.714-.35 1.223-.875 1.479-1.636.09-.27.196-.533.364-.984.485.544.833 1.004 1.254 1.38.278.249.718.578.983.504.26-.073.406-.603.572-.945.246-.511-.212-.634-.503-.807-.268-.16-.574-.258-.87-.366-.868-.32-1.743-.62-2.61-.944-.925-.344-1.811-.21-2.708.127-2.031.76-4.07 1.504-6.113 2.235-.365.13-.763.164-1.146.242-.03-.087-.06-.173-.092-.26.23-.124.45-.276.692-.37 2.545-.99 5.103-1.945 7.633-2.974.47-.191.828-.661 1.236-1.004.036-.031.056-.082.087-.12.378-.443.895-.833 1.097-1.346.187-.481.04-1.093.189-1.783.363.416.765.805 1.078 1.256.305.439.475.973.792 1.399.136.182.53.319.742.257.199-.06.409-.396.44-.633.09-.661-.304-1.113-.84-1.423-.755-.438-1.531-.84-2.421-1.323.31-.218.536-.421.798-.552.62-.31 1.223-.638 1.79-1.013-1.233.373-2.534.739-3.904 1.019.066.685-.198 1.514-1.191 2.429-.105.095-.22.2-.323.302-.375.369-.856.59-1.361.66a346.411 346.411 0 01-4.276 1.668c-.813.312-1.626.624-2.436.939-.347.135-.622.298-.824.416l-.143.083a2.405 2.405 0 00-1.118 2.928l.09.253a2.408 2.408 0 002.75 1.548 5.87 5.87 0 01.276-.05 6.587 6.587 0 001.194-.285l.863-.308-.514.26c-.734.373-1.43.767-2.1 1.149-.28.159-.556.316-.83.468a2.41 2.41 0 00-1.216 2.42c.16 1.2.749 1.877 1.215 2.232.453.347 1.234.73 2.38.573.608-.082 1.213-.167 1.818-.253-1.667.882-3.126 1.62-4.684 1.399-.562-.077-1.032.005-1.316.055l-.081.017c-3.25.166-4.788 2.04-5.506 3.582a2.4 2.4 0 001.525 3.328c.21.06.43.093.654.093h41.036a2.403 2.403 0 002.268-3.206" mask="url(#a)" transform="translate(20 8.862)"/><path d="M31.526 28.732c-.279-.027-.512.098-.66.555-.936-.503-1.882-.627-2.832-.213-.34.147-.63.416-.928.65-.246.194-.5.392-.689.635-.182.233-.296.521-.419.795-.107.238-.11.584-.284.72-.67.514-.377 1.158-.022 1.496.267.253 1.032.291 1.386.09 1.731-.982 3.608-1.449 5.534-1.783.465-.08.94-.097 1.445-.324l-2.402-1.243-.012-.205c.114-.03.233-.08.35-.12a2.395 2.395 0 01-.454-.949c-.008-.034-.006-.069-.013-.104m-4.5 30.69c1.26-.3 2.634-.657 4.328-1.123a24.277 24.277 0 001.557-.498c.196-.066.388-.133.58-.196a2.393 2.393 0 001.47-1.402 2.399 2.399 0 01-1.01-1.403c-.125-.48-.09-.973.07-1.42-.456-.25-.883-.593-1.399-.59l-.612 1.013.182.452c-.187.137-.357.263-.557.408.297.364 1.092-.28 1.104.657-.651.215-1.327.469-2.022.66-1.41.388-2.825.762-4.25 1.102-1.054.252-1.097.145-1.405-.864-.414-1.358-.933-2.683-1.438-4.11l.393-.415c-.313-.536-.547-1.116-.935-1.557-.492-.558-.587-.985.184-1.458-.37-.53-.832-.975-1.026-1.516-.35-.971-.54-2-.787-3.007-.015-.06.015-.154.058-.203 1.176-1.338.734-2.736.187-4.156-.15-.393-.188-.83-.312-1.404-.5.902-.936.803-1.36.114-.042-.07-.165-.101-.257-.127-.663-.186-.68-.541-.373-.85-.144-.514-.267-.897-.355-1.287-.065-.284.019-.66-.138-.853-.661-.814-.635-1.794-.647-2.717-.001-.07.01-.14.013-.21-.19.049-.386.082-.586.082a2.39 2.39 0 01-.6-.076l-.223-.058a2.394 2.394 0 01-.963-.504c-.03.256-.05.519-.046.797l.002.143c.009.907.025 2.216.772 3.472.01.134.033.289.069.452.046.2.098.4.157.61-.08.4-.068.814.037 1.216.108.409.468 1.32 1.618 1.868.387.41.792.657 1.167.8.274.826.172.94.03 1.103a2.673 2.673 0 00-.585 2.367c.064.26.125.524.185.787.183.793.37 1.612.673 2.455.108.299.24.564.385.803a2.79 2.79 0 00-.033.185c-.144.944.169 1.864.927 2.736-.07.398-.038.814.102 1.21.157.447.316.882.474 1.314.34.934.663 1.817.93 2.697.055.179.117.359.186.538.52 1.347 1.526 2.572 4.08 1.963m22.416-1.155c.065.636.232.902.64 1.058l.639-.96c-.229-.896.095-1.657 1.147-2.05l-.753-.557 1.793-1.243c-.171-.26-.341-.595-.583-.865-.415-.466-1.457-.273-1.655.285-.158.443-.33.884-.451 1.337-.266.99-.896 1.849-.777 2.995m.672-5.468c.017.262-.013.517-.076.76.045-.06.093-.113.136-.172.2-.278.66-.4 1.023-.521.738-.247.941-.872 1.24-1.73-.44.1-.783.11-1.056.25-.449.232-.894.473-1.344.72.02.105.045.209.053.317zm-15.67-17.533a2.4 2.4 0 01.01 1.464c.107-.033.206-.067.284-.095 1.155-.033 1.87-.543 2.273-.982.26-.283.457-.603.59-.956a2.4 2.4 0 00.591-.762c.034-.07.065-.136.104-.222.977-1.444.786-2.692.58-3.318-.288-.868-.91-1.555-1.775-1.992.005.444-.112.894-.364 1.298l-.162.26a2.386 2.386 0 01-.544.592c.735.38.792 1.096.22 1.888-.079.11-.124.246-.216.43-.304-.187-.565-.347-.86-.53.078.319.176.595.21.879.078.62-.063 1.04-.844 1.01-.175-.005-.35.05-.527.112.136.19.254.396.331.628zm3.404 14.999c.484-.058.978-.111 1.46-.076 1.54.114 3.002-.295 4.477-.617.387-.085.854-.163.749-.768-.1-.567-.388-.853-1.004-.793-.201.02-.416-.122-.68-.207-.24.332-.585.266-.92-.05a5.977 5.977 0 01-.63-.708c-.35-.462-.808-.362-1.152-.115-1.112.797-2.18 1.654-3.368 2.569-.038.667.39.846 1.068.765m8.2-18.105c2.169-.83 4.327-1.556 6.69-1.165-1.28-1.403-6.09-.95-6.69 1.164m5.069 34.027l.867 2.42c.612-1.05.338-1.793-.867-2.42"/><path d="M33.147 32.77c-1.178-.766-4.397-.075-5.297 1.068 1.63-.723 3.307-1.228 5.297-1.068"/><path d="M5.01 13.049c.639-.877 1.026-1.934 1.572-2.883.202-.351.482-.695.806-.932 2.872-2.103 5.788-4.17 9.283-5.104 2.936-.784 5.88-1.61 8.965-1.587a.772.772 0 01.535.176c-.491.097-.985.178-1.473.292-2.581.6-5.201 1.074-7.725 1.859-1.776.554-3.377 1.649-5.133 2.295-2.165.797-3.3 2.579-4.536 4.284-.816 1.125-1.538 2.319-2.298 3.484-.507.776-.656 1.637-.767 2.554-.195 1.64-.58 3.256-.831 4.89-.163 1.057-.25 2.125-.332 3.19-.071.923-.07 1.85-.138 2.773-.025.316-.168.624-.257.937a7.736 7.736 0 00-.218-.057c-.02-.188-.06-.375-.057-.563.03-2.362-.054-4.735.132-7.086.237-2.986.609-5.965 2.472-8.522zM2.082 31.606c.2.05.403.076.6.076.2 0 .396-.033.587-.081.033-.732.262-1.466.392-2.2.078-.434.146-.87.217-1.305L3.624 28l1.339-1.211-.463-.213c.305-.673.646-1.332.89-2.025.08-.224-.093-.536-.172-.91.146-.092.313-.194.484-.3.026-.2.052-.4.082-.598.1-.65.223-1.297.345-1.943.185-.977.374-1.986.498-3.026.087-.72.179-1.2.393-1.528.226-.346.449-.695.672-1.044.304-.477.6-.935.9-1.383.217-.326.434-.647.659-.958l.313-.435c1.125-1.568 1.877-2.553 3.106-3.006.929-.341 1.772-.766 2.585-1.178.852-.428 1.655-.834 2.433-1.076 1.693-.527 3.433-.906 5.276-1.306.76-.166 1.522-.333 2.28-.508.298-.07.599-.124.9-.181l.49-.094A2.405 2.405 0 0027.673.84a3.155 3.155 0 00-2.017-.702c-3.27 0-6.304.786-9.23 1.568l-.374.1C11.977 2.896 8.645 5.334 5.97 7.29c-.724.529-1.2 1.203-1.474 1.677-.25.434-.456.856-.656 1.265-.26.53-.504 1.03-.774 1.4C.837 14.69.399 18.125.14 21.382 0 23.13.004 24.869.007 26.552c0 .69.002 1.384-.007 2.07-.004.316.034.58.059.756l.014.099a2.406 2.406 0 001.787 2.071z" mask="url(#b)" transform="translate(15 .862)"/><path d="M39.881 56.88l.104-.464-.534-.541a2.432 2.432 0 00-.1 1.018h.047c.163 0 .322-.01.483-.013"/><path d="M50.04 53.559a2.43 2.43 0 00.075-.76l-.024-.376c-.008-.108-.032-.212-.053-.316-.585.32-1.18.652-1.81.998l.131-1.834-.912.056c-.183-.682-.606-.787-1.186-.415-.02.013-.05.036-.065.03-.873-.364-1.783.109-2.63-.086-.618-.143-1.115-.146-1.672.138-.276.14-.633.127-.956.169-.539.072-1.08.125-1.619.202-.814.116-1.628.34-2.442.344-1.067.004-1.652.565-1.646 1.863-.464.147-.846.007-1.21-.192a2.408 2.408 0 00-.07 1.42 2.408 2.408 0 001.01 1.404c.258.168.548.293.863.354.832.16 1.65.254 2.45.3l-.307-1.017a2.4 2.4 0 01.01-1.412 16.473 16.473 0 01-1.698-.232c.277-.232.43-.474.607-.492.526-.054 1.052-.1 1.58-.147.013-.016.024-.034.04-.05a2.407 2.407 0 012.285-.711c.44.098.815.25 1.136.434.217-.022.436-.038.655-.063 1.023-.11 2.035-.335 3.056-.49.174-.025.366.069.547.063.263-.01.523-.065.785-.095.24-.026.48-.046.72-.068l.026.377c-1.556.475-3.115.912-4.709 1.198.287.348.48.687.615.927.04.068.075.137.117.2.203.3.372.673.413 1.1 1.37-.28 2.672-.645 3.906-1.018.742-.491 1.418-1.068 1.981-1.803M49.264 6.8c-.115.147-.227.286-.37.464.539.438.977.049 1.459-.104v-.016c-.6-.262-1.08-.62-1.427-1.083a77.58 77.58 0 00-.144.393l.482.347"/><path d="M54.55 10.154c-.08.03-.154.073-.238.095a2.417 2.417 0 01-2.174-.496l-.946-.808c-.071-.06-.13-.127-.192-.192-.43-.248-.854-.478-1.295-.662-.77-.324-1.624-.443-2.423-.706-.374-.123-.706-.372-1.014-.54.02-.357.039-.652.06-1.007l.854-.369c.065.47-.104 1.1.654.756.288-.13.582-.255.936-.408a3.539 3.539 0 01-.467-1.225 2.394 2.394 0 01.099-1.212c-.007.003-.015.003-.022.005a2.409 2.409 0 00-2.152-.124l-.855.37a2.406 2.406 0 00-1.447 2.062l-.061 1.008a2.408 2.408 0 001.248 2.255c.062.034.123.072.188.111.162.1.36.218.59.334.189.096.4.191.637.27.416.135.822.236 1.179.325.404.1.784.193 1.064.31.402.17.83.415 1.309.695.049.028.092.05.142.08.144.085.299.172.448.258.142.081.278.162.426.243.36.2.762.3 1.163.3.14 0 .28-.024.42-.048.22-.039.435-.098.64-.198a2.39 2.39 0 001.229-1.482"/><path d="M53.946 7.686c-.025.015-.053.025-.079.04l-.169.197-.033-.012-.482 1.193c.617.02 1.362-.296 1.69-.87l.01-.1zM20.008 65.05c-.26 1.417-.312 2.872-.453 4.296-.488-.27-.7-.696-.608-1.79.169-2.013.417-4.02 1.467-5.812.197-.335.466-.628.726-.97-.402 1.479-.87 2.859-1.132 4.277M18.39 71.45a2.4 2.4 0 002.282.026 2.403 2.403 0 001.275-1.892c.045-.448.082-.9.118-1.35.077-.968.149-1.883.308-2.747.158-.861.418-1.751.693-2.696.132-.455.267-.917.394-1.387a2.404 2.404 0 00-1.261-2.79 2.52 2.52 0 00-.295-.112 2.396 2.396 0 00-2.682.82c-.068.09-.138.177-.205.26-.202.252-.455.566-.677.947-1.308 2.23-1.601 4.595-1.79 6.826-.05.586-.177 2.136.866 3.32.25.287.569.552.974.775m41.236-58.104l.022-.344c-.129-.12-.272-.236-.392-.357a2.81 2.81 0 01-.395-.508l-.464-.066a1.824 1.824 0 00-.105.144c.228.573.793 1.095 1.334 1.13m4.531 4.76c-.054-.028-.106-.06-.158-.092a1.973 1.973 0 00-.176.59zm-2.184-1.111a.019.019 0 00.002-.007 2.368 2.368 0 01-.45-.825l-.23-.73a3.643 3.643 0 01-.623-.67c-.052.003-.102.016-.154.016a2.4 2.4 0 01-1.345-.412c-.58-.39-.987-.813-1.268-1.245a3.041 3.041 0 00.071 1.571c.667 2.06 2.268 3.018 3.438 3.717l.129.077c.137.082.324.172.548.241a2.787 2.787 0 01-.118-1.733m-.693-9.189a3.09 3.09 0 00-1.883.773c.176-.028.356-.044.54-.033 1.275.083 2.003.668 2.39 1.146.46.568.617 1.18.654 1.73l.053-.03-.218-1.564c.086.01.177.026.27.047.195.455.214.976.048 1.46l.092-.05a2.398 2.398 0 011.838-.213c.118.033.228.083.337.132a2.884 2.884 0 00-.638-1.264c-.428-.488-.878-.897-1.303-1.276a3.344 3.344 0 00-.459-.336 4.63 4.63 0 00-.478-.253 2.477 2.477 0 00-1.243-.27"/><path d="M61.96 10.55a1.022 1.022 0 00-.106-.157l-.03.043c.012.01.027.014.037.024.034.029.066.06.1.09m-2.313 2.452l.05-.746-.837-.12c.112.18.24.353.395.509.12.12.262.238.392.357m7.031 4.964l-.011.005c-.01.083-.021.165-.044.25-.1.375-.29.68-.51.91-.067.104-.151.194-.185.186-.01-.002-.017-.007-.025-.01-.156.12-.314.22-.465.267l-.197-.617c-.211-.196-.392-.427-.582-.648a2.422 2.422 0 01-.502-.203l-.334.498c.025-.187.08-.391.175-.59a2.636 2.636 0 01-.237-.171 2.406 2.406 0 01-1.047-.262 2.39 2.39 0 01-.74-.594 2.79 2.79 0 00.116 1.741c.137.345.348.71.689 1.078.063.068.122.14.18.213.179.217.4.486.702.757.47.419 1.08.733 1.707.88.185.044.373.066.559.066.426 0 .843-.121 1.22-.334.176-.101.344-.214.497-.358.087-.081.172-.174.256-.275.46-.553.827-1.366.673-2.257-.125-.745-.393-1.36-.784-1.847a2.39 2.39 0 01-1.111 1.315M48.305 4.593c.085.462.247.866.467 1.225l.29-.125-.136.368c.347.464.828.82 1.427 1.083a2.405 2.405 0 01.23-1.067 3.36 3.36 0 01.8-1.087c-.337-.12-.62-.325-.715-.837h.99l.122.55a2.47 2.47 0 01.284-.147l.109-.38c.153.073.375.119.482.208 1.029-.183 1.994.217 2.168.295l.126.056c.095.038.18.09.268.14a3.973 3.973 0 00-.048-.44 4.084 4.084 0 00-.205-.834c-.431-1.144-1.446-1.502-1.852-1.64a2.41 2.41 0 00-1.084-.184c-.12-.02-.244-.03-.37-.03h-.99a2.41 2.41 0 00-1.85.868c-.13.157-.231.33-.316.51-.04.083-.068.169-.097.255a2.388 2.388 0 00-.1 1.213m5.609 3.077l-.047.056c.026-.014.054-.025.08-.04zM40.791 52.797a2.405 2.405 0 00-2.286.71c-.015.017-.026.035-.04.05a337.37 337.37 0 003.462-.326 4.058 4.058 0 00-1.136-.434m-.523 2.347c.913.204 1.11.93 1.47 1.469.034.052-.43.434-.786.785l-.684-2.255m-.823 2.204a2.251 2.251 0 01-.094-.454 2.417 2.417 0 01.1-1.018l.534.54-.104.465-.135.611a.826.826 0 01-.301-.144m4.177-2.268a6.014 6.014 0 00-.615-.927c-1.631.293-3.297.425-5.03.276a2.4 2.4 0 00-.01 1.413l.308 1.016.375 1.239a2.404 2.404 0 002.302 1.707c.109 0 .217-.016.326-.031a2.4 2.4 0 001.36-.66c.105-.103.219-.207.324-.303.994-.914 1.257-1.743 1.19-2.43a2.374 2.374 0 00-.412-1.098c-.042-.064-.078-.133-.118-.201M32.066 35.73c.031.098.063.194.096.292l-3.272 1.11-.101-.333 3.277-1.07m-3.177 3.808c.261 0 .522-.042.774-.127l3.272-1.112a2.395 2.395 0 001.52-1.569 2.4 2.4 0 00-.01-1.464l-.099-.296a2.369 2.369 0 00-.33-.628c-.198.07-.397.147-.597.16-.773.044-1.553.102-2.242-.432-.673-.524-1.106.062-1.653.451l.454.35c-.041.053-.06.105-.095.12-.853.344-1.918.312-2.38 1.371-.047.108-.395.13-.6.117-.161-.01-.321-.028-.483-.044-.053.346-.041.706.067 1.063l.1.33c.124.407.36.762.665 1.05.162.151.336.29.537.393.344.177.722.267 1.1.267"/><path d="M54.048 6.964l-.35.959c-.365-.312-.643-.55-.946-.807.337-.703.79-.356 1.296-.152m.825 1.27c-.328.574-1.073.89-1.69.87l.482-1.193.033.013.169-.198.047-.055.032.016.936.448.04.018c-.014.03-.033.054-.05.082m-4.068-1.121c.144.454.373.699.97.386.298-.156.794 0 .702.59l-.216 1.387c-.442-.244-.855-.492-1.26-.724.062.065.12.133.192.192l.946.808a2.4 2.4 0 002.174.496c.084-.021.158-.064.238-.095a2.394 2.394 0 001.409-1.41l.35-.96a2.398 2.398 0 00-1.092-2.91c-.088-.048-.173-.101-.27-.14l-.125-.055c-.173-.078-1.138-.478-2.168-.295a.17.17 0 01.059.064c.127.338.14.72.066 1.14-.33-.435-.92-.43-1.396-.598a3.36 3.36 0 00-.8 1.087 2.405 2.405 0 00-.23 1.067v.016a.942.942 0 01.45-.046"/><path d="M51.985 4.83l.078-.274c-.096.041-.19.091-.284.147.016.066.03.136.046.203l.16-.076m6.248 7.217l.164.023.465.067.836.119-.05.746-.021.344c-.541-.036-1.107-.558-1.334-1.131-.022-.056-.045-.111-.06-.168m2.285.326c-.574-.387-.86-.761-.736-1.428.974.063.846.662.736 1.428m-1.346 1.993a2.4 2.4 0 001.346.412c.051 0 .102-.012.153-.016a2.997 2.997 0 01-.408-.811c-.132-.407.19-.7.612-.61.106.022.208.054.305.092a2.4 2.4 0 01.874-1.156c.058-.09.118-.176.188-.257a10.23 10.23 0 01-1.278-1.068c-.285-.288-.035-.718.45-.746.107.059.275.124.41.23l.03-.043c.038.043.072.099.107.157.326.292.647.593.939.916l.082-.045c-.037-.55-.194-1.162-.655-1.73-.386-.478-1.115-1.063-2.39-1.146a2.422 2.422 0 00-.54.033c-.985.16-1.788.91-1.978 1.925-.14.74-.118 1.696.486 2.618.28.432.689.856 1.268 1.245m2.123 1.067l.229.729a2.402 2.402 0 001.19 1.419c.327.169.685.253 1.047.262a2.384 2.384 0 01-.584-.7l-.396-.72h-.003c-.513-.307-1.037-.61-1.483-.99"/><path d="M61.18 13.433c.184.07.35.17.5.287a2.356 2.356 0 01.055-.728c.063-.258.178-.496.319-.714-.41.29-.71.693-.874 1.155"/><path d="M63.227 11.283l-.093.052-.1.055-.052.031-.082.045.059.061c.122.14.12.387.175.584-.226.031-.528.172-.667.076-.077-.053-.15-.113-.225-.168-.07.081-.13.168-.188.258a2.38 2.38 0 00-.32.714 2.36 2.36 0 00-.053.73 2.2 2.2 0 01.73 1.041c.02-.149.05-.299.1-.445a2.406 2.406 0 011.299-1.429l.309-.136a2.404 2.404 0 013.145 1.161l.107.223a2.408 2.408 0 00-.274-.845l-.586-1.067a2.397 2.397 0 00-1.11-1.02c-.11-.05-.218-.1-.336-.134a2.402 2.402 0 00-1.838.213"/><path d="M63.44 14.23l.33-.112c.14.402.28.804.422 1.207l-.373.12-.38-1.216m1.548.219l-.248.152c-.225-.343-.447-.687-.67-1.031.111-.064.223-.125.334-.188.194.357.39.71.584 1.067m.3 1.539l-.497-.903c.102-.044.203-.09.304-.133l.433.905-.24.13m-1.168-3.234l-.31.137a2.406 2.406 0 00-1.298 1.429 2.38 2.38 0 00-.1.445c.036.104.064.21.085.32.078.409.339.785.552 1.253-.097.035-.213.116-.265.088l.395.72a2.415 2.415 0 00.98.962c.16.085.328.156.503.203-.038-.045-.075-.092-.115-.135-.437-.473-.273-.752.163-.891.438.293.846.496 1.156.8.055.053.1.121.14.193.148-.047.293-.104.434-.18l.23-.126.01-.005a2.395 2.395 0 001.112-1.315c.204-.58.19-1.234-.094-1.83l-.326-.685-.107-.222a2.405 2.405 0 00-3.145-1.162M34.535 28.69l-.649-.379.213-.31c.2.141.4.285.598.427l-.162.261m-2.155-.562c.084-.037.305-.22.484-.185.28.055.753.255.753.395.002.41-.188.844-.74.79a2.705 2.705 0 01-.84-.234 1.73 1.73 0 00-.51-.16c.006.034.004.07.012.103.078.35.237.67.453.948.132-.047.262-.08.382-.06 1.12.195 2.26.354 3.338.695.12.038.223.083.32.133a2.38 2.38 0 00.544-.59l.162-.262a2.4 2.4 0 00-.64-3.226l-.597-.429a2.407 2.407 0 00-1.788-.417c-.01.002-.02.001-.032.002a2.414 2.414 0 00-1.567 1.012l-.21.305a2.45 2.45 0 00-.206.38c.096-.007.191-.02.287-.026.112-.005.247.505.395.826m27.833 52.049l.286.034a2.395 2.395 0 001.526-.328h-2.708c.268.15.571.255.896.294"/></g></svg>