<svg height="82" width="88" xmlns="http://www.w3.org/2000/svg"><g fill="#fff"><path d="M65.065 7.03h3.518c.025.098.107.098.185.115.398.062.796.128 1.195.187a8.82 8.82 0 011.503.409c.337.12.668.257.99.413.484.21.932.498 1.325.851.41.384.742.82.909 1.363.062.189.074.39.032.584a1.83 1.83 0 01-.876 1.217 3.44 3.44 0 01-1.195.458c-.028 0-.052.03-.098.06.034.05.072.095.114.137.236.195.471.39.713.584.162.132.292.298.382.487.134.26-.007.516-.302.526-.475.015-.95.017-1.426.012-.263 0-.273 0-.327.267a8.24 8.24 0 01-.207.893c-.12.384-.259.762-.419 1.13a33.386 33.386 0 01-.727 1.534c-.28.558-.577 1.108-.864 1.662-.04.082-.075.166-.105.252a.24.24 0 00.078.281c.069.06.161.089.253.077.436-.021.87-.047 1.307-.061a9.637 9.637 0 001.084-.13c.522-.08 1.046-.134 1.57-.195.174-.022.348-.041.521-.07.443-.076.883-.167 1.327-.232.238-.037.468-.112.682-.224.637-.328 1.245-.71 1.817-1.14a23.137 23.137 0 002.261-1.982c.45-.434.896-.876 1.353-1.298.26-.227.488-.489.676-.778a.343.343 0 00.014-.398.934.934 0 01-.098-.253c-.127-.506-.036-1.01.044-1.51.049-.3.129-.596.195-.896a2.473 2.473 0 00-.242-1.611c-.034-.07-.081-.132-.114-.203a.147.147 0 01.091-.231.842.842 0 01.959.24c.22.234.364.53.413.847.007.061.012.148.097.147a.185.185 0 00.129-.097c.267-.469.499-.957.693-1.46.09-.237.2-.467.307-.696.05-.106.134-.116.213-.029a.259.259 0 01.066.117c.048.25.118.494.097.753a2.15 2.15 0 01-.152.722.292.292 0 000 .317c.057-.064.103-.114.146-.166.167-.195.325-.407.5-.6.214-.236.44-.462.66-.692.122-.125.219-.113.278.047a.79.79 0 01.02.61 4.918 4.918 0 01-.292.573c-.14.226-.305.437-.457.656-.034.048-.059.105-.098.173a.45.45 0 00.318-.14c.419-.33.84-.654 1.265-.974.122-.097.23-.055.266.09a.836.836 0 01-.021.556 1.48 1.48 0 01-.37.545c-.05.045-.114.097-.074.195l.803-.022v.274c-.028.013-.066.02-.084.042-.142.178-.33.316-.542.4-.184.08-.37.155-.557.231a.86.86 0 00-.567.707 5.92 5.92 0 01-.353 1.235 2.46 2.46 0 01-.097.234c-.089.18-.188.355-.298.523a1.67 1.67 0 01-.607.512.487.487 0 00-.25.284c-.021.061-.054.118-.08.178-.11.257-.22.511-.204.804a2.324 2.324 0 01-.453 1.484c-.324.463-.681.902-1.024 1.354-.389.501-.806.98-1.249 1.435a17.634 17.634 0 01-2.541 2.246c-.51.362-1.04.694-1.589.993-.427.24-.886.417-1.363.528a6.088 6.088 0 00-.66.173c-.626.22-1.255.432-1.866.682-.528.219-1.038.486-1.547.744-.292.151-.57.34-.853.511a.538.538 0 00-.285.438 5.81 5.81 0 01-.097.579c-.046.249-.084.501-.15.745a11.86 11.86 0 01-.538 1.65c-.2.458-.376.927-.584 1.382-.108.235-.144.454-.026.69.019.041.035.084.049.127a1.78 1.78 0 01-.148 1.653c-.014.023-.03.043-.042.065a.097.097 0 00.045.147.46.46 0 00.108.043l1.434.38c.54.142 1.082.28 1.622.426.238.066.47.15.706.227.507.165 1.019.315 1.518.5.67.25 1.334.515 1.992.797.538.229 1.07.48 1.593.738.32.156.626.344.94.518a10.6 10.6 0 012.067 1.494c.302.278.579.58.829.906.405.526.778 1.077 1.162 1.616.11.153.235.292.344.45a7.19 7.19 0 01.876 1.673c.176.47.294.961.35 1.46.03.285.13.494.377.64.247.15.442.373.555.64.096.212.18.43.25.654.13.362.215.738.252 1.12.02.312.014.626.016.938a3.324 3.324 0 01-.244 1.218c-.097.248-.21.487-.328.728a.195.195 0 00.032.247c.111.118.22.24.326.363.279.304.472.677.56 1.08.082.395.142.794.18 1.196.06.681.048 1.355-.183 2.008a.419.419 0 00.07.435c.217.281.329.63.314.986a9.175 9.175 0 01-.067.894c-.098.831-.472 1.517-1.169 1.993-.438.301-.914.548-1.379.808-.334.187-.681.358-1.02.53-.503.257-1.007.515-1.516.76-.323.155-.655.291-.984.43a.693.693 0 00-.364.364c-.3.649-.668 1.263-1.098 1.833-.458.613-1.034 1.08-1.64 1.52-.389.281-.84.436-1.292.583a21.26 21.26 0 01-.99.298 9.166 9.166 0 01-.834.195c-.454.086-.91.158-1.363.235a.395.395 0 01-.117.007c-.27-.04-.53.033-.792.071-.07.008-.142.011-.213.01-.233.009-.467.014-.7.022-.058 0-.115.025-.174.023-.369-.007-.739-.014-1.108-.03a2.89 2.89 0 01-.638-.06 5.011 5.011 0 01-.797-.316c-.26-.125-.522-.103-.78-.053-.203.038-.394.132-.596.178-.352.082-.663.301-1.037.31a.335.335 0 00-.091.033l-.831.28c-.025.008-.051.01-.076.016-.175.049-.35.097-.523.147-.068.02-.132.056-.202.074-.446.112-.891.243-1.344.324-.518.093-.99.355-1.521.39a.525.525 0 00-.112.033c-.133.036-.263.074-.397.107-.278.067-.556.131-.836.194-.64.15-1.278.303-1.918.452-.304.07-.61.135-.915.2-.407.086-.815.169-1.222.256-.229.048-.456.107-.682.153-.298.062-.597.121-.898.173-.167.028-.337.028-.502.058-.21.039-.406.144-.63.108-.023 0-.049.013-.074.017l-.904.146-.614.097c-.077.014-.153.034-.23.045a3.921 3.921 0 01-.46.054 1.91 1.91 0 00-.595.087.26.26 0 01-.078 0l-.292.018a11.826 11.826 0 00-.621.06c-.122.017-.243.048-.366.06-.356.032-.716.038-1.07.097a5.919 5.919 0 01-1.188.047.522.522 0 00-.507.253c-.218.324-.446.64-.682.952a4.849 4.849 0 01-2.097 1.608c-.506.205-1.026.373-1.557.503-.726.18-1.45.372-2.2.43a7.172 7.172 0 00-.292.023.206.206 0 00-.195.112h-3.125c-.059-.097-.161-.097-.254-.125a6.245 6.245 0 01-3.534-2.345 13.56 13.56 0 01-2.233-3.96c-.052-.141-.106-.28-.144-.426-.14-.533-.292-1.062-.396-1.609a16.48 16.48 0 01-.264-2.221c-.016-.364-.025-.73-.034-1.093a.464.464 0 00-.237-.402 4.775 4.775 0 00-.134-.081l-1.503-.876-3.685-2.132-2.758-1.589-2.52-1.453-2.908-1.681-1.827-1.054c-.154-.088-.206-.078-.287.09a7.954 7.954 0 01-.882 1.426c-.572.743-1.235 1.373-2.134 1.705a2.45 2.45 0 01-.584.154c-.42.044-.844.056-1.265.083-.786.053-1.573.093-2.358.163-1.125.097-2.076-.267-2.876-1.042a5.867 5.867 0 01-1.044-1.454 11 11 0 01-.831-1.953 12.168 12.168 0 01-.42-1.803 11.188 11.188 0 01-.158-1.552c-.013-.854-.029-1.707.092-2.555.019-.129.03-.259.034-.39a1.044 1.044 0 00-.039-.204.487.487 0 00-.097.02c-.195.098-.397.195-.594.293-.13.065-.15.073-.223-.047-.122-.195-.229-.407-.338-.613-.035-.067-.039-.158-.145-.159v-2.26c.08-.005.111-.06.125-.128.013-.067.024-.14.032-.212l.12-1.265c.065-.642.126-1.283.195-1.924.063-.563.13-1.125.207-1.686.113-.832.225-1.665.36-2.493.115-.699.256-1.395.39-2.09.172-.876.39-1.739.64-2.595.263-.926.58-1.836.949-2.726.217-.552.488-1.08.81-1.579.307-.453.666-.85 1.182-1.07.118-.06.21-.16.26-.283.106-.215.21-.432.322-.646.527-1.022 1.141-1.987 1.947-2.817.486-.5.978-.994 1.476-1.48.19-.178.341-.394.443-.634.118-.29.293-.556.514-.779.354-.35.8-.596 1.287-.705.277-.068.562-.111.843-.164.621-.115 1.24-.24 1.862-.34.546-.086 1.097-.15 1.646-.214.53-.061 1.062-.11 1.594-.162.271-.027.544-.058.817-.073.461-.026.925-.022 1.385-.063 1.37-.12 2.745-.14 4.119-.16 1.093-.016 2.187.01 3.281.02.651.005 1.303.009 1.954.02.598.011 1.198.023 1.797.047.552.023 1.104.08 1.655.09 1.374.022 2.748.034 4.122.035 1.071 0 2.135.064 3.2.142.578.042 1.154.111 1.733.145 1.314.076 2.616.253 3.919.434.566.078 1.13.178 1.695.28.505.09.997.244 1.51.305l.074.02.89.228c.51.131 1.023.248 1.528.397.668.194 1.33.409 1.99.629.364.121.72.266 1.07.411.52.212 1.037.425 1.548.65.38.17.751.358 1.127.537.159.075.187.073.309-.05s.244-.254.36-.385a5.722 5.722 0 011.774-1.385c.461-.23.945-.41 1.443-.538.292-.072.43-.22.431-.526a1.32 1.32 0 01.232-.716c.209-.312.533-.529.902-.601.127-.03.255-.054.38-.089.24-.066.318-.178.302-.427-.017-.25-.037-.48-.05-.72a.241.241 0 00-.195-.255.77.77 0 01-.448-.325c-.264-.36-.382-.779-.487-1.202a.364.364 0 01-.01-.097c0-.255-.009-.509.008-.762a1.82 1.82 0 01.097-.436c.055-.166.127-.327.195-.487a.835.835 0 00.058-.42c-.03-.362-.059-.725-.08-1.09-.013-.238-.071-.305-.315-.33a3.128 3.128 0 01-.406-.053c-.788-.195-1.19-.721-1.146-1.475.034-.504.204-.99.492-1.404.414-.615 1.006-1 1.681-1.25.77-.285 1.558-.504 2.391-.534.111 0 .221-.02.331-.032.071-.009.138-.028.165-.11zm.264 26.831v.027h2.833c.047 0 .128-.025.131-.048a.215.215 0 00-.042-.153c-.083-.108-.181-.205-.27-.31-.503-.604-1-1.215-1.515-1.813-.305-.355-.641-.681-.954-1.033a43.053 43.053 0 00-2.413-2.503c-1.098-1.046-2.21-2.08-3.423-2.997a60.89 60.89 0 00-2.13-1.551 2.373 2.373 0 00-1.655-.405c-.876.097-1.761.184-2.641.272-.253.026-.507.037-.76.064-.698.076-1.396.157-2.095.237-.375.044-.75.09-1.124.135-.149.019-.298.035-.447.052-.627.07-1.255.134-1.882.21-.718.087-1.434.183-2.15.278-.42.054-.839.114-1.258.169-.504.065-1.009.123-1.512.195s-.974.148-1.468.217c-.96.136-1.922.264-2.88.406-.799.118-1.596.245-2.391.381-.578.098-1.149.227-1.725.333a1.412 1.412 0 00-.746.398c-.17.165-.179.239-.057.44.178.292.368.584.517.895a92.25 92.25 0 011.089 2.356c.43.961.848 1.928 1.265 2.895.14.32.28.643.41.973a248.176 248.176 0 011.345 3.454c.097.262.194.526.296.785.102.269.27.508.487.697a.507.507 0 00.398.124c.13-.015.258-.04.383-.077.292-.09.584-.194.87-.286l.592-.195c.401-.134.8-.275 1.202-.405.432-.139.869-.268 1.304-.4.46-.141.92-.282 1.38-.421.175-.053.35-.105.526-.152.465-.123.931-.24 1.397-.364.564-.152 1.126-.317 1.691-.463.737-.19 1.478-.366 2.217-.546.316-.077.63-.158.95-.222.611-.121 1.213-.292 1.833-.38.52-.073 1.036-.195 1.558-.278.673-.112 1.349-.213 2.024-.316.11-.017.22-.016.33-.03.62-.075 1.24-.16 1.86-.229.356-.039.715-.05 1.071-.082.94-.084 1.878-.194 2.823-.254.918-.065 1.838-.06 2.756-.08zm-33.273 2.174h.02l-.04-.584c-.015-.195-.016-.366-.046-.545a37.6 37.6 0 00-.292-1.574 17.591 17.591 0 00-.565-2.029 63.79 63.79 0 00-.723-2.018 6.822 6.822 0 00-.988-1.789 5.702 5.702 0 00-2.29-1.777c-.628-.267-1.259-.53-1.88-.813-.906-.414-1.841-.75-2.779-1.086-.165-.06-.333-.113-.494-.179a.316.316 0 00-.397.113c-.297.346-.609.681-.894 1.034a19.47 19.47 0 00-1.796 2.648 18.503 18.503 0 00-1.662 3.943 15.94 15.94 0 00-.574 2.69.63.63 0 01-.028.172c-.077.188.01.324.21.417l.585.264 1.83.827 1.836.819c.38.168.762.334 1.143.503.558.246 1.121.487 1.673.747.236.11.43.128.65-.038.45-.346.96-.605 1.503-.765a4.22 4.22 0 01.991-.208 16.54 16.54 0 011.6-.005 7.489 7.489 0 011.998.43c.474.163.868.035 1.241-.243a.505.505 0 00.22-.455c-.011-.167-.035-.33-.052-.499zM43.77 63.792V63.5a11.407 11.407 0 00-.257-2.462 5.868 5.868 0 00-.35-.993c-.183-.43-.389-.851-.593-1.273a9.022 9.022 0 00-1.114-1.763 11.36 11.36 0 00-1.481-1.524 5.341 5.341 0 00-2.932-1.253 5.127 5.127 0 00-2.155.247 4.593 4.593 0 00-1.482.811 7.481 7.481 0 00-1.691 1.956 11.24 11.24 0 00-1.051 2.256c-.158.469-.292.945-.4 1.427-.071.318-.114.64-.162.962-.113.68-.162 1.367-.148 2.056.048 1.198.135 2.393.364 3.571.09.508.222 1.006.396 1.49.153.409.292.823.465 1.223.32.727.712 1.42 1.168 2.072.362.533.772 1.033 1.224 1.492a6.035 6.035 0 003.59 1.772 4.38 4.38 0 002.61-.487 5.416 5.416 0 001.44-1.06c.276-.278.536-.57.779-.877.48-.629.84-1.33 1.168-2.044a.535.535 0 00.024-.45 4 4 0 01-.262-1.177c-.044-.611.022-1.194.395-1.713a.876.876 0 00.13-.362c.054-.327.078-.66.133-.986.147-.863.167-1.74.192-2.619zm43.1-5.938a4.893 4.893 0 000-.507 1.425 1.425 0 00-.097-.394c-.082-.195-.15-.195-.307-.052a13.6 13.6 0 01-1.028.928 15.224 15.224 0 01-2.477 1.48c-.46.227-.925.445-1.39.664-.33.156-.66.31-.994.456-.333.145-.681.281-1.026.424-.42.175-.835.362-1.257.53-.755.303-1.514.594-2.27.889-.068.026-.133.055-.195.08l-1.928.68c-.601.213-1.2.43-1.802.636-.645.223-1.292.441-1.94.655-.79.26-1.582.519-2.375.778-.154.051-.31.098-.467.142-.448.132-.897.261-1.346.396-.286.084-.569.183-.857.263-.584.163-1.18.318-1.772.477-.15.04-.3.083-.451.123-.358.096-.715.19-1.071.283-.15.04-.303.074-.455.112l-.427.105c-.145.036-.292.076-.433.107-.141.03-.292.048-.441.081-.45.098-.888.26-1.35.31a.156.156 0 00-.074.02c-.14.118-.318.104-.481.139-.127.028-.25.068-.377.097a.98.98 0 01-.267.044 1.802 1.802 0 00-.668.119 1.16 1.16 0 01-.303.064.706.706 0 00-.39.097.251.251 0 01-.147.037c-.372-.018-.719.098-1.071.182-.211.052-.437.037-.643.124a2.239 2.239 0 00-.976.153.564.564 0 01-.153.023c-.148.01-.298.01-.445.03-.292.04-.577.152-.883.122a.907.907 0 00-.248.047c-.172.035-.343.081-.517.097-.42.05-.84.097-1.265.13-.805.057-1.611.104-2.418.143a10.64 10.64 0 01-1.929-.098c-.7-.09-1.37-.345-1.952-.745-.133-.098-.215-.06-.244.103-.096.6-.082 1.211.042 1.805.056.3.244.56.512.705.241.142.492.265.751.37.714.286 1.47.345 2.225.354.657.007 1.315-.032 1.972-.053.078-.005.156-.016.233-.031l.767-.119h.058c.238-.021.475-.043.712-.067.039 0 .075-.024.113-.03.097-.02.201-.037.302-.052.072-.01.144-.01.214-.022.314-.05.63-.066.943-.146.344-.087.706-.098 1.059-.145.259-.034.518-.06.779-.098.524-.085 1.037-.24 1.574-.257a.397.397 0 00.057-.01c.523-.107 1.047-.21 1.569-.32.413-.088.825-.186 1.238-.278.608-.137 1.219-.272 1.827-.414.304-.07.603-.158.907-.23.354-.085.717-.134 1.046-.306a.18.18 0 01.097-.026c.217.024.404-.077.603-.135.25-.07.506-.121.759-.182.219-.053.426-.137.653-.179.373-.084.742-.189 1.104-.312.13-.038.258-.085.39-.121.212-.059.432-.097.639-.17.207-.074.413-.188.648-.184a.42.42 0 00.112-.035c.292-.091.584-.185.876-.274.423-.13.848-.254 1.266-.39.532-.172 1.06-.356 1.591-.533.39-.13.78-.25 1.168-.39.54-.188 1.077-.389 1.615-.583.69-.252 1.384-.499 2.072-.757.779-.292 1.557-.59 2.328-.9.839-.336 1.672-.688 2.505-1.038.876-.367 1.761-.715 2.603-1.157.743-.39 1.48-.79 2.213-1.2a2.79 2.79 0 001.037-.989c.315-.5.464-1.085.429-1.675zm-75.667-36.34c-.468 0-.937.006-1.406 0a.815.815 0 00-.615.244c-.121.12-.25.23-.374.344-.773.7-1.462 1.488-2.054 2.346-.28.415-.54.844-.779 1.281-.238.437-.466.9-.687 1.355-.077.157-.117.33-.186.487-.097.23-.097.44.086.63.032.033.055.074.09.103.415.355.819.725 1.25 1.06.354.266.723.512 1.105.736.691.416 1.385.83 2.094 1.214.708.383 1.438.732 2.16 1.092.354.176.713.348 1.07.515.53.248 1.063.487 1.593.737.115.054.165.037.2-.085.006-.018.007-.039.011-.057.151-.66.292-1.323.456-1.978.176-.68.39-1.35.64-2.007a21.027 21.027 0 013.524-6.068c.101-.12.198-.241.292-.366.098-.13.069-.202-.084-.235-.195-.04-.382-.078-.573-.12a383.66 383.66 0 01-1.714-.374c-.445-.097-.89-.195-1.333-.3-.854-.215-1.725-.32-2.598-.426a19.845 19.845 0 00-2.168-.128zm56.333 26.91c.122-.016.245-.029.367-.046a422.141 422.141 0 001.963-.321c.08-.027.098-.093.035-.146a.607.607 0 00-.155-.078c-.243-.097-.487-.18-.728-.274-.195-.075-.39-.153-.578-.239-.474-.213-.973-.372-1.418-.648a2.847 2.847 0 01-.656-.58c-.106-.123-.087-.218.045-.309.021-.014.047-.021.07-.034.437-.245.876-.492 1.311-.734.735-.405 1.473-.804 2.208-1.21.512-.284 1.022-.571 1.445-.989.266-.264.477-.564.535-.933.124-.792-.155-1.453-.749-1.97a3.396 3.396 0 00-1.372-.719c-.302-.08-.609-.14-.911-.211-.242-.057-.48-.123-.72-.177-.338-.075-.675-.14-1.012-.214-.305-.066-.61-.132-.912-.21a3.045 3.045 0 01-.584-.2 1.666 1.666 0 01-.451-.333c-.208-.221-.2-.357-.023-.608.032-.049.068-.095.108-.139.248-.284.525-.543.826-.77.195-.137.375-.282.56-.425l1.963-1.515a.365.365 0 00.086-.078c.016-.023.03-.069.016-.088a.122.122 0 00-.09-.055.695.695 0 00-.203.063c-.258.123-.513.255-.771.375-.682.315-1.37.633-2.061.935-.542.236-1.092.455-1.642.672-.374.15-.752.29-1.134.42-.596.204-1.196.398-1.796.593a11.79 11.79 0 01-.673.194c-.487.13-.966.265-1.452.384-.384.097-.758.234-1.158.264-.067 0-.163 0-.165.097s.086.102.156.113c.07.01.117.013.175.017.156.015.314.019.467.046.903.16 1.804.326 2.707.487.269.05.536.106.804.158.16.03.32.055.479.09.337.073.67.167 1.01.225a10.2 10.2 0 011.507.39c.413.137.814.309 1.217.475a1.1 1.1 0 01.428.264c.123.14.14.251.028.402-.072.1-.158.19-.255.266-.401.292-.806.572-1.218.847-.314.21-.633.413-.96.599-.622.354-1.252.695-1.879 1.04l-1.624.893c-.445.243-.891.487-1.335.732-.216.12-.425.251-.643.368-.164.087-.179.146-.044.27a4.776 4.776 0 001.466.8c.471.17.955.303 1.446.402.626.115 1.248.255 1.873.382.471.098.944.186 1.416.287.279.06.551.151.833.205.38.082.756.188 1.123.317.225.086.448.189.7.18zm2.531-25.332c-.01.24-.01.487-.033.734s-.066.477-.104.715a.174.174 0 01-.138.168.186.186 0 01-.19-.09.791.791 0 00-.098-.12.105.105 0 00-.185.046c-.02.061-.037.124-.048.188-.04.161-.195.232-.318.077a1.41 1.41 0 00-.584-.414c-.643-.257-1.293.236-1.205.863.033.337.039.676.017 1.013a5.84 5.84 0 01-.34 1.776 5.096 5.096 0 00-.284 1.919c-.002.275.08.544.235.772.15.23.432.34.7.272.153-.026.308-.04.464-.044a.773.773 0 00.473-.155c.264-.204.478-.466.625-.766.2-.445.405-.887.613-1.327.133-.29.24-.591.316-.9.03-.112-.013-.162-.128-.153a.255.255 0 00-.097.025c-.177.097-.372.112-.564.146a6.78 6.78 0 01-1.83.05.439.439 0 01-.167-.043c-.097-.053-.097-.154.008-.195a.544.544 0 01.246-.031c.7.08 1.41.034 2.094-.136.126-.031.249-.075.366-.13.23-.11.315-.314.349-.553.076-.528.163-1.054.23-1.583.03-.243.025-.492.032-.739 0-.076-.032-.17.068-.2.1-.028.14.05.177.121.04.075.077.152.108.23.061.173.12.345.171.52.069.23.137.266.349.167.372-.17.745-.342 1.115-.515.855-.398 1.71-.798 2.564-1.199.6-.281 1.194-.575 1.798-.85a14.997 14.997 0 003.483-2.244 12.85 12.85 0 002.311-2.58c.311-.474.586-.97.822-1.485.12-.25.097-.313-.132-.465-.371-.242-.745-.48-1.117-.72-.189-.12-.26-.117-.43.04-.169.156-.345.317-.506.486a29.696 29.696 0 01-1.868 1.804 15.91 15.91 0 01-2.762 2.002 5.146 5.146 0 01-.886.404c-.577.186-1.18.263-1.78.344-.702.098-1.406.186-2.11.264-.635.07-1.266.12-1.906.177-.065.007-.131 0-.195.014-.103.02-.129.068-.097.166.028.08.064.157.09.237.193.614.285 1.254.275 1.897zM9.075 47.332h-.008c-.014-.28-.023-.56-.043-.84a13.32 13.32 0 00-.082-.834c-.038-.277-.097-.578-.152-.866-.076-.402-.127-.809-.316-1.182-.145-.288-.292-.573-.559-.767-.378-.275-.761-.533-1.215-.69a2.828 2.828 0 00-1.875.008c-.264.093-.51.23-.727.408a4.545 4.545 0 00-.83.876 7.204 7.204 0 00-.981 1.876 13.457 13.457 0 00-.496 1.825 12.528 12.528 0 00-.222 2.351c-.007.604.046 1.209.08 1.814.053.766.189 1.525.403 2.264.185.672.44 1.323.76 1.942.254.522.577 1.007.961 1.442.479.525 1.032.923 1.74 1.095.633.153 1.232.05 1.803-.215.492-.226.884-.59 1.238-.998a6.55 6.55 0 00.848-1.266 9.167 9.167 0 00.915-2.623c.048-.266-.006-.457-.21-.618a3.084 3.084 0 01-.794-1.412 5.99 5.99 0 01-.17-1.274c-.03-.696-.089-1.39-.058-2.088.001-.074-.009-.153-.012-.23zm52.51 6.414v.007c.34-.013.682-.023 1.015-.038.17-.007.201-.061.123-.205l-.252-.463-1.197-2.191c-.269-.487-.538-.981-.803-1.474a.559.559 0 00-.487-.33c-.455-.024-.91-.06-1.363-.08-.526-.024-1.055-.021-1.58-.061-1.032-.077-2.062-.176-3.093-.267-.434-.038-.869-.07-1.302-.116-.259-.027-.514-.08-.772-.113-.39-.048-.779-.08-1.163-.135-.657-.097-1.313-.195-1.97-.3-.031 0-.063-.015-.097-.017-.112-.01-.168.023-.177.13a6.406 6.406 0 00-.046.818c.02.508.102 1.01.246 1.498.139.462.342.901.603 1.306.505.78 1.195 1.37 1.947 1.9a.72.72 0 00.422.127c.286 0 .573.014.86.026.844.03 1.69.088 2.535.091 1.42.007 2.839-.016 4.258-.038.755-.014 1.523-.052 2.29-.077zM9.383 49.755c.019.47.104.934.254 1.38.187.529.465.984.974 1.272.786.445 1.569.9 2.35 1.353 1.11.644 2.219 1.288 3.326 1.933.866.504 1.733 1.008 2.6 1.51a1194.284 1194.284 0 016.46 3.725l2.13 1.23 1.934 1.107c.18.098.263.059.292-.144.066-.528.135-1.058.203-1.586.013-.103.02-.208.04-.31.04-.225-.05-.368-.248-.477-.53-.292-1.053-.595-1.579-.894l-3.546-2.016-2.852-1.616c-.99-.563-1.98-1.127-2.967-1.692l-3.189-1.818-2.101-1.2a705.588 705.588 0 01-3.882-2.214c-.117-.066-.19-.027-.195.107-.01.116-.007.232-.007.35zm73.148-2.025h.03c-.048-.681-.091-1.363-.147-2.044a8.94 8.94 0 00-.116-.87c-.08-.455-.173-.908-.264-1.363-.029-.14-.063-.28-.104-.417s-.11-.147-.208-.04a2.212 2.212 0 01-.15.18c-.346.304-.681.624-1.05.903-.463.357-.945.691-1.443 1-.642.399-1.312.75-2.005 1.054-.364.156-.722.33-1.091.475-.441.173-.889.332-1.339.487-.412.139-.83.264-1.249.389-.286.084-.584.137-.866.227-.553.174-1.125.267-1.689.395-.457.103-.919.178-1.381.257-.533.09-1.066.174-1.6.253-.277.04-.557.061-.835.097l-1.63.181c-.142.016-.284.034-.427.041-.851.046-1.703.091-2.555.135-.24.011-.481.016-.722.025-.185.007-.213.052-.126.21.06.108.128.212.186.321l1.061 1.979c.313.584.63 1.168.938 1.752.291.583.78 1.044 1.38 1.3a3.807 3.807 0 002.008.278c.419-.056.837-.12 1.255-.183.399-.062.797-.123 1.194-.195.32-.056.639-.123.958-.187.584-.117 1.162-.222 1.737-.36.6-.142 1.195-.313 1.789-.486a43.903 43.903 0 001.624-.487 31.59 31.59 0 001.797-.647 42.792 42.792 0 002.148-.93c.6-.282 1.178-.61 1.769-.912.278-.142.524-.34.721-.584.248-.28.39-.64.4-1.014v-1.22zM66.664 12.775l.017-.06a2.036 2.036 0 00-.153-.163c-.059-.052-.13-.087-.19-.139a.449.449 0 00-.342-.11c-.157.008-.312.029-.468.026a.681.681 0 00-.599.317c-.199.265-.406.524-.62.779a.699.699 0 00-.196.39c-.011.115-.048.228-.068.344a.973.973 0 01-.41.619c-.13.097-.204.091-.292-.049-.066-.11-.105-.237-.165-.352a5.764 5.764 0 00-.361-.66c-.185-.26-.452-.25-.653 0-.013.014-.024.031-.035.047a1.752 1.752 0 00-.309.792 2.987 2.987 0 00.176 1.557c.075.188.173.365.292.528.16.229.414.25.628.074.04-.033.078-.07.12-.097.042-.028.106-.063.159-.01a.12.12 0 010 .175.39.39 0 01-.07.07.41.41 0 00-.146.308c-.017.513.022 1.021.292 1.475.157.27.335.526.532.769.34.413.755.752 1.168 1.089.384.324.836.557 1.323.681.47.109.954.142 1.434.098a.858.858 0 00.365-.121c.476-.287.87-.694 1.142-1.179.246-.436.468-.886.695-1.332.302-.598.602-1.198.894-1.8.088-.181.16-.37.217-.563.054-.195 0-.239-.195-.22-.065.009-.13.013-.195.014a1.85 1.85 0 01-1.045-.322.276.276 0 00-.088-.04c-.11-.03-.164.02-.142.132.02.075.036.151.048.228.023.207.043.414.059.622a1.46 1.46 0 010 .31.552.552 0 01-.364.449c-.366.136-.734.054-1.094-.039-.107-.028-.167-.142-.128-.208.054-.098.14-.059.208-.029.23.093.481.127.729.098.307-.022.46-.195.436-.501-.01-.136-.058-.268-.07-.404a2.328 2.328 0 01-.02-.619 4.15 4.15 0 00.072-.774.281.281 0 01.02-.133.182.182 0 01.11-.085c.022 0 .07.052.083.088a.73.73 0 01.007.155c0 .04.017.08.031.149a1.46 1.46 0 00.155-.12.565.565 0 01.497-.177c.22.023.439.053.658.086.121.019.241.052.364.072.18.027.252-.026.286-.204.012-.057.022-.115.033-.172.032-.17 0-.224-.178-.253-.292-.049-.584-.089-.867-.138a9.411 9.411 0 01-.974-.182c-.557-.157-1.105-.345-1.655-.528-.53-.176-1.042-.408-1.601-.487a.128.128 0 01-.056-.014 1.141 1.141 0 01-.11-.097c.04-.035.076-.091.122-.097.09-.01.181-.015.272-.014a.807.807 0 01.211-.048zM56.13 22.792c-.027-.124-.117-.144-.195-.177-.35-.155-.7-.311-1.054-.46a.963.963 0 00-.317-.082c-.364-.02-.73-.039-1.093-.035a488.82 488.82 0 00-4.024.051c-.5.008-1.002.022-1.503.05-.61.035-1.22.087-1.83.134-.831.065-1.661.125-2.49.203-.87.08-1.736.176-2.604.272-.407.045-.814.103-1.22.158-.528.071-1.058.14-1.585.218-.464.067-.926.144-1.39.217-.463.073-.95.145-1.425.226-.417.071-.834.146-1.247.23s-.802.173-1.199.274c-.232.059-.453.168-.688.216-.342.069-.584.27-.806.515a.225.225 0 00-.03.318c.06.092.129.18.203.262.234.263.471.522.704.785.118.135.15.144.286.037a2.416 2.416 0 011.088-.5c.744-.125 1.486-.267 2.232-.384.918-.143 1.84-.263 2.76-.4.54-.08 1.079-.178 1.62-.257.811-.118 1.624-.227 2.433-.337.245-.033.492-.052.738-.084.665-.085 1.329-.175 1.993-.26.562-.07 1.125-.133 1.686-.203.671-.082 1.342-.176 2.014-.253.876-.097 1.747-.187 2.62-.28l1.44-.151c.13-.014.258-.031.39-.044l1.321-.123c.337-.033.674-.063 1.01-.098a1.12 1.12 0 00.162-.038zm25.233 34.993h-.01v-1.054a.779.779 0 000-.117c-.02-.124-.077-.153-.19-.111-.232.085-.463.17-.697.246a120.5 120.5 0 01-1.76.576c-.293.097-.595.188-.892.283-.34.109-.682.214-1.02.326-.408.134-.813.274-1.22.412-.166.056-.332.114-.499.168-.47.152-.94.3-1.41.453-.402.13-.802.265-1.204.39-.514.164-1.03.323-1.543.486-.427.137-.852.281-1.277.42-.195.064-.382.13-.577.182-.194.052-.244.107-.244.312v.118l.131 1.89c.014.2.028.401.03.604 0 .308.048.348.343.242.599-.216 1.196-.439 1.793-.659l1.737-.641 1.72-.635c.56-.208 1.119-.422 1.678-.63.584-.216 1.169-.427 1.753-.644.329-.122.655-.252.984-.373.541-.202 1.085-.4 1.627-.6.152-.057.302-.12.453-.182a.376.376 0 00.252-.377c.009-.357.028-.721.042-1.085zm-53.454-39.2v.067l.168.078c.331.152.674.281.99.458a4.2 4.2 0 011.565 1.467c.222.384.379.803.466 1.239.04.177.09.352.133.53a.46.46 0 00.438.378c.098.009.195.018.292.033.78.122 1.558.243 2.332.368a5.6 5.6 0 002-.005 39.234 39.234 0 011.903-.328c.863-.124 1.73-.226 2.594-.338.486-.063.964-.154 1.454-.162.136 0 .272-.026.408-.04l2.467-.245c.123-.013.247-.027.367-.048.035-.007.066-.041.136-.088-.104-.016-.16-.027-.215-.034-.704-.085-1.41-.163-2.112-.26s-1.402-.217-2.102-.322c-.547-.083-1.095-.16-1.642-.24-.077-.011-.153-.028-.23-.041l-1.265-.223a430.78 430.78 0 00-1.595-.278c-.147-.025-.292-.043-.442-.074-.223-.046-.446-.091-.664-.155-.138-.042-.157-.111-.098-.243.015-.036.038-.068.055-.103.162-.326.325-.651.487-.98.063-.133.02-.195-.128-.202h-.39c-.533-.02-1.065-.057-1.599-.06-1.856-.01-3.71-.066-5.562-.171a.995.995 0 00-.211.021zm37.814 9.888c.13 0 .26.008.389 0 .267-.02.38-.12.444-.384.037-.152.07-.305.097-.458.098-.51.222-1.017.262-1.538.02-.266-.005-.52-.187-.736-.07-.084-.124-.185-.195-.265-.376-.413-.81-.733-1.385-.805-.149-.019-.292-.04-.447-.052-.374-.032-.716.028-.945.372l-.012.014c-.157.174-.312.35-.473.52-.11.118-.183.115-.297 0a.584.584 0 01-.052-.058 14.903 14.903 0 01-1.098-1.542 6.594 6.594 0 01-.887-2.418c-.018-.129-.027-.26-.053-.39-.032-.162-.11-.2-.268-.148-.185.06-.37.121-.557.178a5.501 5.501 0 00-1.445.681c-.52.337-.977.763-1.348 1.26-.103.139-.097.183.04.292.135.109.291.225.432.333l2.844 2.1c.121.09.174.086.28-.03a.828.828 0 01.09-.103c.064-.05.14-.091.212-.028.07.063.034.135 0 .194a.969.969 0 01-.111.136.149.149 0 000 .226c.097.097.188.194.292.292.629.576 1.265 1.148 1.89 1.725.162.141.355.243.564.297.068.02.138.037.206.059.553.187 1.134.28 1.718.276zM74.498 10.7c-.006-.042-.012-.12-.03-.195-.148-.638-.52-1.127-1.036-1.513-.852-.639-1.825-1.023-2.847-1.281a11.39 11.39 0 00-2.175-.353c-.409-.023-.817-.078-1.226-.073-.657.007-1.313.047-1.97.08-.345.017-.69.026-1.031.074-.6.081-1.191.223-1.763.422-.42.138-.817.342-1.173.605-.636.487-.91 1.152-.993 1.918-.016.135.051.194.189.173a.445.445 0 00.097-.022c.195-.064.382-.13.573-.195.532-.174 1.06-.354 1.595-.519a6.8 6.8 0 01.834-.202c.333-.058.67-.092 1.007-.125.738-.072 1.477-.143 2.216-.203a11.657 11.657 0 013.775.341c.596.142 1.177.337 1.738.584a3.646 3.646 0 011.412 1.076c.072.108.137.22.195.337.065.109.119.118.219.037a.464.464 0 00.07-.07c.208-.252.323-.568.324-.896zM15.02 33.61a.278.278 0 00.177.277c.318.147.634.3.953.448.115.054.175.019.203-.12a74.3 74.3 0 01.302-1.492c.118-.52.231-1.042.39-1.55.185-.596.396-1.186.634-1.762a19.1 19.1 0 011.9-3.516 22.75 22.75 0 011.74-2.207c.139-.156.116-.222-.08-.28-.331-.098-.66-.195-.987-.307a.262.262 0 00-.292.049 1.85 1.85 0 00-.14.136 20.28 20.28 0 00-1.631 2.141c-.481.713-.91 1.459-1.285 2.233a29.42 29.42 0 00-.81 1.86c-.211.545-.382 1.107-.542 1.67s-.292 1.133-.423 1.704c-.04.23-.067.465-.106.717zm35.755 20.076l.026-.046a1.85 1.85 0 00-.148-.166c-.223-.195-.457-.39-.672-.594-.876-.838-1.454-1.835-1.685-3.036a5.79 5.79 0 01-.085-1.709c.019-.18-.03-.297-.195-.375-.283-.128-.56-.271-.84-.407l-.615-.3a.367.367 0 00-.421.029c-.334.27-.67.537-1.002.81a.292.292 0 00-.092.368c.051.133.083.273.125.41.047.183.103.363.17.54.405.96.972 1.844 1.677 2.613.479.522 1.003 1.003 1.5 1.51a.9.9 0 00.642.276c.495.018.988.058 1.482.087.045 0 .09-.003.133-.01zM67.51 10.62c-.202 0-.404-.01-.606 0a20.96 20.96 0 00-3.115.39c-.502.103-1.005.208-1.508.314-.227.048-.277.129-.247.357.03.23.054.452.073.682.02.23.07.262.283.228.502-.081 1.002-.169 1.504-.24.612-.09 1.225-.163 1.838-.244a10.13 10.13 0 011.534-.129c.631.012 1.266.024 1.893.055.292.014.584.075.87.114.155.021.31.035.464.063l1.532.292c.148.028.204-.018.219-.17.012-.135.014-.272.029-.408.035-.337.022-.373-.303-.487-.783-.262-1.564-.53-2.382-.669a10.26 10.26 0 00-2.078-.148zm17.346-1.91c-.038.071-.077.134-.107.2-.195.438-.39.877-.591 1.313-.077.165-.176.318-.265.477-.171.307-.267.623-.11.968.045.097.088.202.137.301.185.361.271.764.251 1.169-.007.136-.01.273-.03.408-.006.038-.068.098-.097.098a.181.181 0 01-.126-.098.605.605 0 010-.194c.02-.174.022-.35.006-.524a4.929 4.929 0 00-.352-1.154.628.628 0 01-.071-.261c.02-.399-.098-.772-.195-1.151-.082-.351-.27-.635-.618-.779-.084-.034-.187-.068-.257.011s-.006.16.03.237c.154.336.243.7.26 1.07.025.525-.125 1.019-.238 1.519a3.772 3.772 0 00-.087 1.2.802.802 0 00.449.682c.515.264 1.031.524 1.548.784a.3.3 0 00.317-.013c.466-.311.846-.697 1.013-1.247.107-.355.189-.717.283-1.071a.432.432 0 00-.204-.52c-.408-.268-.81-.542-1.217-.814-.179-.12-.201-.189-.127-.39.048-.134.107-.266.145-.403.097-.338.184-.682.26-1.02.038-.185.065-.372.08-.56a.211.211 0 00-.087-.238zm-2.08 40.263l.056.023c.053-.042.11-.081.159-.128.048-.047.112-.127.171-.187a6.99 6.99 0 001.381-1.927c.12-.245.27-.487.264-.768a4.953 4.953 0 00-.074-.815 8.469 8.469 0 00-.255-1 7.553 7.553 0 00-.382-1 5.185 5.185 0 00-.973-1.428 1.42 1.42 0 00-.167-.127c-.098.125-.19.229-.274.335-.166.208-.33.418-.495.629a.303.303 0 00-.046.312c.035.091.063.185.084.28.082.402.169.803.237 1.207.135.802.264 1.606.28 2.422.006.3.03.598.033.898 0 .364-.012.728-.016 1.092.001.061.007.122.017.182zm-20.49-29.415c.145-.19.18-.39.238-.568.065-.203-.023-.292-.238-.28-.355.027-.882.367-1.004.796a3.357 3.357 0 00-.137 1.021c.034.888.27 1.757.692 2.54.317.585.691 1.138 1.117 1.65.12.149.195.145.334.005.334-.328.653-.674 1.012-.974.333-.278.707-.512 1.168-.548a.223.223 0 00.075-.018c.07-.032.082-.087.034-.14a.616.616 0 00-.14-.106c-.06-.037-.127-.064-.188-.103-.324-.212-.65-.426-.98-.64-.746-.487-1.42-1.056-1.924-1.805a5.112 5.112 0 01-.41-.84c-.03-.068-.04-.146.043-.188s.121.014.168.062.077.077.14.136zm5.984 1.798a.554.554 0 00-.134.019c-.267.15-.561.164-.854.163-.584 0-1.152-.098-1.672-.39a7.645 7.645 0 01-1.22-.84 5.654 5.654 0 01-1.31-1.535 1.408 1.408 0 00-.162-.182c-.034.097-.057.154-.073.212-.033.126-.052.256-.097.378a5.743 5.743 0 01-.233.6.496.496 0 00.032.5c.039.068.083.133.13.194a6.772 6.772 0 001.53 1.411c.417.28.85.53 1.266.803.5.326.953.702 1.274 1.217.072.117.147.118.225.01.03-.043.05-.092.078-.135.166-.27.35-.53.548-.778a2.73 2.73 0 00.662-1.37c.01-.09.014-.181.01-.273zm-.445-9.119h-.994c-.05 0-.097.044-.148.067.029.047.045.108.085.14.16.121.328.234.494.349.437.307.913.554 1.416.734.364.138.738.25 1.118.331.585.112 1.169.181 1.753.269a6.806 6.806 0 001.752.061c.085-.009.171-.016.214-.107a.195.195 0 00-.057-.23c-.138-.157-.267-.321-.418-.463a2.314 2.314 0 00-.825-.543 6.757 6.757 0 00-.682-.184 18.29 18.29 0 00-3.708-.42zm3.821 55.572l.009.04a3.81 3.81 0 00.433-.097c.227-.078.443-.185.67-.26.389-.13.755-.323 1.083-.57.451-.31.847-.694 1.173-1.134.07-.098.15-.195.216-.301a.13.13 0 000-.123c-.02-.024-.08-.017-.122-.02-.018 0-.036.014-.055.02-.487.176-.973.356-1.466.528-.258.09-.522.164-.779.251-.338.114-.676.233-1.015.349a288.223 288.223 0 01-2.586.875.827.827 0 00-.111.038c-.093.048-.098.126 0 .175.17.09.336.195.546.189a.437.437 0 01.224.052c.253.148.523.123.796.104a1.98 1.98 0 01.308-.007.846.846 0 00.402-.046c.09-.028.181-.05.274-.063zm-1.867-44.966c-.02-.273-.03-.552-.06-.83a3.87 3.87 0 00-.428-1.309c-.083-.167-.163-.174-.274-.043-.264.307-.439.68-.506 1.079a2.522 2.522 0 01-.58 1.237.316.316 0 00-.056.08.075.075 0 00.06.115.326.326 0 00.097 0c.32-.023.639.072.895.266.225.144.42.33.574.55a.207.207 0 00.144.07c.02 0 .062-.075.065-.119.027-.362.047-.725.069-1.096zm-37.186 16.23a3.967 3.967 0 00-.195-1.343 4.995 4.995 0 00-.212-.48.127.127 0 00-.194-.056c-.18.091-.362.176-.542.265-.153.075-.186.168-.13.336a.99.99 0 01.052.168 5.91 5.91 0 01-.016 2.056.345.345 0 00.155.398c.135.091.271.179.406.27.166.115.218.098.305-.087.221-.481.349-1 .376-1.528zm-7.106.875v-.008h.235c.165-.006.24-.062.27-.223.015-.11.02-.22.013-.33-.006-.166-.06-.212-.223-.181-.348.055-.702.05-1.048-.015a4.066 4.066 0 01-.544-.142c-.177-.056-.26-.009-.282.174a.445.445 0 00.31.521c.078.031.16.054.244.066.345.048.687.093 1.028.137zm58.46-24.674a.274.274 0 00-.161-.26c-.35-.188-.701-.373-1.05-.561a.137.137 0 00-.202.048c-.05.076-.097.154-.143.233-.085.15-.083.206.043.327.116.115.242.218.377.31.233.15.478.287.722.424.076.044.18.068.226-.024.08-.166.135-.347.189-.497zm2.441-6.225c-.068.043-.133.09-.195.142-.074.073-.133.16-.209.232-.487.452-.848.997-1.178 1.564a.195.195 0 000 .16c.112.21.331.216.459.02l.414-.636c.205-.316.415-.628.612-.948a.7.7 0 00.097-.53zm1.028 1.058c-.015-.029-.03-.08-.043-.08a.299.299 0 00-.16.029c-.213.148-.428.292-.626.46-.325.27-.637.554-.952.835-.186.168-.182.225.02.371a.522.522 0 00.049.033.15.15 0 00.194-.008c.28-.233.566-.458.84-.697.255-.215.463-.48.61-.78.025-.049.044-.104.068-.163zm-16.681 5.707c.09 0 .182.004.272 0 .18-.013.365-.31.292-.472a.217.217 0 00-.127-.106 7.776 7.776 0 00-.797-.177c-.227-.03-.451-.006-.62.195-.124.15-.125.232.046.336a.553.553 0 00.177.079c.25.05.488.179.757.145zm-1.312 16.84c0-.051 0-.104-.014-.154-.028-.16-.09-.18-.222-.08-.149.116-.298.232-.449.343-.175.129-.177.127-.117.337.012.044.025.088.04.13a.123.123 0 00.182.083c.18-.06.34-.17.46-.316a.487.487 0 00.12-.348zm18.05-21.442c-.27.064-.535.144-.795.24-.19.1-.37.218-.534.354-.068.048-.155.11-.088.205s.15.025.224-.013c.131-.07.258-.15.39-.213.24-.111.486-.213.728-.323a.524.524 0 00.14-.097.097.097 0 00.017-.088c-.005-.025-.042-.037-.083-.065z"/><path d="M40.403 65.773c.008.71-.06 1.419-.2 2.114a6.931 6.931 0 01-1.415 2.945 3.05 3.05 0 01-1.153.847 2.792 2.792 0 01-.939.24c-.623.04-1.18-.157-1.696-.487a5.078 5.078 0 01-1.265-1.23 6.88 6.88 0 01-1.009-1.93 10.005 10.005 0 01-.412-1.562 9.233 9.233 0 01-.166-1.316 19.726 19.726 0 010-1.247c.013-.318.046-.636.098-.95.09-.593.242-1.174.451-1.735.322-.842.765-1.61 1.474-2.195a3.018 3.018 0 011.765-.704c.3-.01.6.038.882.144.586.207 1.11.56 1.522 1.024a7.168 7.168 0 011.474 2.498c.406 1.137.605 2.337.59 3.544zm-8.043-1.162h-.026c.03.453.046.909.098 1.363.044.46.132.914.263 1.358.125.403.22.817.366 1.213a5.67 5.67 0 00.792 1.45c.341.456.704.89 1.182 1.21.784.527 1.623.585 2.498.28.487-.171.865-.503 1.18-.902a6.568 6.568 0 001.147-2.31c.112-.421.19-.85.235-1.284.037-.316.058-.635.07-.953a9.783 9.783 0 00-.132-2.023c-.029-.179-.051-.36-.097-.536-.068-.27-.142-.542-.232-.805-.13-.382-.258-.764-.416-1.134a5.696 5.696 0 00-.903-1.432c-.426-.503-.905-.936-1.548-1.148a2.554 2.554 0 00-2.025.138c-.472.237-.833.599-1.147 1.012a5.646 5.646 0 00-.945 1.977c-.132.53-.233 1.068-.304 1.61-.046.302-.039.61-.056.916zM7.957 50.402a8.268 8.268 0 01-.246 2.188 5.856 5.856 0 01-.845 1.898c-.247.363-.6.641-1.012.795a1.274 1.274 0 01-.917-.017 2.308 2.308 0 01-.997-.822 5.16 5.16 0 01-.71-1.427c-.053-.16-.114-.317-.16-.48-.307-1.058-.353-2.142-.274-3.232.063-.876.24-1.727.636-2.52.207-.436.49-.832.839-1.167a1.485 1.485 0 011.87-.141c.416.295.75.69.973 1.15.254.478.448.987.576 1.514.121.492.237.988.238 1.501 0 .253.018.507.029.76zm-.211.017a8.708 8.708 0 00-.064-.974 15.283 15.283 0 00-.454-1.997c-.195-.612-.487-1.16-.969-1.6-.572-.526-1.376-.57-1.947.051a4.408 4.408 0 00-.6.84c-.292.517-.435 1.083-.562 1.654a7.664 7.664 0 00-.132 1.536c-.014.807.023 1.61.24 2.399.12.48.284.948.493 1.398.227.461.514.876.95 1.168.292.194.606.303.963.222.276-.057.526-.2.715-.41a4.04 4.04 0 00.764-1.195c.13-.32.235-.648.316-.984.161-.697.305-1.39.287-2.111zm56.372-.736c.326-.014.652-.024.974-.042.61-.032 1.221-.058 1.83-.108.416-.033.828-.097 1.241-.154.696-.097 1.393-.188 2.085-.303.578-.096 1.152-.21 1.723-.338.538-.121 1.07-.267 1.604-.414a59.46 59.46 0 001.704-.496c.273-.085.535-.2.803-.3.171-.064.343-.123.513-.186a14.7 14.7 0 003.876-2.19 8.704 8.704 0 001.09-1.06c.03-.035.056-.08.098-.098a.174.174 0 01.14-.012c.025.018.028.098.015.136a.378.378 0 01-.098.143c-.123.112-.126.25-.097.396.072.357.16.713.214 1.07.065.425.105.854.15 1.28.057.556-.007 1.105-.082 1.655a.81.81 0 01-.378.603 22.951 22.951 0 01-4.244 2.18 26.25 26.25 0 01-1.818.651c-.645.2-1.308.344-1.958.533-.613.18-1.243.28-1.867.406-.584.115-1.168.166-1.752.265-.708.122-1.425.142-2.135.232-.413.052-.828.097-1.24.154a.604.604 0 01-.55-.175c-.471-.47-.931-.947-1.364-1.46-.352-.42-.664-.869-.987-1.309-.092-.126-.175-.259-.257-.39a1.21 1.21 0 00-.372-.418.276.276 0 01-.084-.08.092.092 0 01.073-.154c.09-.006.18.006.272.006h.876zm2.37.069c-.32.021-.613.038-.904.064a.2.2 0 00-.139.076c-.016.026.025.09.047.135.01.022.036.037.053.056.41.47.823.938 1.23 1.412.462.538.919 1.08 1.377 1.62a.383.383 0 00.364.138c.214-.025.428-.04.64-.062.166-.016.196-.08.109-.214a1884.34 1884.34 0 01-1.67-2.21c-.194-.255-.389-.507-.572-.766-.141-.2-.31-.313-.536-.249zm4.946-.672c-.11.017-.218.032-.327.052a6.872 6.872 0 00-.438.092c-.146.037-.167.098-.083.223.033.049.072.098.097.143l1.206 2.028c.16.269.318.538.474.807.055.097.12.195.237.172a3.85 3.85 0 00.532-.116c.108-.032.127-.116.07-.22-.028-.051-.065-.097-.09-.15-.34-.693-.682-1.39-1.02-2.083-.132-.267-.274-.531-.412-.796a.241.241 0 00-.246-.152zm5.371 2.115v-.04c-.06-.458-.122-.915-.179-1.374-.052-.432-.097-.866-.15-1.297a8.728 8.728 0 00-.115-.654c-.022-.109-.097-.146-.185-.11-.162.065-.325.128-.486.194s-.178.127-.138.292c.041.166.08.342.114.513a189.346 189.346 0 01.514 2.683c.025.137.08.178.216.135.098-.03.182-.07.276-.097s.14-.107.133-.245zm2.27-1.837v.794c0 .167.072.227.227.163.078-.031.146-.086.222-.122a.333.333 0 00.195-.368 13.63 13.63 0 01-.032-.662c-.03-.956-.058-1.912-.086-2.868 0-.16-.074-.194-.213-.116-.124.073-.243.154-.365.227a.28.28 0 00-.143.279c.011.227.024.454.042.681.042.634.094 1.269.15 1.989zM67.681 19.541c-.82-.08-1.522-.402-1.982-1.108-.252-.39-.465-.815-.436-1.311a.742.742 0 00-.056-.243c-.016-.056-.051-.107-.063-.163a.092.092 0 01.128-.112c.054.02.101.053.137.097.298.415.697.745 1.16.96.228.107.465.193.71.257.442.118.89.098 1.335.136.097-.004.195-.013.292-.028a.708.708 0 01.227.028c.03.008.06.067.062.104.002.037-.045.056-.074.079a.09.09 0 01-.056.013c-.213 0-.322.136-.417.303-.134.23-.287.45-.412.681s-.28.366-.555.307zm-1.799-1.266v.068a.26.26 0 00.038.068c.191.247.429.455.7.612.331.178.695.244 1.06.307a.303.303 0 00.32-.141c.107-.164.212-.327.315-.493.06-.094.114-.192.162-.292.042-.09.012-.136-.083-.153a.398.398 0 00-.098 0c-.47.04-.916-.082-1.362-.216a2.872 2.872 0 01-.437-.165 2.939 2.939 0 01-.845-.585c-.044-.044-.09-.097-.169-.06-.007.018-.021.035-.02.053.008.236.166.645.507.742a.956.956 0 01.256.137c.058.039.122.097.065.177-.056.08-.13.04-.195.005A.813.813 0 0066 18.28a.551.551 0 00-.117-.005zm.614-4.432c.432-.021.825.113 1.215.262.08.03.16.053.239.084a.495.495 0 01.154.077.14.14 0 01.035.12.141.141 0 01-.098.075c-.202.04-.202.037-.207.245 0 .065-.002.13-.008.195a.362.362 0 01-.41.346 4 4 0 01-1.595-.404 5.816 5.816 0 01-.332-.162c-.205-.111-.222-.223-.08-.402.283-.355.658-.465 1.087-.436zm.77 1.16a.787.787 0 00.08.009c.173 0 .23-.056.236-.23 0-.09.017-.181.027-.27.017-.163-.025-.234-.184-.268-.292-.06-.584-.123-.876-.161-.292-.038-.597-.015-.847.195-.125.105-.126.194.017.264.127.065.262.113.39.172.363.168.756.267 1.156.29zm-4.319.132a.422.422 0 01-.047.111.097.097 0 01-.163-.013.112.112 0 01-.015-.036.884.884 0 00-.444-.653c-.033-.021-.064-.112-.05-.126a.366.366 0 01.146-.064c.01 0 .024.006.037.01.24.074.543.489.536.771zm7.305.085c.099.055.195.115.286.182a.097.097 0 01-.015.154.625.625 0 01-.2.109c-.097.028-.225-.122-.236-.258-.007-.093.053-.158.165-.187z"/><path d="M37.56 65.423c-.019.208-.025.438-.063.66a1.768 1.768 0 01-.798 1.203.681.681 0 01-.525.097 1.168 1.168 0 01-.693-.408 2.58 2.58 0 01-.603-1.494 4.466 4.466 0 01.056-1.088c.09-.481.314-.896.746-1.168a.823.823 0 01.855-.017c.416.21.637.584.816.984.175.389.178.802.209 1.23zm1.588-2.353c-.026.257-.08.514-.283.715a.487.487 0 01-.712.014 1.265 1.265 0 01-.324-.59.256.256 0 010-.154c.08-.194.168-.39.256-.584a.367.367 0 01.085-.106c.246-.237.558-.2.79.09.14.175.173.386.188.616zm-5.053.7c-.02.274-.145.53-.347.715a.504.504 0 01-.717-.06c-.3-.407-.344-.844-.038-1.286a.562.562 0 01.957.064c.096.174.146.37.145.568zm5.059 3.354c-.037.43-.161.73-.497.907a.32.32 0 01-.366-.023.913.913 0 01-.38-.502 1.245 1.245 0 00-.055-.168.312.312 0 01.006-.263c.064-.143.11-.292.183-.43.104-.194.257-.342.487-.326.221.02.412.163.493.37.056.14.099.286.13.435zm-3.714-6.187a1.35 1.35 0 01.292-.67.5.5 0 01.742.009c.26.32.36.704.16 1.107a.907.907 0 01-.235.326.517.517 0 01-.785-.164 1.162 1.162 0 01-.174-.608zm-.006 8.507c.07-.299.108-.638.457-.81a.437.437 0 01.538.076c.187.195.299.45.316.72.027.28-.28.742-.538.857a.376.376 0 01-.403-.05c-.256-.191-.335-.467-.37-.793zm-2.274-2.133c.02-.258.117-.503.279-.705.237-.3.73-.18.837.093.062.158.135.311.195.47a.256.256 0 01.012.168c-.098.24-.195.487-.381.674a.487.487 0 01-.652.01.913.913 0 01-.29-.71zM6.168 50.389c0 .136.009.273 0 .41a1.381 1.381 0 01-.364.883.968.968 0 01-.39.237c-.194.065-.356-.057-.486-.185a1.35 1.35 0 01-.404-.805 4.74 4.74 0 010-1.343c.045-.347.231-.66.515-.864a.422.422 0 01.51-.006c.214.14.38.345.472.584.145.347.158.717.147 1.089zM4.24 51.71a.723.723 0 01-.325.563.269.269 0 01-.396-.067.815.815 0 01.132-1.15c.123-.098.263-.077.381.05.154.163.199.362.207.604zm-.137-2.73a.764.764 0 01-.224.602c-.133.13-.249.138-.395.018a.681.681 0 01-.232-.667c.027-.152.08-.3.155-.435.131-.24.342-.249.512-.038a.734.734 0 01.184.52zm3.02 2.882a.672.672 0 01-.239.526c-.165.154-.313.137-.469-.024-.33-.343-.168-.89.084-1.126a.245.245 0 01.365.008.785.785 0 01.259.616zm-2.158-4.807a.779.779 0 01.228-.584.272.272 0 01.425 0c.31.335.292.784-.024 1.146a.281.281 0 01-.432 0c-.165-.148-.197-.35-.197-.562zm2.311 1.69c-.006.278-.155.474-.372.626a.195.195 0 01-.238 0c-.235-.164-.398-.513-.265-.765.059-.136.126-.268.2-.396a.292.292 0 01.494.012c.115.15.179.333.18.523zM5.539 53.46a.7.7 0 01-.233.519.305.305 0 01-.486-.05c-.214-.297-.184-.607-.038-.92a.782.782 0 01.072-.117c.11-.163.259-.186.408-.06.21.174.279.322.277.628zm61.163-38.722a.28.28 0 01-.302-.321.168.168 0 01.292-.106c.05.04.097.086.145.127.048.041.12.106.082.177-.03.053-.105.081-.163.116a.108.108 0 01-.054.007z"/></g></svg>