<svg height="86" width="58" xmlns="http://www.w3.org/2000/svg"><mask id="a" fill="#fff"><path d="M0 0h57.554v85.728H0z" fill-rule="evenodd"/></mask><path d="M41.291 47.87c.015 0 .043.002.071.005.196.017.392.002.587-.011.047-.004.092-.016.138-.026.127-.026.255-.056.383-.08.202-.035.406-.061.596-.144a.173.173 0 01.055-.015c.104-.01.197-.055.291-.095l.36-.155c.354-.153.393-.174.713-.386.031-.02.063-.04.091-.065.144-.134.308-.242.46-.366.094-.078.184-.157.246-.265.02-.031.044-.06.067-.09.154-.2.293-.41.436-.617.07-.1.127-.207.185-.314.077-.138.151-.278.226-.418.11-.133.156-.297.23-.447.012-.025.03-.048.042-.073.035-.066.07-.132.104-.2.105-.207.168-.434.283-.64.013-.023.02-.051.03-.077.103-.281.21-.56.318-.837.027-.07.051-.141.072-.213.058-.206.117-.413.183-.617.015-.044.021-.091.031-.136l.18-.821c.025-.118.055-.236.08-.355.021-.11.034-.222.034-.334a8.872 8.872 0 00-.01-.588 3.165 3.165 0 00-.118-.69c-.06-.215-.142-.423-.219-.634a.575.575 0 00-.033-.077c-.112-.215-.209-.438-.326-.651a1.331 1.331 0 00-.213-.293 31.272 31.272 0 00-.253-.262 1.17 1.17 0 00-.103-.096 4.677 4.677 0 00-.735-.51 2.958 2.958 0 00-.589-.256 4.11 4.11 0 01-.214-.07 1.952 1.952 0 00-.352-.088c-.148-.022-.293-.055-.44-.083-.257-.05-.516-.084-.773-.13a2.937 2.937 0 00-.418-.045 1.172 1.172 0 01-.249-.032c-.063-.015-.129-.02-.194-.026-.084-.008-.168-.008-.25-.02-.224-.03-.448-.03-.672-.03-.14 0-.28.004-.418.035-.046.01-.093.013-.14.018-.185.019-.37.042-.55.09a.649.649 0 01-.14.022c-.158.006-.312.056-.47.058-.02 0-.038.005-.056.01-.19.05-.383.082-.577.11a1.39 1.39 0 00-.349.1c-.102.046-.21.079-.316.115-.115.039-.23.073-.346.11-.195.066-.39.13-.583.2s-.384.146-.58.204c-.073.02-.14.053-.21.08-.226.088-.447.19-.67.287a5.983 5.983 0 00-.503.245c-.147.08-.298.154-.438.249-.03.02-.066.035-.098.053a5.9 5.9 0 00-.217.129c-.095.059-.188.123-.282.183a2.316 2.316 0 00-.246.184 5.92 5.92 0 01-.486.379 4.048 4.048 0 00-.248.182c-.117.093-.23.19-.346.285-.11.087-.212.183-.31.282-.139.139-.278.278-.395.437-.016.022-.038.04-.057.06-.164.18-.317.369-.492.537-.047.045-.087.097-.13.147-.092.106-.174.219-.272.32-.026.027-.046.059-.067.09a.175.175 0 00-.029.159c.083.267.156.538.271.794.038.085.072.173.106.26.107.279.252.54.387.807.03.058.064.115.103.167.068.089.123.187.183.282.08.126.154.256.237.38.114.17.232.339.351.507.07.099.14.198.22.29.117.133.233.267.351.399.106.119.212.236.313.359.111.138.231.269.346.404.086.1.194.176.288.266.014.013.026.028.04.04.035.03.07.062.107.089.167.12.333.24.502.358.262.18.538.336.826.472.051.024.102.046.15.076.112.068.23.122.352.17.191.075.38.158.56.255.133.07.271.127.415.166.126.035.255.056.375.11.034.015.073.015.11.02.157.027.315.045.47.078.183.04.37.05.553.085.12.022.241.022.361.05.045.01.092.01.138.015.075.008.15.012.223.025.102.017.204.027.306.033.075.005.15.008.223.024.13.029.26.034.39.032h.433zm9.565-32.021h6.335c.103 0 .206.004.308.008a.068.068 0 01.048.026c.01.013.007.035.005.053a.195.195 0 01-.018.053c-.053.099-.105.198-.16.295-.257.435-.512.87-.77 1.303-.145.24-.28.485-.424.726-.258.433-.514.868-.772 1.302a1.8 1.8 0 01-.076.117.152.152 0 01-.118.065 8.768 8.768 0 01-.28.005h-7.85c-.093 0-.187.002-.28.004a.141.141 0 00-.117.067c-.05.078-.1.157-.152.235l-.12.188c-.187.28-.365.565-.545.849l-.753 1.183c-.025.039-.056.076-.06.124 0 .015.01.036.023.046s.034.015.052.015c.084.003.168.004.252.004h5.382c.047 0 .093.005.14.012a.08.08 0 01.047.027.075.075 0 01.007.053.274.274 0 01-.03.078l-.429.723c-.2.338-.398.676-.599 1.013l-.888 1.494c-.076.128-.15.258-.228.386a1.609 1.609 0 01-.095.138.111.111 0 01-.069.044c-.037.007-.074.016-.11.018a1.345 1.345 0 01-.169 0 1.371 1.371 0 00-.307.004c-.064.009-.13.004-.196.002a5.199 5.199 0 01-.25-.017 1.391 1.391 0 00-.336.006 1.576 1.576 0 01-.475-.001 1.134 1.134 0 00-.279-.006c-.066.005-.13.004-.196-.002a2.115 2.115 0 00-.252-.01c-.345.015-.69-.01-1.036.017-.046.004-.093-.004-.14-.006-.046-.003-.094-.011-.14-.006-.149.017-.298.002-.447.002-.365-.001-.729-.004-1.093-.006h-.028a4.48 4.48 0 01-.53.008.35.35 0 00-.057.002c-.078.005-.145.029-.19.1-.05.079-.109.153-.155.234a5.434 5.434 0 01-.224.355c-.104.155-.19.32-.298.474s-.205.313-.306.469c-.026.04-.05.08-.074.12-.118.19-.232.382-.364.565-.115.158-.215.327-.316.495-.115.192-.24.379-.363.567-.157.242-.319.482-.475.727-.12.189-.245.375-.354.57a.652.652 0 01-.06.095c-.065.08-.118.168-.174.255a.627.627 0 01-.07.086.248.248 0 01-.12.068l-.028.005c-.195.024-.39.046-.584.072-.195.026-.388.055-.582.083-.028.004-.056.01-.084.013-.203.025-.407.047-.612.073-.092.012-.184.03-.275.046-.276.05-.552.096-.824.167-.018.005-.037.005-.055.01a4.446 4.446 0 01-.46.119c-.156.03-.309.074-.463.112l-.545.129c-.355.083-.706.18-1.057.277-.035.01-.072.018-.108.026-.03.007-.094-.013-.099-.036a.257.257 0 01-.006-.083.124.124 0 01.02-.051l.256-.402c.021-.031.043-.061.063-.093.134-.225.284-.438.425-.66.241-.377.491-.75.723-1.133.072-.12.15-.237.23-.351.161-.23.314-.465.46-.704.156-.255.328-.5.495-.748.078-.116.155-.233.22-.357.04-.074.088-.143.136-.212.16-.23.314-.464.458-.705a.029.029 0 000-.027c-.01-.02-.029-.025-.048-.02-.045.013-.09.025-.134.04a6.727 6.727 0 00-1.605.788c-.142.09-.282.184-.422.277-.086.057-.169.117-.254.174-.07.048-.138.096-.209.142a4.53 4.53 0 00-.6.458 1.981 1.981 0 00-.235.24 3.253 3.253 0 01-.304.329c-.115.11-.223.227-.349.324a.662.662 0 00-.1.097c-.157.186-.318.368-.453.57-.077.118-.16.23-.246.342-.085.112-.158.23-.23.35-.138.234-.262.475-.4.707-.053.09-.089.186-.13.28-.046.102-.08.209-.13.31a.707.707 0 00-.045.132 3.839 3.839 0 01-.149.45 1.78 1.78 0 00-.129.629c0 .056-.003.112-.002.168a2.57 2.57 0 01-.028.447c-.006.036.006.07.022.076.02.006.037 0 .054-.007l.304-.143.026-.011c.12-.056.25-.08.37-.127.121-.05.241-.101.368-.136.152-.042.302-.096.45-.157.171-.072.348-.132.532-.166a.976.976 0 00.162-.048 2.22 2.22 0 01.461-.114c.065-.01.128-.023.191-.042.207-.061.412-.122.626-.15a.44.44 0 00.081-.021c.124-.042.251-.071.378-.103.1-.026.203-.038.296-.084.11-.021.214-.07.326-.08.02-.002.037-.01.055-.014.226-.057.451-.12.683-.15.278-.081.564-.128.848-.181.166-.03.331-.057.497-.086.157-.027.313-.056.47-.081.22-.036.44-.085.664-.094.268-.044.54-.043.808-.087.046-.008.093-.01.14-.013.046-.004.094-.003.14-.012.201-.043.407-.05.611-.08.11-.014.223-.02.334-.026.14-.01.28-.011.42-.03.074-.01.15-.01.224-.011.345-.012.691-.006 1.037.003.065 0 .13.008.195.013.037.003.075.013.111.009.103-.01.205 0 .307.009.103.009.206.007.31.009.148.002.297.014.445.04.183.03.37.05.554.079.074.01.147.026.22.044.163.038.328.066.492.105.164.038.325.086.484.14.15.05.302.097.457.13.165.035.323.093.485.139l.026.01.331.15c.111.05.224.094.326.16a.961.961 0 00.15.079c.385.165.76.36 1.144.527.172.074.338.16.491.268.107.076.222.139.342.19.12.054.236.115.341.194.023.016.045.033.07.045.178.088.327.215.48.338.021.018.042.038.065.054.247.169.471.368.701.558.144.12.287.24.427.363.085.073.163.153.232.242.188.244.382.485.57.729.154.199.31.398.442.613a.846.846 0 00.048.069c.13.162.226.342.313.529.083.177.171.353.256.53.153.32.275.653.367.997.03.108.056.217.088.325.065.224.103.454.115.689.005.102.006.205.022.307.016.1 0 .205.027.305.008.027.006.056.006.084.001.14.002.28 0 .42 0 .057-.007.112-.013.168a2.213 2.213 0 01-.024.138c-.064.302-.097.608-.138.914a3.948 3.948 0 01-.118.547 4.429 4.429 0 00-.128.603 2.52 2.52 0 01-.123.458c-.09.266-.209.519-.319.777-.14.327-.3.642-.476.95-.102.18-.203.358-.314.53-.06.096-.12.19-.199.272-.025.026-.043.06-.066.09-.028.037-.053.077-.085.11-.137.142-.257.297-.385.446a7.131 7.131 0 01-.618.648c-.083.075-.16.157-.236.24-.114.124-.24.234-.368.344-.262.225-.536.436-.806.65-.227.18-.463.349-.708.503-.08.05-.156.104-.232.157-.277.19-.558.376-.875.497-.06.023-.12.052-.176.086-.26.164-.545.287-.818.428-.025.013-.052.02-.078.032-.103.045-.218.049-.318.105-.099.055-.21.077-.316.114a2.195 2.195 0 01-.353.088c-.25.039-.494.103-.74.16-.273.065-.549.11-.828.14-.232.025-.463.058-.697.065-.286.058-.577.035-.866.043-.318.007-.635-.001-.953-.004-.084 0-.168-.005-.252-.012-.177-.015-.354-.024-.53-.052-.193-.03-.388-.052-.58-.094-.21-.046-.419-.096-.63-.127a.186.186 0 01-.055-.014c-.183-.078-.38-.1-.57-.144a10.056 10.056 0 00-.547-.122 3.394 3.394 0 01-.543-.135l-.054-.017c-.228-.05-.448-.128-.67-.198a17.54 17.54 0 01-.505-.17c-.14-.05-.28-.103-.419-.158-.225-.091-.449-.187-.675-.276a3.194 3.194 0 01-.378-.18c-.189-.104-.374-.213-.56-.32a.423.423 0 01-.07-.044c-.167-.123-.352-.215-.518-.337a.647.647 0 00-.094-.06c-.117-.061-.218-.143-.324-.22-.288-.21-.54-.46-.796-.706-.054-.052-.104-.107-.162-.155a6.16 6.16 0 01-.605-.582l-.45-.5c-.142-.21-.315-.394-.453-.605-.148-.227-.314-.442-.478-.658a5.118 5.118 0 01-.372-.56c-.079-.136-.15-.278-.256-.4-.005-.005-.015-.008-.024-.011-.023-.007-.037.002-.043.024-.013.045-.03.089-.037.135-.039.258-.093.515-.087.778.001.066 0 .13-.003.197-.014.243-.006.485.013.728.002.037.002.074.008.11.035.26.072.519.11.778.007.046.022.09.034.136.05.189.095.38.154.567a.62.62 0 01.033.164.876.876 0 00.074.298c.018.043.037.086.057.128.046.093.08.189.092.293a.965.965 0 00.055.216 2.8 2.8 0 00.274.612c.065.104.116.214.165.325.071.164.161.316.264.46.1.137.194.275.29.414.126.185.265.36.411.53.134.157.266.314.417.454.048.044.09.096.132.145.111.127.222.253.345.368.102.096.2.196.293.3.08.092.171.173.26.256.11.102.222.2.33.304.094.09.185.184.276.278.084.089.175.168.284.225.06.03.108.074.158.116.208.173.422.34.626.518.24.209.495.398.743.596.16.128.318.26.474.393.15.127.311.24.451.378.203.136.377.307.575.447.054.037.105.079.154.122.278.249.572.48.86.719.165.136.324.28.485.423.131.16.298.283.436.435.037.042.081.078.122.116.138.127.282.246.411.38.02.02.041.04.063.057.16.116.294.258.428.402l.098.1c.176.18.36.354.51.558a.665.665 0 00.116.12c.143.12.273.256.39.403a5.6 5.6 0 00.513.554l.22.216c.02.02.04.039.058.06.166.216.36.406.517.628a.326.326 0 00.017.022c.197.226.367.472.547.71.073.097.146.194.206.3.056.098.125.186.196.273.156.186.294.386.423.592.104.167.217.327.306.502.013.025.033.047.043.073.04.106.102.199.167.29.092.13.17.268.232.415.063.146.133.288.198.433.034.077.071.153.116.224.055.087.093.183.132.278.035.086.066.175.107.259.102.21.182.429.268.647.006.017.015.034.02.052.08.327.21.638.304.96.085.288.147.58.212.872.043.19.057.387.094.58.017.09.011.186.026.278.028.167.032.335.042.502.01.14.005.28.03.419-.004.243.028.485.02.728-.002.056.005.112.007.168a2.44 2.44 0 01-.027.475c-.009.055-.019.11-.02.166a3.242 3.242 0 01-.08.555 2.132 2.132 0 00-.04.276 2.4 2.4 0 01-.119.575 6.905 6.905 0 00-.126.4 2.14 2.14 0 01-.15.393.504.504 0 00-.049.13 3.42 3.42 0 01-.203.582c-.038.086-.07.172-.098.262-.069.222-.158.439-.223.663-.015.054-.044.103-.068.154-.11.227-.227.45-.319.685-.082.147-.136.308-.234.446a.231.231 0 00-.028.048c-.08.19-.204.357-.31.532-.135.224-.278.444-.414.667-.049.08-.1.157-.16.23a3.62 3.62 0 00-.17.22 6.07 6.07 0 01-.544.642c-.07.075-.14.15-.202.232-.075.097-.16.184-.247.268-.08.078-.172.144-.24.234-.007.007-.013.014-.02.019-.144.09-.255.22-.386.326a1.141 1.141 0 00-.084.074c-.158.16-.34.29-.52.424-.136.099-.275.193-.4.305-.029.025-.06.047-.09.069l-.526.372c-.023.016-.045.034-.069.048-.245.137-.467.31-.713.445-.336.184-.653.399-.975.606-.04.025-.078.053-.119.073-.309.156-.61.326-.928.46a5.1 5.1 0 01-.13.053c-.166.065-.334.122-.493.2-.04.022-.088.034-.132.049-.238.083-.472.177-.71.26-.184.064-.369.129-.562.17-.118.026-.234.063-.35.096-.243.068-.488.13-.734.183-.283.062-.567.117-.85.179-.282.063-.566.119-.847.188a.624.624 0 01-.165.026 1.567 1.567 0 00-.306.034c-.046.008-.092.017-.139.019-.12.003-.24.027-.362.037-.224.018-.444.058-.666.09-.167.025-.334.039-.5.063-.334.046-.667.089-1 .127-.13.015-.262.017-.393.02a3.67 3.67 0 00-.419.029c-.11.016-.223.02-.335.026-.187.01-.374.003-.56.026a.339.339 0 01-.084-.002 1.261 1.261 0 00-.307 0 2.381 2.381 0 01-.223.013l-.84.012a2.053 2.053 0 01-.365-.024 1.755 1.755 0 00-.25-.018c-.43-.004-.86-.011-1.29-.016-.103-.001-.206.003-.308.006a8.896 8.896 0 01-.589.002c-.224-.008-.448-.006-.672-.01-.122-.001-.244 0-.363-.027a.46.46 0 00-.084-.01c-.27-.011-.539-.042-.809-.073a4.145 4.145 0 01-.442-.07c-.109-.025-.217-.055-.327-.076a9.678 9.678 0 00-.415-.066c-.074-.01-.147-.025-.22-.04-.128-.027-.254-.062-.385-.076-.046-.005-.09-.02-.137-.03-.146-.032-.29-.067-.437-.097a6.276 6.276 0 01-.893-.235 2.3 2.3 0 00-.269-.08 4.923 4.923 0 01-.43-.125c-.168-.055-.336-.113-.504-.17-.018-.006-.035-.014-.053-.017-.167-.03-.319-.104-.478-.16-.185-.065-.37-.128-.557-.186a13.519 13.519 0 01-1.29-.466c-.035-.014-.07-.027-.103-.046-.137-.081-.284-.141-.43-.203a7.599 7.599 0 01-.844-.441.654.654 0 01-.069-.048 1.4 1.4 0 00-.29-.17 2.29 2.29 0 01-.32-.171.965.965 0 00-.147-.082 1.493 1.493 0 01-.242-.14 2.51 2.51 0 00-.192-.116c-.097-.056-.194-.112-.293-.164-.226-.115-.427-.268-.63-.416a2.918 2.918 0 00-.256-.172c-.072-.043-.143-.09-.217-.128-.283-.146-.54-.335-.812-.498-.12-.072-.228-.164-.34-.246-.039-.028-.073-.06-.113-.084-.145-.086-.276-.191-.415-.287-.115-.08-.226-.165-.337-.25-.17-.132-.34-.262-.513-.39a2.197 2.197 0 01-.295-.26 27.553 27.553 0 00-.29-.302c-.052-.054-.106-.106-.159-.16-.147-.143-.294-.286-.44-.431a1.81 1.81 0 01-.152-.164c-.122-.154-.259-.295-.386-.445-.12-.142-.244-.282-.368-.422-.117-.133-.237-.264-.352-.4a11.064 11.064 0 01-.552-.705c-.093-.13-.185-.258-.282-.384a7.259 7.259 0 01-.324-.457c-.036-.054-.075-.107-.114-.16-.139-.187-.27-.381-.398-.576a11.852 11.852 0 01-.338-.548 4.844 4.844 0 00-.194-.308 2.512 2.512 0 01-.26-.463 1.485 1.485 0 00-.196-.34 1.02 1.02 0 01-.103-.165c-.078-.15-.153-.3-.229-.45-.008-.017-.013-.035-.023-.051-.123-.21-.205-.44-.314-.657a2.355 2.355 0 01-.137-.337c-.025-.08-.06-.156-.095-.233a5.425 5.425 0 01-.179-.441 1.611 1.611 0 00-.05-.131 4.505 4.505 0 01-.26-.768 4.54 4.54 0 00-.197-.583.87.87 0 01-.052-.16c-.01-.054-.03-.107-.049-.16a3.396 3.396 0 01-.169-.65 2.925 2.925 0 00-.093-.38c-.078-.26-.14-.522-.203-.785-.038-.164-.084-.326-.12-.49-.043-.192-.088-.382-.114-.576-.038-.27-.085-.535-.126-.803a7.593 7.593 0 01-.082-.751c-.005-.094-.014-.187-.029-.28s-.018-.185-.024-.278c-.005-.065-.003-.131-.01-.196-.01-.102-.034-.203-.039-.306-.005-.102.012-.205.008-.307-.01-.262.007-.523.004-.785-.002-.112.015-.223.016-.335s-.008-.224-.009-.336c0-.066.002-.132.01-.196.016-.15.018-.298.013-.448a2.805 2.805 0 01.04-.586c.02-.1.02-.204.025-.307.01-.196.016-.392.024-.588l.001-.028c.036-.194.025-.391.032-.587.004-.112.004-.224.04-.333.046-.323.122-.641.181-.962.054-.294.112-.587.168-.881.02-.101.041-.201.081-.297.032-.077.033-.167.08-.238.047-.072.064-.154.09-.234.06-.197.123-.391.196-.584.096-.253.183-.51.268-.766.042-.125.092-.245.154-.36a4.06 4.06 0 00.225-.482c.054-.14.11-.278.17-.415.07-.162.151-.32.214-.486.06-.086.09-.184.133-.277.032-.068.065-.134.087-.206a.556.556 0 01.043-.104c.088-.154.151-.321.22-.485a1.95 1.95 0 01.111-.224c.117-.203.245-.398.34-.613.018-.042.044-.082.067-.122.08-.138.161-.274.238-.412.06-.106.112-.217.194-.308.092-.152.19-.301.273-.457l.203-.367c.156-.277.312-.553.451-.84.122-.252.264-.494.414-.731a3.48 3.48 0 00.277-.518 5.434 5.434 0 01.486-.751.942.942 0 00.105-.165c.033-.067.07-.132.107-.197.075-.13.144-.262.2-.401a.692.692 0 01.065-.123c.167-.248.337-.494.504-.742.271-.403.55-.8.814-1.208.101-.157.21-.31.315-.463.157-.232.32-.461.47-.698.03-.047.062-.093.097-.137.121-.155.228-.32.334-.484.106-.165.211-.33.323-.492.095-.14.191-.277.276-.422.033-.056.072-.11.11-.162.101-.146.205-.29.302-.438.226-.344.455-.685.69-1.023.17-.246.331-.497.49-.75.09-.143.186-.281.28-.421l.748-1.117c.057-.085.118-.168.177-.253l.206-.3c.142-.21.283-.418.423-.628.078-.116.152-.235.23-.352.045-.07.093-.14.14-.21.074-.107.15-.214.22-.324.03-.047.051-.1.076-.15.01-.02-.017-.062-.039-.061-.009 0-.019-.003-.028-.001-.119.02-.239.039-.358.064-.192.04-.386.07-.58.09-.057.005-.112.012-.168.019-.194.026-.388.056-.583.078-.11.012-.224.013-.336.017-.196.008-.39.015-.587.038-.157.019-.317.02-.475.024-.29.005-.58.009-.869.008-.15-.001-.299-.014-.448-.026-.13-.01-.26-.026-.39-.04a.54.54 0 01-.056-.007c-.172-.041-.347-.075-.517-.124-.099-.03-.198-.054-.297-.08a5.127 5.127 0 01-.668-.21c-.157-.061-.31-.126-.468-.188-.12-.048-.244-.093-.366-.14-.087-.034-.176-.063-.26-.102-.195-.09-.39-.181-.58-.28a28.265 28.265 0 00-.652-.327 1.793 1.793 0 01-.403-.252 3.947 3.947 0 01-.564-.458l-.02-.02c-.237-.183-.45-.392-.669-.597-.068-.065-.125-.138-.184-.21-.125-.152-.227-.32-.334-.484a1.75 1.75 0 01-.154-.298 4.803 4.803 0 00-.165-.356 2.334 2.334 0 01-.179-.44c-.017-.063-.047-.122-.068-.184-.028-.08-.063-.155-.079-.24a.488.488 0 00-.035-.105 5.72 5.72 0 01-.254-.83c-.006-.027-.017-.054-.019-.081-.019-.178-.066-.35-.1-.523-.028-.137-.038-.277-.075-.413-.013-.044-.01-.093-.014-.14-.004-.055-.003-.112-.015-.167-.032-.147-.032-.297-.037-.446-.009-.233-.007-.467-.007-.701 0-.243.027-.485.07-.724.024-.137.036-.278.077-.412.01-.027.012-.056.015-.083.025-.29.098-.571.165-.852.045-.191.09-.382.126-.575.031-.166.074-.327.14-.483.035-.086.063-.176.092-.264.057-.168.118-.334.192-.496a4.34 4.34 0 00.21-.55c.024-.08.058-.157.09-.234.076-.191.15-.384.233-.571.057-.128.127-.25.198-.37.077-.13.147-.26.218-.392.083-.157.17-.312.254-.467.082-.148.163-.295.246-.441.064-.114.13-.227.2-.338.118-.19.226-.387.354-.571.107-.153.208-.31.316-.462.091-.13.173-.266.258-.4.216-.34.437-.674.691-.987.041-.05.078-.105.117-.157.022-.03.043-.062.07-.087a1.95 1.95 0 00.314-.393c.162-.252.35-.485.532-.721l.223-.288c.074-.096.156-.187.223-.288.062-.093.137-.177.205-.266.194-.251.394-.498.57-.762.041-.062.08-.127.117-.191.044-.072.081-.147.146-.205.027-.024.046-.06.065-.091.048-.081.111-.15.171-.221.168-.201.354-.384.533-.575.108-.115.224-.225.321-.351a.85.85 0 01.075-.083c.14-.138.262-.292.383-.446l.035-.044c.082-.102.191-.18.263-.291.07-.11.161-.205.247-.303.136-.154.27-.31.423-.448.088-.082.165-.178.24-.273.064-.081.13-.16.208-.227.13-.11.24-.236.333-.376.047-.071.102-.133.162-.193.105-.105.21-.212.314-.32.04-.04.075-.083.111-.126.102-.122.2-.246.305-.365.081-.091.171-.173.252-.263.221-.241.442-.482.644-.74.11-.138.226-.273.338-.41.06-.072.113-.15.18-.215.064-.068.117-.145.181-.213.121-.13.228-.27.353-.397.112-.112.211-.237.32-.352.071-.075.14-.152.21-.228.193-.214.373-.442.567-.656.006-.007.013-.014.017-.022a5.22 5.22 0 01.56-.664c.108-.115.203-.243.321-.351a.09.09 0 00.018-.021c.09-.133.202-.245.311-.36.046-.046.084-.1.121-.153.036-.055.073-.11.114-.16.082-.102.145-.218.206-.333.044-.082.082-.168.12-.253a.787.787 0 00.067-.355.736.736 0 00-.06-.244.231.231 0 00-.029-.048.858.858 0 00-.288-.261.424.424 0 00-.159-.051 54.575 54.575 0 00-.419-.035c-.028-.001-.056-.002-.083.003-.11.022-.223.025-.335.033-.028.003-.056.003-.084.008-.32.06-.643.118-.954.22a1.449 1.449 0 00-.309.13c-.047.03-.1.049-.15.074-.077.036-.155.069-.227.112-.199.12-.394.25-.598.363-.11.086-.235.153-.349.235-.205.147-.413.288-.628.42-.023.016-.048.03-.07.047-.179.135-.365.26-.55.384-.086.057-.172.114-.249.182-.02.019-.046.034-.068.05-.11.085-.237.148-.34.245-.096.09-.21.157-.303.25a.467.467 0 01-.067.05c-.16.097-.293.232-.45.334-.03.02-.053.052-.08.078-.034.032-.066.068-.105.092-.096.06-.175.14-.255.218a3.451 3.451 0 01-.29.264 1.249 1.249 0 00-.162.155c-.068.078-.148.142-.224.21-.063.057-.13.107-.203.149a.772.772 0 00-.137.097c-.123.115-.249.226-.357.356a1.859 1.859 0 01-.318.315c-.122.129-.27.228-.402.347-.09.082-.184.159-.273.242-.108.103-.21.21-.303.33-.153.2-.32.388-.49.575a1.659 1.659 0 00-.155.199c-.08.126-.167.248-.25.37a.979.979 0 00-.129.25c-.037.115-.095.222-.133.338a.63.63 0 00-.023.304.231.231 0 00.11.157.12.12 0 00.08.017.488.488 0 00.357-.196c.055-.075.118-.145.176-.217.075-.096.157-.185.227-.285s.155-.186.243-.27c.197-.188.411-.353.623-.522a.808.808 0 01.117-.076.52.52 0 01.13-.052 2.34 2.34 0 01.751-.06 1.202 1.202 0 01.504.159c.16.066.281.18.4.302.02.02.035.043.05.066l.138.21c.015.025.03.049.042.074a2 2 0 01.12.344.485.485 0 01-.003.22c-.062.25-.187.469-.326.68-.046.07-.098.137-.147.205a2.91 2.91 0 01-.605.619c-.17.13-.335.269-.516.387-.015.01-.032.019-.044.032-.145.15-.329.246-.489.375a1.62 1.62 0 01-.21.137 1.51 1.51 0 00-.276.193.802.802 0 01-.188.12 4.935 4.935 0 01-.33.153 4.12 4.12 0 00-.375.19 1.046 1.046 0 01-.258.103 1.414 1.414 0 00-.265.093 1.97 1.97 0 01-.423.143c-.037.007-.074.015-.11.016-.085 0-.17.008-.253-.004a3.177 3.177 0 00-.447-.031c-.132-.001-.258-.037-.385-.067a.277.277 0 01-.078-.031 1.739 1.739 0 01-.348-.234l-.225-.211c-.088-.083-.17-.173-.269-.245a.585.585 0 01-.134-.142 3.468 3.468 0 01-.299-.506 1.99 1.99 0 01-.106-.288c-.052-.18-.085-.364-.12-.547a.935.935 0 01-.014-.14 10.593 10.593 0 01-.006-.252c0-.112.003-.224.001-.336-.003-.13-.018-.262-.013-.392.006-.13.015-.261.015-.392 0-.32.053-.632.146-.938l.07-.241a1.99 1.99 0 01.158-.42c.131-.328.272-.654.372-.995a3.3 3.3 0 01.332-.74c.156-.266.332-.52.5-.778.03-.046.063-.093.098-.136.101-.123.19-.255.28-.386.1-.147.204-.29.336-.411.055-.05.102-.11.151-.165.098-.113.192-.23.311-.322.03-.023.051-.054.077-.081l.076-.082c.013-.014.026-.03.041-.038.153-.094.258-.244.405-.344a.847.847 0 00.09-.07c.105-.09.21-.183.338-.244l.333-.257c.06-.045.12-.09.178-.136.045-.034.09-.066.133-.102a5.22 5.22 0 01.886-.588c.115-.061.231-.123.347-.183.05-.026.1-.05.152-.072a1.96 1.96 0 00.371-.195.724.724 0 01.148-.08 15.9 15.9 0 00.616-.266c.187-.086.383-.147.584-.193.191-.043.383-.084.564-.164a.985.985 0 01.16-.052c.217-.054.43-.128.645-.186a3.13 3.13 0 00.214-.068c.123-.043.247-.081.377-.101.11-.018.217-.057.324-.088.1-.028.197-.06.3-.07a.199.199 0 00.055-.011c.105-.041.218-.051.327-.075.11-.026.221-.04.33-.067.2-.05.405-.062.605-.112.044-.011.092-.01.14-.01.093-.001.185-.011.278-.026l.138-.023c.148-.02.298-.01.446-.041.136-.03.277-.043.416-.055.14-.011.28-.02.42-.012.13.006.261-.005.391.017.12.02.242.012.363.029.074.01.147.02.218.046a.793.793 0 00.273.053.494.494 0 01.14.014c.117.03.24.04.358.063.146.029.292.058.435.104.222.072.45.13.676.185.036.008.072.018.11.023.185.028.362.08.533.162.16.076.325.142.488.21.095.04.19.078.291.1.082.017.16.05.235.09.083.044.17.077.26.105.062.02.123.043.185.064.053.018.106.04.16.049.16.023.304.092.456.136.062.019.12.05.178.08.1.053.198.106.304.145.06.023.116.059.174.09.048.026.095.06.147.08a.831.831 0 01.26.163c.04.038.085.072.13.106.053.04.095.088.128.147.064.114.132.225.226.318a.26.26 0 01.047.07c.075.15.158.296.221.453.063.158.101.32.11.489.011.224.01.448-.007.672a1.02 1.02 0 01-.056.274c-.06.167-.107.338-.185.499-.033.067-.056.138-.08.208a4.861 4.861 0 01-.237.539 21.38 21.38 0 01-.205.398 3.531 3.531 0 01-.219.358c-.297.43-.593.862-.892 1.292-.095.139-.197.272-.295.409-.059.084-.119.168-.173.255-.159.253-.33.498-.512.736l-2.756 3.573-1.268 1.642-.192.24c-.024.03-.05.056-.072.087-.188.257-.406.489-.603.737-.122.154-.243.308-.373.455-.099.112-.199.223-.297.336-.05.056-.096.114-.144.172-.018.02-.04.04-.05.066-.057.132-.154.234-.238.346s-.158.23-.25.337a1.193 1.193 0 00-.118.157c-.11.185-.246.352-.37.527-.12.167-.244.332-.366.497-.028.038-.054.077-.083.113-.196.238-.383.483-.57.728a.77.77 0 01-.09.106 2.905 2.905 0 00-.407.499c-.21.308-.413.623-.624.93a5.935 5.935 0 01-.35.473 4.394 4.394 0 00-.284.382c-.176.264-.36.523-.526.795a6.057 6.057 0 01-.267.394 5.234 5.234 0 00-.285.449c-.166.293-.34.58-.51.87-.114.193-.238.38-.34.579a.796.796 0 01-.06.095c-.1.136-.176.286-.23.446a.954.954 0 01-.065.155c-.082.148-.136.307-.194.465-.06.167-.126.332-.192.497-.104.26-.175.53-.242.803-.013.055-.019.11-.028.166-.008.056-.009.112-.022.166a1.91 1.91 0 00-.042.446c0 .13.001.262.008.392.016.302.088.59.2.87.078.2.173.393.271.584.116.228.268.427.431.62a.55.55 0 00.104.094c.144.102.29.203.437.303a.807.807 0 00.124.064c.095.038.184.09.285.117a.21.21 0 01.051.023c.163.093.342.15.514.22.06.025.122.05.186.062.22.045.436.102.657.144.11.02.221.035.333.039.15.006.3.01.446.04.064.012.131.012.196.012.168 0 .336 0 .505-.002.065-.001.13-.008.195-.014.046-.005.092-.016.14-.02.26-.02.515-.08.772-.13a.268.268 0 00.055-.011l.645-.188c.153-.045.3-.106.441-.178.208-.106.42-.207.628-.311.192-.096.373-.212.54-.35.072-.06.138-.124.195-.2.096-.126.193-.252.28-.384.14-.211.284-.417.432-.622.06-.083.114-.17.171-.256.103-.155.214-.305.322-.458.055-.075.115-.147.158-.231.022-.041.05-.08.076-.117.17-.247.342-.491.505-.741.153-.235.317-.463.47-.697.024-.04.05-.08.077-.117.3-.405.56-.84.855-1.248.225-.31.426-.636.65-.948.09-.13.175-.264.276-.387.041-.05.077-.106.113-.16.09-.132.167-.27.27-.393a.285.285 0 00.03-.046 5.44 5.44 0 01.474-.693.473.473 0 00.045-.071c.066-.124.147-.238.226-.354.167-.248.34-.493.503-.742.253-.382.52-.754.777-1.132.048-.07.096-.14.14-.21.14-.233.276-.466.414-.7.105-.176.217-.347.345-.51.163-.204.32-.414.457-.636.01-.016.02-.032.032-.046.154-.201.285-.416.438-.617.101-.134.2-.27.29-.412.054-.087.118-.168.176-.253.08-.115.16-.23.238-.346.09-.131.178-.263.272-.392.093-.127.165-.27.255-.401.137-.2.278-.398.424-.592.141-.187.274-.38.402-.574.097-.148.2-.292.3-.44.083-.123.178-.24.242-.375.027-.06.073-.108.111-.161l.277-.388.016-.024c.053-.087.102-.178.16-.262s.131-.158.192-.241a8.49 8.49 0 00.327-.49c.02-.03.036-.064.06-.094.158-.208.297-.43.447-.644.112-.161.213-.33.337-.482.036-.043.062-.093.09-.142.063-.115.138-.222.216-.327.066-.09.127-.185.192-.276.235-.326.46-.658.684-.992.103-.156.217-.304.31-.468.19-.253.35-.528.541-.782.113-.15.211-.31.321-.46.27-.37.518-.754.777-1.131.064-.092.121-.19.185-.281.095-.14.191-.277.29-.413a.174.174 0 01.142-.076c.103-.003.206-.004.31-.004h8.212c.084 0 .17 0 .253.004.027 0 .055.008.082.014.05.01.087.09.064.136-.013.025-.025.05-.04.073-.195.274-.376.558-.563.837-.202.303-.403.607-.616.902-.12.167-.228.342-.34.514a2.53 2.53 0 01-.269.358.932.932 0 00-.128.184c-.069.122-.144.24-.217.36a1.371 1.371 0 01-.06.095c-.14.197-.263.408-.4.608-.13.193-.268.383-.398.576-.079.116-.15.236-.226.355a7.523 7.523 0 01-.185.28c-.165.238-.333.474-.49.718-.09.14-.19.276-.282.417-.203.314-.409.625-.615.937-.026.039-.056.074-.084.112-.033.045-.067.09-.098.136l-.56.839a4.877 4.877 0 00-.092.14c-.168.282-.36.546-.544.817a1.947 1.947 0 01-.136.178 3.437 3.437 0 00-.34.479c-.07.11-.137.223-.207.333-.075.118-.149.238-.229.353-.272.39-.53.79-.789 1.19-.102.157-.196.318-.3.473-.219.326-.432.656-.649.982-.228.342-.463.679-.695 1.018-.02.03-.046.06-.064.092-.125.219-.268.427-.41.635-.032.047-.057.098-.093.14-.109.13-.192.276-.282.418-.149.237-.303.47-.455.707-.045.07-.094.138-.144.207-.109.15-.214.306-.316.462-.128.195-.252.393-.378.59-.025.039-.049.079-.075.118l-1.138 1.7a8.4 8.4 0 00-.429.624c-.13.204-.26.409-.397.61-.02.03-.04.063-.062.093-.193.265-.367.54-.54.819-.074.119-.154.234-.232.35-.093.14-.188.279-.282.418-.047.07-.097.138-.144.207l-.109.163c-.092.14-.182.283-.279.42-.108.153-.21.309-.312.466-.07.11-.145.217-.218.325-.02.032-.043.06-.063.094-.208.343-.435.674-.66 1.007-.11.163-.215.329-.322.493-.06.093-.12.188-.184.28-.095.14-.192.277-.277.423-.066.112-.142.219-.216.326-.18.263-.348.532-.52.798-.178.275-.368.54-.55.813-.202.303-.402.608-.604.91-.149.227-.3.452-.45.677-.146.217-.289.437-.444.647-.038.053-.069.11-.104.166-.16.253-.325.503-.489.752-.18.273-.358.547-.54.818-.21.31-.407.627-.61.94l-.388.584-.572.865c-.026.039-.052.078-.079.115a4.119 4.119 0 00-.22.325 2.138 2.138 0 01-.094.14 3.883 3.883 0 00-.203.302c-.028.048-.064.09-.096.137a307.8 307.8 0 00-.502.708c-.065.092-.119.19-.166.293-.05.11-.117.212-.187.31-.13.184-.256.369-.374.56-.183.293-.375.58-.56.87-.167.26-.332.522-.509.774-.316.452-.607.92-.907 1.382-.205.313-.415.62-.622.932l-.45.678c-.217.326-.43.656-.652.98-.243.354-.48.71-.71 1.075-.01.016-.019.032-.03.047-.144.185-.259.388-.389.582s-.254.392-.383.587c-.28.419-.55.846-.836 1.26a3.557 3.557 0 00-.106.166c-.129.217-.256.434-.384.652-.023.04-.048.08-.073.119-.155.245-.309.49-.466.733a2.363 2.363 0 00-.127.217c-.034.066-.08.126-.12.189-.167.27-.31.553-.442.842-.066.145-.138.287-.2.432-.104.24-.228.47-.319.716-.037.096-.085.187-.125.282-.133.319-.277.632-.403.955-.014.034-.032.067-.049.1-.113.226-.204.46-.287.699-.052.15-.112.297-.169.446-.006.017-.015.034-.02.05-.098.324-.242.628-.373.938-.007.017-.015.034-.02.052-.069.204-.156.4-.239.598-.057.137-.095.283-.14.425-.05.16-.098.32-.168.475-.027.059-.044.123-.062.186a9.5 9.5 0 00-.212.928c-.013.073-.033.146-.05.218-.012.045-.032.089-.037.135-.012.13-.046.257-.063.387-.029.222-.07.442-.106.663-.043.267-.08.536-.114.805-.013.1-.015.205-.02.307-.004.103-.002.206-.008.308-.01.205-.012.41-.039.615a2.44 2.44 0 00-.01.56c.002.027.001.056.002.084.008.224.018.447.035.67.024.318.024.636.071.95.004.028.004.057.006.085.006.102.003.207.02.307.027.156.067.31.105.465.016.063.035.126.037.192a.658.658 0 00.053.216c.101.262.2.524.298.786.023.06.045.123.065.185a8.265 8.265 0 00.21.579c.064.215.162.418.257.62.111.237.226.472.327.714.08.189.16.378.244.565.02.042.036.087.062.125.122.177.216.37.326.555l.157.265c.062.105.124.21.184.315.046.08.095.16.15.237.057.085.112.17.166.259.053.088.113.17.178.25.058.074.126.14.168.224a.162.162 0 00.034.044c.183.188.343.395.511.595.252.302.531.577.821.84.07.063.14.126.206.192.19.192.392.373.601.546.172.143.337.296.513.434.257.203.492.432.772.604.153.124.313.237.477.344.032.02.06.045.093.063.35.198.686.419 1.044.6.083.044.167.086.247.133.211.123.433.22.66.31.051.02.103.042.154.064.335.145.672.28 1.015.404.457.164.91.338 1.37.496.15.05.3.106.447.164.174.067.356.11.537.158.018.004.037.004.055.01.23.078.47.122.7.2.044.015.09.026.134.037.11.028.221.03.33.069.095.034.2.047.3.065.1.019.202.032.303.05.156.032.31.077.47.079a.257.257 0 01.081.018c.107.038.218.05.328.069.14.024.276.052.413.08.11.024.218.052.331.054.028 0 .058.002.083.01.145.047.295.044.444.057.121.009.242.019.363.032.14.014.278.027.42.029.12 0 .242.005.362.023.065.01.131.009.196.01.224.009.448.017.673.024.046.002.093-.001.14 0 .102.003.205.004.307.013.168.015.336.018.503-.003a.549.549 0 01.14-.004c.103.012.204.012.307-.002a.856.856 0 01.168-.003c.158.008.317-.01.475.02.036.006.075 0 .112-.006.12-.02.241-.026.362-.034.121-.01.241-.033.362-.045.111-.012.224-.011.334-.027.231-.034.463-.062.694-.094.26-.036.52-.077.777-.123.13-.023.255-.055.386-.06.037 0 .074-.012.11-.023.053-.017.105-.037.157-.058.165-.065.333-.122.505-.167.207-.056.413-.118.62-.178.043-.013.087-.031.131-.047.035-.013.07-.03.104-.04.225-.065.443-.147.655-.247.188-.06.36-.156.535-.242.201-.1.4-.203.598-.308.148-.08.296-.16.437-.25.11-.07.217-.147.313-.237.184-.172.384-.326.557-.511.038-.041.084-.074.125-.112.047-.045.096-.09.14-.138a42 42 0 00.441-.506 1.79 1.79 0 00.186-.28c.028-.05.05-.101.083-.146.146-.206.266-.428.4-.642.183-.295.326-.61.43-.94.031-.098.074-.192.103-.29.03-.098.046-.2.072-.3.011-.045.031-.088.045-.132a1.49 1.49 0 00.067-.271c.028-.204.083-.403.127-.603.05-.228.094-.457.138-.686.026-.138.04-.278.054-.417.007-.056.001-.112.003-.168l.011-.28c.003-.093.051-.182.035-.277-.015-.093-.009-.186-.015-.28-.017-.242-.025-.485-.072-.724-.015-.073-.015-.15-.026-.222a2.86 2.86 0 00-.116-.49 1.288 1.288 0 01-.067-.243c-.015-.112-.052-.218-.087-.324a4.928 4.928 0 00-.219-.575c-.02-.042-.035-.086-.053-.13-.103-.25-.204-.501-.31-.75-.037-.086-.084-.167-.126-.25-.08-.158-.173-.31-.239-.476-.013-.034-.034-.066-.053-.098a10.376 10.376 0 00-.49-.783 4.676 4.676 0 01-.196-.307 3.36 3.36 0 00-.286-.415c-.154-.188-.3-.381-.45-.574-.04-.051-.074-.107-.11-.161a1.792 1.792 0 00-.29-.341c-.155-.136-.294-.288-.44-.432a15.54 15.54 0 00-.626-.603c-.206-.217-.439-.405-.664-.602-.035-.031-.074-.057-.107-.09-.17-.174-.366-.32-.555-.472-.05-.041-.105-.077-.158-.115a10.05 10.05 0 01-.539-.402c-.015-.012-.03-.023-.043-.036a8.16 8.16 0 00-.764-.614c-.099-.07-.203-.133-.303-.201a2.567 2.567 0 01-.156-.12 6.039 6.039 0 00-.42-.325c-.137-.097-.266-.206-.402-.305a27.818 27.818 0 01-.802-.612l-.067-.05c-.203-.136-.387-.293-.573-.45-.143-.12-.286-.24-.438-.35-.106-.076-.2-.166-.3-.25a3.825 3.825 0 01-.349-.326c-.133-.143-.277-.277-.392-.438-.016-.022-.038-.041-.057-.062-.082-.088-.16-.181-.25-.263a.884.884 0 01-.118-.12c-.157-.2-.348-.366-.52-.55-.167-.176-.34-.347-.51-.521-.104-.107-.209-.213-.295-.336a2.458 2.458 0 00-.174-.22 8.925 8.925 0 01-.39-.476 3.675 3.675 0 00-.368-.422c-.102-.097-.185-.211-.27-.323a13.344 13.344 0 01-.26-.364.974.974 0 01-.07-.121c-.027-.05-.05-.1-.075-.151a6.555 6.555 0 00-.367-.693c-.03-.047-.056-.097-.083-.146a4.615 4.615 0 00-.256-.434c-.059-.083-.103-.177-.152-.268a.464.464 0 01-.042-.103c-.025-.101-.072-.192-.116-.285-.143-.304-.286-.608-.393-.928-.079-.171-.11-.357-.177-.531-.066-.176-.102-.36-.15-.54a19.707 19.707 0 01-.155-.625.714.714 0 01-.023-.166c0-.178-.049-.351-.067-.527-.059-.226-.085-.46-.129-.688-.02-.111-.022-.223-.026-.335-.005-.121-.005-.243-.01-.364a1.416 1.416 0 00-.02-.195 1.286 1.286 0 01-.022-.223c0-.374-.01-.747.002-1.121a.823.823 0 01.03-.221.393.393 0 00.015-.083c.01-.121.03-.241.045-.361.03-.222.055-.445.075-.668.015-.17.048-.334.101-.493.04-.116.071-.233.103-.35.023-.08.045-.161.076-.24.044-.113.076-.23.104-.348.048-.2.11-.397.19-.586.048-.112.088-.226.122-.343.05-.17.115-.335.185-.498.077-.181.15-.362.224-.544.121-.293.245-.585.42-.854a4.5 4.5 0 00.206-.365c.05-.1.112-.195.174-.288.098-.147.202-.291.303-.437.07-.1.135-.202.206-.301.065-.09.137-.177.205-.267a.517.517 0 00.046-.07c.115-.205.257-.388.417-.56.064-.068.12-.144.182-.213.1-.111.196-.224.312-.321.106-.091.2-.196.3-.295a2.5 2.5 0 01.337-.294c.091-.064.178-.135.261-.211.16-.146.331-.274.511-.391a2.33 2.33 0 00.397-.31c.04-.04.087-.071.133-.103.084-.06.171-.113.254-.173.084-.06.17-.115.267-.152.018-.006.033-.017.05-.026.077-.045.127-.107.131-.201.005-.131.016-.261.02-.392.004-.15.003-.3.006-.448.002-.056.005-.112.012-.168.02-.158.03-.316.024-.475a3.492 3.492 0 01.087-.834c.038-.183.07-.367.074-.555.003-.112.011-.224.021-.336.033-.353.074-.705.188-1.045.078-.23.142-.464.214-.696.027-.09.04-.183.074-.27.1-.242.191-.488.296-.727.12-.273.252-.542.38-.812.084-.177.184-.346.284-.514.034-.057.071-.111.11-.164.123-.175.253-.346.386-.514.244-.308.495-.61.732-.921a.984.984 0 01.238-.235c.101-.068.181-.161.261-.252.037-.042.072-.086.106-.131.076-.095.161-.181.256-.258.11-.087.214-.181.314-.28.086-.085.177-.165.267-.247.145-.132.292-.262.436-.395.145-.133.3-.253.457-.37.3-.223.6-.447.887-.686.114-.096.237-.181.356-.272.066-.051.135-.1.198-.155.093-.081.193-.148.3-.207a8.47 8.47 0 01.981-.48c.14-.055.271-.126.41-.181.077-.03.153-.067.238-.078a.445.445 0 00.131-.046 1.37 1.37 0 01.211-.077c.171-.05.337-.11.495-.193a.485.485 0 01.158-.054c.122-.018.234-.064.346-.113.085-.037.17-.072.264-.085.083-.012.164-.04.242-.071.172-.072.356-.113.532-.174.01-.003.018-.006.027-.007.065-.01.131-.011.193-.028.063-.016.124-.042.19-.046a.236.236 0 00.055-.007c.19-.057.386-.068.581-.088.074-.007.15-.011.221-.033a.724.724 0 01.221-.035c.17 0 .331-.051.496-.08.028-.004.054-.016.081-.024a.19.19 0 00.091-.062c.024-.03.047-.058.068-.09.088-.132.178-.262.261-.398.112-.183.23-.362.352-.54.078-.115.152-.235.23-.352.284-.44.572-.875.855-1.316.282-.44.57-.878.857-1.314.15-.226.29-.458.438-.684.232-.351.454-.708.684-1.06.118-.18.24-.356.362-.533a.652.652 0 01.07-.088.205.205 0 01.145-.073c.103-.001.205-.003.308-.003z" fill="red" fill-rule="evenodd" mask="url(#a)"/></svg>